<svg width="48" height="48" viewBox="0 0 48 48" fill="none" xmlns="http://www.w3.org/2000/svg">
<path fill-rule="evenodd" clip-rule="evenodd" d="M24 48C37.2548 48 48 37.2548 48 24C48 10.7452 37.2548 0 24 0C10.7452 0 0 10.7452 0 24C0 37.2548 10.7452 48 24 48Z" fill="#FFE9F6"/>
<path d="M31 30.1956L37 24.1956" stroke="#F0008C" stroke-width="1.7" stroke-linecap="round" stroke-linejoin="round"/>
<path d="M28 28.1956L36 20.1956" stroke="#F0008C" stroke-width="1.7" stroke-linecap="round" stroke-linejoin="round"/>
<path d="M25 25.1956L33 17.1956" stroke="#F0008C" stroke-width="1.7" stroke-linecap="round" stroke-linejoin="round"/>
<path d="M25 21.1956L31 15.1956" stroke="#F0008C" stroke-width="1.7" stroke-linecap="round" stroke-linejoin="round"/>
<path d="M27 10.1957H23" stroke="#F0008C" stroke-width="1.7" stroke-linecap="round" stroke-linejoin="round"/>
<path d="M12 23.1956L14 21.1956" stroke="#F0008C" stroke-width="1.7" stroke-linecap="round" stroke-linejoin="round"/>
<path d="M16 24.1956L14 21.1956" stroke="#F0008C" stroke-width="1.7" stroke-linecap="round" stroke-linejoin="round"/>
<path d="M25 13.1956C31.6274 13.1956 37 18.5682 37 25.1956" stroke="#F0008C" stroke-width="1.7" stroke-linecap="round" stroke-linejoin="round"/>
<path d="M17 16.1956C19.1779 14.2635 22.035 13.192 25 13.1957" stroke="#F0008C" stroke-width="1.7" stroke-linecap="round" stroke-linejoin="round"/>
<path d="M12.8088 25.1956C12.8081 24.1834 12.9366 23.1753 13.1912 22.1956" stroke="#F0008C" stroke-width="1.7" stroke-linecap="round" stroke-linejoin="round"/>
<path d="M25 37.1956C18.3726 37.1956 13 31.8231 13 25.1956" stroke="#F0008C" stroke-width="1.7" stroke-linecap="round" stroke-linejoin="round"/>
<path d="M37 25.1956C37 28.3782 35.7357 31.4305 33.4853 33.6809C31.2348 35.9314 28.1826 37.1956 25 37.1956" stroke="#F0008C" stroke-width="1.7" stroke-linecap="round" stroke-linejoin="round"/>
<path d="M25 13.1956V25.5392L33 34.1956" stroke="#F0008C" stroke-width="1.7" stroke-linecap="round" stroke-linejoin="round"/>
</svg>
