<svg width="79" height="79" viewBox="0 0 79 79" fill="none" xmlns="http://www.w3.org/2000/svg">
<rect width="79" height="79" rx="2" fill="#FDE5F3"/>
<path d="M42.9938 30.2743C39.0726 27.3422 37.4357 30.1774 37.7033 31.7339C37.9398 33.1159 39.7759 33.5745 40.529 33.6714C45.888 34.4657 42.3154 41.0339 37 36.9393" stroke="#F24AAA" stroke-width="2.5" stroke-linecap="round" stroke-linejoin="round"/>
<path d="M32.371 41.1993C29.5075 37.8259 28.9092 32.8735 30.8752 28.8183C32.8413 24.7632 36.9492 22.4767 41.1449 23.1022C45.3407 23.7277 48.7227 27.1308 49.5999 31.6098C50.477 36.0888 48.6609 40.6813 45.0595 43.0909" stroke="#F24AAA" stroke-width="2.5" stroke-linecap="round" stroke-linejoin="round"/>
<path d="M25.091 41.5454V57" stroke="#F24AAA" stroke-width="2.5" stroke-linecap="round" stroke-linejoin="round"/>
<path d="M20.9697 57C20.0321 57 18.9091 55.7583 18.9091 54.8098V43.6776C18.9091 42.7237 19.2852 41.5141 20.7431 41.546H25.0909" stroke="#F24AAA" stroke-width="2.5" stroke-linecap="round" stroke-linejoin="round"/>
<path d="M34.6291 46.7768H45.7711L55.9723 43.2471C57.0949 42.8199 58.3768 43.2971 58.883 44.3308C59.3892 45.3644 58.941 46.5893 57.8652 47.1122L38.9986 55.4545L25.0909 52.6329" stroke="#F24AAA" stroke-width="2.5" stroke-linecap="round" stroke-linejoin="round"/>
<path d="M25.0909 42.3181H40.5455" stroke="#F24AAA" stroke-width="2.5" stroke-linecap="round" stroke-linejoin="round"/>
</svg>
