<svg width="79" height="79" viewBox="0 0 79 79" fill="none" xmlns="http://www.w3.org/2000/svg">
<rect width="79" height="79" rx="2" fill="#FDE5F3"/>
<path d="M45.2419 40.3899V59H57.4112C58.9631 59 59.2861 58.0628 59.2861 56.594V25.7677C59.2861 24.2994 58.0286 23.1091 56.4773 23.1091H48.0507C46.4994 23.1091 45.2419 24.2994 45.2419 25.7677V35.0727" stroke="#F24AAA" stroke-width="2.5" stroke-linecap="round" stroke-linejoin="round"/>
<path d="M31.1976 59H45.2419V35.5929" stroke="#F24AAA" stroke-width="2.5" stroke-linecap="round" stroke-linejoin="round"/>
<path d="M45.2419 34.0325H34.0065C32.4552 34.0325 31.1976 35.1503 31.1976 36.5292V40.2744" stroke="#F24AAA" stroke-width="2.5" stroke-linecap="round" stroke-linejoin="round"/>
<path d="M18.7139 49.2884C18.7139 47.7574 19.9714 46.5162 21.5227 46.5162H32.7581V58.9909H21.5227C20.8071 59.0506 20.0985 58.8144 19.566 58.3388C19.0335 57.8632 18.7249 57.1908 18.7139 56.4821V49.2884" stroke="#F24AAA" stroke-width="2.5" stroke-linecap="round" stroke-linejoin="round"/>
<path d="M32.7581 21.5487L18.7139 35.593" stroke="#F24AAA" stroke-width="2.5" stroke-linecap="round" stroke-linejoin="round"/>
<path d="M28.0767 21.5487H32.7581" stroke="#F24AAA" stroke-width="2.5" stroke-linecap="round" stroke-linejoin="round"/>
<path d="M32.7581 27.7905V23.1091" stroke="#F24AAA" stroke-width="2.5" stroke-linecap="round" stroke-linejoin="round"/>
<path d="M45.2419 43.3953L59.2861 55.879" stroke="#F24AAA" stroke-width="2.5" stroke-linecap="round" stroke-linejoin="round"/>
<path d="M45.2419 51.1976L53.0442 59" stroke="#F24AAA" stroke-width="2.5" stroke-linecap="round" stroke-linejoin="round"/>
<path d="M45.2419 34.0325L59.2861 46.5162" stroke="#F24AAA" stroke-width="2.5" stroke-linecap="round" stroke-linejoin="round"/>
<path d="M45.2419 26.2301L59.2861 38.7139" stroke="#F24AAA" stroke-width="2.5" stroke-linecap="round" stroke-linejoin="round"/>
<path d="M51.4838 21.5487L59.2861 29.3511" stroke="#F24AAA" stroke-width="2.5" stroke-linecap="round" stroke-linejoin="round"/>
</svg>
