<svg width="79" height="79" viewBox="0 0 79 79" fill="none" xmlns="http://www.w3.org/2000/svg">
<rect width="79" height="79" rx="2" fill="#FDE5F3"/>
<path d="M48.7746 49.012L57.3357 40.4508" stroke="#F24AAA" stroke-width="2.5" stroke-linecap="round" stroke-linejoin="round"/>
<path d="M44.494 46.1583L55.9089 34.7434" stroke="#F24AAA" stroke-width="2.5" stroke-linecap="round" stroke-linejoin="round"/>
<path d="M40.2134 41.8776L51.6283 30.4628" stroke="#F24AAA" stroke-width="2.5" stroke-linecap="round" stroke-linejoin="round"/>
<path d="M40.2134 36.1702L48.7746 27.609" stroke="#F24AAA" stroke-width="2.5" stroke-linecap="round" stroke-linejoin="round"/>
<path d="M43.0671 20.4747H37.3597" stroke="#F24AAA" stroke-width="2.5" stroke-linecap="round" stroke-linejoin="round"/>
<path d="M21.6642 39.0239L24.518 36.1702" stroke="#F24AAA" stroke-width="2.5" stroke-linecap="round" stroke-linejoin="round"/>
<path d="M27.3717 40.4507L24.518 36.1702" stroke="#F24AAA" stroke-width="2.5" stroke-linecap="round" stroke-linejoin="round"/>
<path d="M40.2134 24.7554C49.6698 24.7554 57.3357 32.4213 57.3357 41.8777" stroke="#F24AAA" stroke-width="2.5" stroke-linecap="round" stroke-linejoin="round"/>
<path d="M28.7985 29.0359C31.9061 26.279 35.9828 24.7502 40.2134 24.7554" stroke="#F24AAA" stroke-width="2.5" stroke-linecap="round" stroke-linejoin="round"/>
<path d="M22.8183 41.8776C22.8172 40.4333 23.0006 38.9948 23.3639 37.597" stroke="#F24AAA" stroke-width="2.5" stroke-linecap="round" stroke-linejoin="round"/>
<path d="M40.2134 59C30.757 59 23.0911 51.3341 23.0911 41.8777" stroke="#F24AAA" stroke-width="2.5" stroke-linecap="round" stroke-linejoin="round"/>
<path d="M57.3357 41.8777C57.3357 46.4188 55.5318 50.7739 52.3207 53.985C49.1097 57.196 44.7545 59 40.2134 59" stroke="#F24AAA" stroke-width="2.5" stroke-linecap="round" stroke-linejoin="round"/>
<path d="M40.2134 24.7554V42.3679L51.6283 54.7194" stroke="#F24AAA" stroke-width="2.5" stroke-linecap="round" stroke-linejoin="round"/>
</svg>
