<svg width="700" height="564" viewBox="0 0 700 564" fill="none" xmlns="http://www.w3.org/2000/svg">
<g clip-path="url(#clip0)">
<path d="M481.659 136.904C486.47 136.904 490.369 133.005 490.369 128.197C490.369 123.388 486.47 119.489 481.659 119.489C476.848 119.489 472.948 123.388 472.948 128.197C472.948 133.005 476.848 136.904 481.659 136.904Z" fill="#F1F1F1"/>
<path d="M430.3 473.852C435.111 473.852 439.011 469.954 439.011 465.145C439.011 460.336 435.111 456.438 430.3 456.438C425.49 456.438 421.59 460.336 421.59 465.145C421.59 469.954 425.49 473.852 430.3 473.852Z" fill="#F1F1F1"/>
<path d="M213.653 220.698C218.464 220.698 222.363 216.8 222.363 211.991C222.363 207.182 218.464 203.284 213.653 203.284C208.842 203.284 204.942 207.182 204.942 211.991C204.942 216.8 208.842 220.698 213.653 220.698Z" fill="#F1F1F1"/>
<path d="M132.681 564C183.867 564 225.361 557.923 225.361 550.428C225.361 542.932 183.867 536.855 132.681 536.855C81.4945 536.855 40 542.932 40 550.428C40 557.923 81.4945 564 132.681 564Z" fill="#F1F1F1"/>
<path d="M181.64 452.457L204.908 445.17C203.62 435.497 200.68 426.117 196.217 417.439L172.949 424.725C178.409 432.962 181.423 442.578 181.64 452.457V452.457Z" fill="#FF3DB0"/>
<path d="M125.715 277.891C137.713 277.891 147.439 268.168 147.439 256.175C147.439 244.182 137.713 234.459 125.715 234.459C113.717 234.459 103.991 244.182 103.991 256.175C103.991 268.168 113.717 277.891 125.715 277.891Z" fill="#2F2E41"/>
<path d="M102.279 528.299L98.1465 546.002H108.182L112.314 525.938L102.279 528.299Z" fill="#9F616A"/>
<path d="M150.686 528.299V544.822L160.721 546.002V528.299H150.686Z" fill="#9F616A"/>
<path d="M99.3271 340.646C99.3271 340.646 100.508 366.021 101.688 367.791C102.869 369.561 113.495 394.936 113.495 394.936L118.808 378.413C118.808 378.413 110.543 364.841 111.724 357.169C112.905 349.498 112.161 340.058 112.161 340.058L99.3271 340.646Z" fill="#9F616A"/>
<path d="M132.975 279.276C142.104 279.276 149.504 271.878 149.504 262.753C149.504 253.628 142.104 246.23 132.975 246.23C123.847 246.23 116.446 253.628 116.446 262.753C116.446 271.878 123.847 279.276 132.975 279.276Z" fill="#9F616A"/>
<path d="M119.398 264.523C119.398 264.523 119.988 288.127 115.856 291.668C111.724 295.209 139.469 292.258 139.469 292.258C139.469 292.258 133.566 275.735 138.288 272.195C143.011 268.654 119.398 264.523 119.398 264.523Z" fill="#9F616A"/>
<path d="M141.24 291.078C141.24 291.078 137.698 284.587 132.976 285.177C128.253 285.767 112.905 286.947 112.314 288.128C111.724 289.308 109.953 293.439 108.772 294.619C107.592 295.799 98.7368 297.569 98.1465 304.65C97.5562 311.732 119.398 354.809 119.398 354.809C119.398 354.809 116.447 364.841 117.037 367.201C117.627 369.562 114.085 376.643 114.676 379.593C115.266 382.544 105.821 400.247 110.543 423.261V460.437C110.543 460.437 94.6046 524.758 99.3272 529.479C104.05 534.2 119.988 531.249 122.94 529.479C125.892 527.709 138.288 438.604 138.288 438.604L144.192 408.508L144.782 474.6C144.782 474.6 143.601 530.069 147.734 531.84C151.866 533.61 167.805 534.2 168.985 530.659C169.906 527.898 174.418 454.425 176.359 422.219C177.031 411.102 176.157 399.946 173.76 389.069C171.303 377.93 167.736 364.842 163.672 359.53C155.998 349.498 151.276 317.633 151.276 317.633L161.311 299.34C161.311 299.34 155.408 293.439 151.866 293.439C148.324 293.439 141.24 291.078 141.24 291.078Z" fill="#2F2E41"/>
<path d="M101.688 300.52L98.5753 302.638C98.5753 302.638 96.3755 340.646 98.1465 343.007C99.9175 345.367 112.23 344.215 113.158 342.136C114.085 340.056 101.688 300.52 101.688 300.52Z" fill="#2F2E41"/>
<path d="M150.096 335.926C150.096 335.926 150.686 360.71 154.228 367.791C157.77 374.872 170.757 404.378 170.757 404.378C170.757 404.378 170.003 436.852 176.578 428.876C183.154 420.9 179.021 402.017 179.021 402.017L167.805 358.35C167.805 358.35 161.902 338.876 162.492 332.975C163.083 327.074 150.096 335.926 150.096 335.926Z" fill="#9F616A"/>
<path d="M160.721 535.262C160.721 535.262 161.311 534.79 163.082 536.56C164.853 538.331 169.576 540.691 168.986 547.182C168.395 553.673 164.853 554.853 164.853 554.853V553.083H163.082V556.034C163.082 556.034 160.131 565.475 146.553 559.574C146.553 559.574 145.963 554.853 146.553 551.903C147.144 548.952 147.144 534.79 148.915 535.38C150.686 535.97 155.408 536.56 156.589 538.921C157.77 541.281 161.311 540.454 160.721 535.262Z" fill="#2F2E41"/>
<path d="M99.9178 535.852C99.9178 535.852 99.3274 535.38 97.5565 537.15C95.7855 538.921 91.0629 541.281 91.6533 547.772C92.2436 554.263 95.7855 555.443 95.7855 555.443V553.673H97.5565V556.624C97.5565 556.624 100.508 566.065 114.086 560.164C114.086 560.164 114.676 555.443 114.086 552.493C113.495 549.542 113.495 535.38 111.724 535.97C109.953 536.56 105.231 537.15 104.05 539.511C102.869 541.871 99.3274 541.044 99.9178 535.852Z" fill="#2F2E41"/>
<path d="M153.047 297.569L161.312 299.339C161.312 299.339 161.312 312.322 163.673 317.633C166.034 322.943 170.166 335.336 168.395 335.926C166.625 336.516 150.096 344.777 148.915 340.056C147.734 335.336 144.783 297.569 153.047 297.569Z" fill="#2F2E41"/>
<path d="M102.181 249.298C114.179 249.298 123.905 239.576 123.905 227.583C123.905 215.59 114.179 205.867 102.181 205.867C90.1831 205.867 80.457 215.59 80.457 227.583C80.457 239.576 90.1831 249.298 102.181 249.298Z" fill="#2F2E41"/>
<path d="M83.4429 245.565C86.2547 247.596 89.5122 248.925 92.943 249.44C96.3738 249.955 99.8781 249.641 103.163 248.525C106.447 247.408 109.417 245.522 111.822 243.023C114.228 240.524 116 237.486 116.99 234.162C116.616 237.141 115.627 240.009 114.087 242.587C112.548 245.164 110.49 247.395 108.045 249.137C105.599 250.88 102.819 252.096 99.8792 252.711C96.9396 253.325 93.9044 253.323 90.9655 252.705C88.0266 252.088 85.2477 250.868 82.8042 249.122C80.3608 247.377 78.3059 245.144 76.7692 242.565C75.2326 239.986 74.2476 237.116 73.8765 234.137C73.5054 231.158 73.7561 228.134 74.613 225.257C74.1264 229.122 74.6894 233.048 76.243 236.621C77.7966 240.194 80.2836 243.283 83.4429 245.565V245.565Z" fill="#2F2E41"/>
<path d="M119.922 275.719C128.72 275.719 135.853 268.589 135.853 259.794C135.853 250.999 128.72 243.87 119.922 243.87C111.124 243.87 103.991 250.999 103.991 259.794C103.991 268.589 111.124 275.719 119.922 275.719Z" fill="#2F2E41"/>
<path d="M133.319 264.861C141.117 264.861 147.439 259.919 147.439 253.823C147.439 247.726 141.117 242.784 133.319 242.784C125.52 242.784 119.198 247.726 119.198 253.823C119.198 259.919 125.52 264.861 133.319 264.861Z" fill="#2F2E41"/>
<path d="M137.084 269.874C138.564 269.874 139.764 267.752 139.764 265.134C139.764 262.516 138.564 260.394 137.084 260.394C135.604 260.394 134.404 262.516 134.404 265.134C134.404 267.752 135.604 269.874 137.084 269.874Z" fill="#A0616A"/>
<path d="M581.705 202.411L279.791 111.784L206.957 354.242L508.87 444.869L581.705 202.411Z" fill="#F1F1F1"/>
<path d="M400.784 182.731L472.296 211.626" stroke="#3F3D56" stroke-width="2" stroke-miterlimit="10"/>
<path d="M402.602 188.672L403.673 188.172L401.204 182.902L406.643 180.826L406.221 179.723L399.597 182.253L402.602 188.672Z" fill="#3F3D56"/>
<path d="M466.86 214.635L466.438 213.532L471.876 211.457L469.408 206.186L470.479 205.686L473.484 212.107L466.86 214.635Z" fill="#3F3D56"/>
<path d="M436.54 203.669C440.127 203.669 443.034 200.763 443.034 197.178C443.034 193.593 440.127 190.687 436.54 190.687C432.954 190.687 430.047 193.593 430.047 197.178C430.047 200.763 432.954 203.669 436.54 203.669Z" fill="#3F3D56"/>
<path d="M395.335 383.046L461.217 342.948" stroke="#3F3D56" stroke-width="2" stroke-miterlimit="10"/>
<path d="M401.188 385.135L401.426 383.978L395.723 382.811L397.304 377.21L396.166 376.89L394.242 383.712L401.188 385.135Z" fill="#3F3D56"/>
<path d="M460.387 349.104L459.249 348.785L460.831 343.185L455.127 342.017L455.365 340.86L462.312 342.283L460.387 349.104Z" fill="#3F3D56"/>
<path d="M428.276 369.488C431.862 369.488 434.769 366.582 434.769 362.997C434.769 359.412 431.862 356.506 428.276 356.506C424.689 356.506 421.782 359.412 421.782 362.997C421.782 366.582 424.689 369.488 428.276 369.488Z" fill="#3F3D56"/>
<path d="M312.561 255.993L312.584 333.097" stroke="#3F3D56" stroke-width="2" stroke-miterlimit="10"/>
<path d="M307.733 259.905L308.598 260.71L312.56 256.446L316.525 260.708L317.389 259.902L312.559 254.713L307.733 259.905Z" fill="#3F3D56"/>
<path d="M307.755 329.188L308.62 328.382L312.584 332.644L316.547 328.38L317.411 329.185L312.584 334.377L307.755 329.188Z" fill="#3F3D56"/>
<path d="M312.573 301.036C316.159 301.036 319.066 298.13 319.066 294.545C319.066 290.96 316.159 288.054 312.573 288.054C308.986 288.054 306.079 290.96 306.079 294.545C306.079 298.13 308.986 301.036 312.573 301.036Z" fill="#3F3D56"/>
<path d="M365.268 99H257.829V232.363H365.268V99Z" fill="#3F3D56"/>
<path d="M304.832 148.648H280.449C278.785 139.032 278.785 129.203 280.449 119.587H304.832C302.085 129.08 302.085 139.156 304.832 148.648V148.648Z" fill="#FF6584"/>
<path d="M318.266 163.387H342.648C344.312 153.772 344.312 143.942 342.648 134.327H318.266C321.013 143.819 321.013 153.895 318.266 163.387V163.387Z" fill="#FF3DB0"/>
<path d="M295.243 211.776H319.626C321.29 202.16 321.29 192.331 319.626 182.715H295.243C297.99 192.207 297.99 202.283 295.243 211.776V211.776Z" fill="#FF3DB0"/>
<path d="M589 225.872H481.562V359.235H589V225.872Z" fill="#3F3D56"/>
<path d="M573.652 254.197H496.91V257.737H573.652V254.197Z" fill="#FF3DB0"/>
<path d="M573.652 266.589H496.91V270.129H573.652V266.589Z" fill="#FF3DB0"/>
<path d="M573.652 278.981H496.91V282.522H573.652V278.981Z" fill="#FF3DB0"/>
<path d="M573.652 291.373H496.91V294.914H573.652V291.373Z" fill="#FF3DB0"/>
<path d="M573.652 303.765H496.91V307.306H573.652V303.765Z" fill="#FF3DB0"/>
<path d="M555.352 316.748H515.21V330.91H555.352V316.748Z" fill="#FF3DB0"/>
<path d="M374.713 362.775H267.274V496.138H374.713V362.775Z" fill="#3F3D56"/>
<path d="M359.54 437.014H282.798V440.554H359.54V437.014Z" fill="#FF3DB0"/>
<path d="M359.54 449.406H282.798V452.946H359.54V449.406Z" fill="#FF3DB0"/>
<path d="M359.54 461.798H282.798V465.338H359.54V461.798Z" fill="#FF3DB0"/>
<path d="M359.54 474.19H282.798V477.731H359.54V474.19Z" fill="#FF3DB0"/>
<path opacity="0.3" d="M306.307 410.244H281.925C280.261 400.628 280.261 390.799 281.925 381.183H306.307C303.56 390.675 303.56 400.751 306.307 410.244V410.244Z" fill="#FF3DB0"/>
<path opacity="0.3" d="M361.311 383.905H316.446V386.855H361.311V383.905Z" fill="#FF3DB0"/>
<path opacity="0.3" d="M361.311 394.526H316.446V397.477H361.311V394.526Z" fill="#FF3DB0"/>
<path opacity="0.3" d="M361.311 405.148H316.446V408.099H361.311V405.148Z" fill="#FF3DB0"/>
<path opacity="0.3" d="M361.311 415.77H316.446V418.72H361.311V415.77Z" fill="#FF3DB0"/>
</g>
<path opacity="0.1" d="M406.713 92.4916C361.838 90.6296 319.094 73.2715 278.282 54.2962C237.471 35.3209 197.037 14.2908 153.24 4.23196C125.066 -2.23656 92.8472 -3.13414 70.1494 14.9362C48.3004 32.3388 41.2445 62.4115 37.4533 90.2662C34.5975 111.244 32.9187 133.291 40.7365 152.956C46.1694 166.583 55.8147 178.044 62.4865 191.099C85.686 236.542 69.3007 292.57 44.1375 336.93C32.3674 357.745 18.6583 377.596 9.55811 399.753C0.457948 421.911 -3.75451 447.288 4.2058 469.883C12.1042 492.286 30.9116 509.11 51.2863 520.942C92.6737 544.976 141.445 551.86 189.003 555.754C294.283 564.344 400.122 560.635 505.675 556.926C544.739 555.539 583.971 554.137 622.403 546.905C643.738 542.892 665.767 536.519 681.254 521.127C700.922 501.588 705.798 468.504 692.615 443.98C670.512 402.891 609.388 392.684 593.938 348.584C585.433 324.312 594.167 297.273 606.526 274.76C633.04 226.461 677.481 184.097 679.823 128.892C681.434 90.9783 660.068 53.0054 627.037 35.0687C592.408 16.264 544.398 18.6303 518.851 49.7563C492.56 81.8096 446.335 94.1384 406.713 92.4916Z" fill="#FF3DB0"/>
<defs>
<clipPath id="clip0">
<rect x="40" y="99" width="549" height="465" fill="white"/>
</clipPath>
</defs>
</svg>
