<svg height="449pt" viewBox="1 -22 449.74816 449" width="449pt" xmlns="http://www.w3.org/2000/svg"><path d="m450 122.421875h-15.253906v-63.144531l-22.316406-7.445313 4.828124-14.492187 27.523438 9.152344c3.132812 1.042968 5.238281 3.984374 5.21875 7.285156zm0 0" fill="#ffcb5a"/><path d="m7.628906 8.015625h274.574219v388.980469h-274.574219zm0 0" fill="#e2dfdc"/><g fill="#b4a49c"><path d="m38.136719 99.539062h213.558593v15.257813h-213.558593zm0 0"/><path d="m38.136719 130.046875h213.558593v15.257813h-213.558593zm0 0"/><path d="m38.136719 160.554688h213.558593v15.257812h-213.558593zm0 0"/><path d="m38.136719 191.066406h213.558593v15.253906h-213.558593zm0 0"/><path d="m38.136719 221.574219h213.558593v15.253906h-213.558593zm0 0"/><path d="m38.136719 252.082031h213.558593v15.253907h-213.558593zm0 0"/><path d="m38.136719 282.589844h213.558593v15.253906h-213.558593zm0 0"/><path d="m175.421875 30.894531h15.257813v15.257813h-15.257813zm0 0"/><path d="m205.933594 30.894531h15.253906v15.257813h-15.253906zm0 0"/></g><path d="m388.984375 30.894531h30.507813v122.035157h-30.507813zm0 0" fill="#f3a846"/><path d="m388.984375 137.675781h30.507813v122.035157h-30.507813zm0 0" fill="#d32144"/><path d="m419.492188 259.710938-15.253907 38.132812-15.253906-38.132812zm0 0" fill="#002874"/><path d="m396.609375 8.015625h15.253906v22.878906h-15.253906zm0 0" fill="#002874"/><path d="m152.542969 351.234375h22.882812v15.253906h-22.882812zm0 0" fill="#b4a49c"/><path d="m190.679688 351.234375h22.878906v15.253906h-22.878906zm0 0" fill="#b4a49c"/><path d="m228.8125 351.234375h22.882812v15.253906h-22.882812zm0 0" fill="#b4a49c"/><path d="m152.542969 320.726562h99.152343v15.253907h-99.152343zm0 0" fill="#b4a49c"/><path d="m358.476562 396.996094h-15.257812c-16.847656 0-30.507812-13.65625-30.507812-30.507813v-22.878906c0-4.214844-3.414063-7.628906-7.625-7.628906v-15.253907c12.636718 0 22.878906 10.246094 22.878906 22.882813v22.878906c0 8.425781 6.832031 15.253907 15.257812 15.253907h15.253906c5.445313 0 10.476563-2.910157 13.203126-7.625h-9.390626c-14.742187 0-26.695312-11.953126-26.695312-26.695313s11.953125-26.695313 26.695312-26.695313c14.742188 0 26.695313 11.953126 26.695313 26.695313v9.386719c4.71875-2.722656 7.625-7.753906 7.625-13.199219v-22.882813h15.257813v22.882813c-.011719 14.203125-9.808594 26.527344-23.644532 29.746094-3.21875 13.835937-15.542968 23.632812-29.746094 23.640625zm3.8125-61.015625c-6.320312 0-11.441406 5.121093-11.441406 11.441406 0 6.316406 5.121094 11.441406 11.441406 11.441406h11.4375v-11.441406c0-6.320313-5.121093-11.441406-11.4375-11.441406zm0 0" fill="#b4a49c"/><path d="m282.203125 404.625h-274.574219c-4.214844 0-7.628906-3.410156-7.628906-7.628906v-388.980469c0-4.214844 3.414062-7.628906 7.628906-7.628906h274.574219c4.214844 0 7.628906 3.414062 7.628906 7.628906v388.980469c0 4.21875-3.414062 7.628906-7.628906 7.628906zm-266.949219-15.253906h259.324219v-373.730469h-259.324219zm0 0"/><path d="m38.136719 99.539062h213.558593v15.257813h-213.558593zm0 0"/><path d="m38.136719 130.046875h213.558593v15.257813h-213.558593zm0 0"/><path d="m38.136719 160.554688h213.558593v15.257812h-213.558593zm0 0"/><path d="m38.136719 191.066406h213.558593v15.253906h-213.558593zm0 0"/><path d="m38.136719 221.574219h213.558593v15.253906h-213.558593zm0 0"/><path d="m38.136719 252.082031h213.558593v15.253907h-213.558593zm0 0"/><path d="m38.136719 282.589844h213.558593v15.253906h-213.558593zm0 0"/><path d="m175.421875 30.894531h15.257813v15.257813h-15.257813zm0 0"/><path d="m205.933594 30.894531h15.253906v15.257813h-15.253906zm0 0"/><path d="m419.492188 145.304688h-30.507813c-4.21875 0-7.628906-3.417969-7.628906-7.628907v-106.78125c0-4.210937 3.410156-7.625 7.628906-7.625h30.507813c4.214843 0 7.625 3.414063 7.625 7.625v106.78125c0 4.210938-3.410157 7.628907-7.625 7.628907zm-22.882813-15.257813h15.253906v-91.523437h-15.253906zm0 0"/><path d="m419.492188 267.335938h-30.507813c-4.21875 0-7.628906-3.410157-7.628906-7.625v-122.035157c0-4.210937 3.410156-7.628906 7.628906-7.628906h30.507813c4.214843 0 7.625 3.417969 7.625 7.628906v122.035157c0 4.214843-3.410157 7.625-7.625 7.625zm-22.882813-15.253907h15.253906v-106.78125h-15.253906zm0 0"/><path d="m404.238281 305.472656c-3.121093 0-5.921875-1.898437-7.082031-4.796875l-15.257812-38.136719c-.9375-2.34375-.648438-5.011718.769531-7.105468 1.421875-2.09375 3.785156-3.351563 6.316406-3.351563h30.507813c2.53125 0 4.894531 1.257813 6.316406 3.351563 1.414062 2.09375 1.707031 4.761718.765625 7.105468l-15.253907 38.136719c-1.160156 2.898438-3.960937 4.796875-7.082031 4.796875zm-3.992187-38.136718 3.992187 9.972656 3.992188-9.972656zm0 0"/><path d="m396.609375 8.015625h15.253906v22.878906h-15.253906zm0 0"/><path d="m450 122.421875h-15.253906v-63.148437l-17.667969-5.886719 4.824219-14.472657 22.882812 7.625c3.113282 1.039063 5.214844 3.953126 5.214844 7.238282zm0 0"/><path d="m152.542969 351.234375h22.882812v15.253906h-22.882812zm0 0"/><path d="m190.679688 351.234375h22.878906v15.253906h-22.878906zm0 0"/><path d="m228.8125 351.234375h22.882812v15.253906h-22.882812zm0 0"/><path d="m152.542969 320.726562h99.152343v15.253907h-99.152343zm0 0"/><path d="m358.476562 396.996094h-15.257812c-16.824219 0-30.507812-13.683594-30.507812-30.507813v-22.878906c0-4.210937-3.417969-7.628906-7.625-7.628906v-15.253907c12.617187 0 22.878906 10.261719 22.878906 22.882813v22.878906c0 8.410157 6.847656 15.253907 15.257812 15.253907h15.253906c5.636719 0 10.566407-3.066407 13.207032-7.625h-9.394532c-14.71875 0-26.695312-11.976563-26.695312-26.695313s11.976562-26.695313 26.695312-26.695313 26.695313 11.976563 26.695313 26.695313v9.390625c4.558594-2.636719 7.628906-7.566406 7.628906-13.207031v-22.878907h15.253907v22.878907c0 14.464843-10.125 26.613281-23.65625 29.734375-3.125 13.535156-15.273438 23.65625-29.734376 23.65625zm3.8125-61.015625c-6.308593 0-11.441406 5.132812-11.441406 11.441406s5.132813 11.441406 11.441406 11.441406h11.4375v-11.441406c0-6.308594-5.128906-11.441406-11.4375-11.441406zm0 0"/></svg>