<svg width="18" height="23" viewBox="0 0 18 23" fill="none" xmlns="http://www.w3.org/2000/svg">
<path fill-rule="evenodd" clip-rule="evenodd" d="M11.4979 5.40892V0H0.676471C0.297649 0 0 0.297649 0 0.676471V22.3235C0 22.6956 0.297649 23 0.676471 23H16.9118C17.2838 23 17.5882 22.6956 17.5882 22.3235V6.08539H12.1743C11.8004 6.08539 11.4979 5.78249 11.4979 5.40892ZM13.0829 0.196203C13.0183 0.128036 12.9377 0.0797694 12.8508 0.0468624V4.73245H17.5381C17.5034 4.64669 17.4533 4.56659 17.3853 4.49855L13.0829 0.196203ZM4.05668 18.282H13.5273C13.9012 18.282 14.2037 17.9791 14.2037 17.6055C14.2037 17.232 13.9012 16.9291 13.5273 16.9291H4.05668C3.68277 16.9291 3.38021 17.232 3.38021 17.6055C3.38021 17.9791 3.68277 18.282 4.05668 18.282ZM13.5273 14.2232H4.05668C3.68277 14.2232 3.38021 13.9203 3.38021 13.5467C3.38021 13.1731 3.68277 12.8702 4.05668 12.8702H13.5273C13.9012 12.8702 14.2037 13.1731 14.2037 13.5467C14.2037 13.9203 13.9012 14.2232 13.5273 14.2232ZM13.5273 10.1644C13.9012 10.1644 14.2037 9.86147 14.2037 9.48789C14.2037 9.11431 13.9012 8.81142 13.5273 8.81142H4.05668C3.68277 8.81142 3.38021 9.11431 3.38021 9.48789C3.38021 9.86147 3.68277 10.1644 4.05668 10.1644H13.5273Z" fill="#B9CECE"/>
</svg>
