<svg width="672" height="522" viewBox="0 0 672 522" fill="none" xmlns="http://www.w3.org/2000/svg">
<g clip-path="url(#clip0)">
<path d="M519.736 184.177C533.486 184.177 544.633 173.066 544.633 159.361C544.633 145.655 533.486 134.544 519.736 134.544C505.985 134.544 494.838 145.655 494.838 159.361C494.838 173.066 505.985 184.177 519.736 184.177Z" fill="#2F2E41"/>
<path d="M509.908 180.476C509.908 180.476 510.344 194.843 500.735 199.197C491.125 203.551 538.3 203.116 538.3 203.116C538.3 203.116 524.322 186.136 528.253 180.476L509.908 180.476Z" fill="#B36D6D"/>
<path opacity="0.1" d="M509.908 180.476C509.908 180.476 510.344 194.844 500.735 199.197C491.125 203.551 538.3 203.116 538.3 203.116C538.3 203.116 524.322 186.136 528.253 180.476L509.908 180.476Z" fill="#B36D6D"/>
<path d="M519.517 188.748C528.925 188.748 536.552 181.146 536.552 171.769C536.552 162.391 528.925 154.789 519.517 154.789C510.108 154.789 502.481 162.391 502.481 171.769C502.481 181.146 510.108 188.748 519.517 188.748Z" fill="#B36D6D"/>
<path d="M517.333 196.15L502.7 192.884L494.182 201.81L484.572 203.116L497.24 254.925L496.803 267.986C496.803 267.986 482.825 278.435 483.699 326.762C484.572 375.088 476.71 470.871 486.32 471.741C495.929 472.612 516.022 476.966 517.333 473.048C518.643 469.129 520.827 314.571 520.827 314.571C520.827 314.571 520.39 469.565 526.942 471.306C533.494 473.048 553.587 476.531 556.208 470.871C558.829 465.211 556.208 317.619 556.208 317.619C556.208 317.619 555.771 279.306 540.046 267.986L538.299 257.973L551.84 203.116H540.92L534.368 191.796L520.827 196.585L517.333 196.15Z" fill="#2F2E41"/>
<path d="M481.643 255.497L462.922 286.977C462.922 286.977 449.23 300.979 456.082 304.847C462.934 308.715 470.219 288.542 470.219 288.542L490.36 262.111L481.643 255.497Z" fill="#B36D6D"/>
<path d="M558.336 256.166L573.475 289.505C573.475 289.505 585.541 304.922 578.304 308.017C571.067 311.111 566.05 290.263 566.05 290.263L548.943 261.785L558.336 256.166Z" fill="#B36D6D"/>
<path d="M490.251 206.163L484.573 203.116C484.573 203.116 474.527 219.66 476.274 247.524C476.274 247.524 474.526 262.326 478.021 263.197C481.515 264.068 491.562 265.809 491.999 264.068C492.435 262.326 497.677 230.109 497.677 230.109L490.251 206.163Z" fill="#2F2E41"/>
<path d="M546.599 205.292L551.841 203.116C555.661 207.713 558.086 213.301 558.829 219.224C560.14 229.238 566.255 261.456 561.45 262.326C556.645 263.197 545.289 264.939 545.289 262.326C545.289 259.714 541.357 229.238 541.357 229.238L546.599 205.292Z" fill="#2F2E41"/>
<path d="M536.169 156.492L523.534 149.896L506.086 152.594L502.477 168.487L511.463 168.142L513.973 162.303V168.046L518.119 167.887L520.526 158.592L522.03 168.487L536.771 168.187L536.169 156.492Z" fill="#2F2E41"/>
<path d="M521.046 141.075C526.594 141.075 531.092 136.592 531.092 131.061C531.092 125.531 526.594 121.048 521.046 121.048C515.497 121.048 510.999 125.531 510.999 131.061C510.999 136.592 515.497 141.075 521.046 141.075Z" fill="#2F2E41"/>
<path d="M508.379 128.014C508.379 125.622 509.238 123.309 510.8 121.494C512.362 119.678 514.525 118.48 516.896 118.115C515.465 117.897 514.003 117.99 512.612 118.387C511.22 118.784 509.93 119.476 508.832 120.416C507.733 121.356 506.852 122.522 506.247 123.833C505.643 125.145 505.33 126.571 505.33 128.014C505.33 129.457 505.643 130.883 506.247 132.194C506.852 133.505 507.733 134.671 508.832 135.611C509.93 136.551 511.22 137.243 512.612 137.641C514.003 138.038 515.465 138.13 516.896 137.912C514.525 137.548 512.362 136.349 510.8 134.534C509.238 132.718 508.379 130.405 508.379 128.014V128.014Z" fill="#2F2E41"/>
<path d="M344.996 435.805C347.363 435.805 349.282 434.503 349.282 432.897C349.282 431.291 347.363 429.989 344.996 429.989C342.629 429.989 340.71 431.291 340.71 432.897C340.71 434.503 342.629 435.805 344.996 435.805Z" fill="#FF3DB0"/>
<path d="M344.996 432.897C344.996 432.897 365.355 468.156 364.819 473.244Z" fill="#FF3DB0"/>
<path d="M358.39 435.329V455.955C354.126 450.065 345.62 444 329.68 439.077L358.39 478.384V478.683C358.39 478.683 358.445 478.654 358.545 478.597L358.594 478.664C358.594 478.664 358.635 478.609 358.709 478.504C362.054 476.572 390.108 459.159 358.39 435.329Z" fill="#3F3D56"/>
<path d="M640 477.894H342.306V478.979H640V477.894Z" fill="#3F3D56"/>
<path d="M419.043 478.572H408.299V467.863H419.043V478.572ZM409.125 477.748H418.216V468.687H409.125V477.748Z" fill="#3F3D56"/>
<path d="M619.488 467.437C622.517 467.437 624.973 464.99 624.973 461.97C624.973 458.951 622.517 456.503 619.488 456.503C616.459 456.503 614.003 458.951 614.003 461.97C614.003 464.99 616.459 467.437 619.488 467.437Z" fill="#FF3DB0"/>
<path d="M619.488 477.764C616.354 477.764 613.291 476.838 610.685 475.102C608.079 473.367 606.048 470.9 604.849 468.014C603.649 465.128 603.336 461.953 603.947 458.889C604.558 455.825 606.068 453.011 608.284 450.802C610.5 448.593 613.323 447.089 616.397 446.48C619.471 445.87 622.657 446.183 625.552 447.378C628.448 448.574 630.923 450.598 632.664 453.195C634.405 455.793 635.334 458.846 635.334 461.97C635.33 466.158 633.659 470.172 630.688 473.133C627.717 476.094 623.69 477.759 619.488 477.764V477.764ZM619.488 447.391C616.595 447.391 613.768 448.246 611.362 449.848C608.957 451.45 607.082 453.727 605.975 456.391C604.868 459.055 604.578 461.986 605.143 464.814C605.707 467.642 607.1 470.24 609.146 472.279C611.191 474.318 613.797 475.707 616.635 476.269C619.472 476.832 622.413 476.543 625.086 475.439C627.759 474.336 630.043 472.467 631.65 470.07C633.257 467.672 634.115 464.854 634.115 461.97C634.111 458.105 632.568 454.399 629.826 451.666C627.084 448.933 623.366 447.396 619.488 447.391V447.391Z" fill="#2F2E41"/>
<path d="M459.86 139.778H93.5928V357.843H459.86V139.778Z" fill="#FF3DB0"/>
<path opacity="0.1" d="M322.431 139.778L93.5928 296.362V258.857L267.621 139.778H322.431Z" fill="black"/>
<path opacity="0.1" d="M432.104 139.778V143.57L118.954 357.843H93.5928V337.697L382.841 139.778H432.104Z" fill="black"/>
<path d="M125.907 319.329H124.818V357.843H125.907V319.329Z" fill="#3F3D56"/>
<path d="M125.43 332.89C132.944 332.89 139.036 326.819 139.036 319.329C139.036 311.84 132.944 305.768 125.43 305.768C117.916 305.768 111.824 311.84 111.824 319.329C111.824 326.819 117.916 332.89 125.43 332.89Z" fill="#3F3D56"/>
<path d="M277.203 226.028H276.114V357.843H277.203V226.028Z" fill="#3F3D56"/>
<path d="M201.554 286.24H200.466V357.843H201.554V286.24Z" fill="#3F3D56"/>
<path d="M201.077 301.428C208.592 301.428 214.683 295.357 214.683 287.867C214.683 280.377 208.592 274.306 201.077 274.306C193.563 274.306 187.472 280.377 187.472 287.867C187.472 295.357 193.563 301.428 201.077 301.428Z" fill="#3F3D56"/>
<path d="M276.726 239.589C284.24 239.589 290.332 233.517 290.332 226.028C290.332 218.538 284.24 212.466 276.726 212.466C269.212 212.466 263.12 218.538 263.12 226.028C263.12 233.517 269.212 239.589 276.726 239.589Z" fill="#3F3D56"/>
<path d="M352.851 265.627H351.763V357.843H352.851V265.627Z" fill="#3F3D56"/>
<path d="M352.374 279.188C359.889 279.188 365.98 273.116 365.98 265.626C365.98 258.137 359.889 252.065 352.374 252.065C344.86 252.065 338.769 258.137 338.769 265.626C338.769 273.116 344.86 279.188 352.374 279.188Z" fill="#3F3D56"/>
<path d="M428.499 186.971H427.41V357.843H428.499V186.971Z" fill="#3F3D56"/>
<path d="M428.022 200.532C435.536 200.532 441.628 194.461 441.628 186.971C441.628 179.481 435.536 173.41 428.022 173.41C420.508 173.41 414.416 179.481 414.416 186.971C414.416 194.461 420.508 200.532 428.022 200.532Z" fill="#3F3D56"/>
<path d="M96.8582 318.787H93.5928V319.872H96.8582V318.787Z" fill="#3F3D56"/>
<path d="M117.321 319.872H112.205V318.787H117.321V319.872ZM107.089 319.872H101.974V318.787H107.089V319.872Z" fill="#3F3D56"/>
<path d="M125.702 318.787H122.437V319.872H125.702V318.787Z" fill="#3F3D56"/>
<path d="M96.8582 287.325H93.5928V288.409H96.8582V287.325Z" fill="#3F3D56"/>
<path d="M189.304 288.409H182.701V287.325H189.304V288.409ZM176.098 288.409H169.494V287.325H176.098V288.409ZM162.891 288.409H156.288V287.325H162.891V288.409ZM149.684 288.409H143.081V287.325H149.684V288.409ZM136.478 288.409H129.874V287.325H136.478V288.409ZM123.271 288.409H116.668V287.325H123.271V288.409ZM110.064 288.409H103.461V287.325H110.064V288.409Z" fill="#3F3D56"/>
<path d="M199.173 287.325H195.907V288.409H199.173V287.325Z" fill="#3F3D56"/>
<path d="M96.8582 265.084H93.5928V266.169H96.8582V265.084Z" fill="#3F3D56"/>
<path d="M333.554 266.169H326.979V265.084H333.554V266.169ZM320.404 266.169H313.829V265.084H320.404L320.404 266.169ZM307.255 266.169H300.68V265.084H307.254L307.255 266.169ZM294.104 266.169H287.53V265.084H294.104L294.104 266.169ZM280.955 266.169H274.38V265.084H280.955L280.955 266.169ZM267.805 266.169H261.23V265.084H267.805L267.805 266.169ZM254.655 266.169H248.08V265.084H254.655L254.655 266.169ZM241.505 266.169H234.931V265.084H241.505L241.505 266.169ZM228.356 266.169H221.781V265.084H228.356L228.356 266.169ZM215.206 266.169H208.631V265.084H215.206L215.206 266.169ZM202.056 266.169H195.481V265.084H202.056L202.056 266.169ZM188.906 266.169H182.331V265.084H188.906L188.906 266.169ZM175.757 266.169H169.181V265.084H175.757L175.757 266.169ZM162.607 266.169H156.032V265.084H162.607L162.607 266.169ZM149.457 266.169H142.882V265.084H149.457L149.457 266.169ZM136.307 266.169H129.732V265.084H136.307L136.307 266.169ZM123.157 266.169H116.582V265.084H123.157L123.157 266.169ZM110.008 266.169H103.433V265.084H110.007L110.008 266.169Z" fill="#3F3D56"/>
<path d="M343.394 265.084H340.129V266.169H343.394V265.084Z" fill="#3F3D56"/>
<path d="M96.8582 225.485H93.5928V226.57H96.8582V225.485Z" fill="#3F3D56"/>
<path d="M258.298 226.57H251.571V225.485H258.298V226.57ZM244.845 226.57H238.118V225.485H244.845V226.57ZM231.391 226.57H224.664V225.485H231.391V226.57ZM217.938 226.57H211.211V225.485H217.938L217.938 226.57ZM204.484 226.57H197.758V225.485H204.484V226.57ZM191.031 226.57H184.304V225.485H191.031L191.031 226.57ZM177.578 226.57H170.851V225.485H177.578L177.578 226.57ZM164.124 226.57H157.397V225.485H164.124V226.57ZM150.671 226.57H143.944V225.485H150.671L150.671 226.57ZM137.217 226.57H130.491V225.485H137.217V226.57ZM123.764 226.57H117.037V225.485H123.764V226.57ZM110.311 226.57H103.584V225.485H110.311V226.57Z" fill="#3F3D56"/>
<path d="M268.291 225.485H265.025V226.57H268.291V225.485Z" fill="#3F3D56"/>
<path d="M96.8562 187.503L93.5908 187.514L93.5945 188.599L96.8599 188.588L96.8562 187.503Z" fill="#3F3D56"/>
<path d="M103.295 188.567L103.291 187.482L109.726 187.461L109.73 188.546L103.295 188.567ZM116.164 188.525L116.16 187.441L122.595 187.42L122.599 188.505L116.164 188.525ZM129.034 188.484L129.03 187.399L135.465 187.378L135.468 188.463L129.034 188.484ZM141.903 188.442L141.9 187.357L148.334 187.336L148.338 188.421L141.903 188.442ZM154.773 188.4L154.769 187.315L161.204 187.294L161.207 188.379L154.773 188.4ZM167.642 188.359L167.638 187.274L174.073 187.253L174.077 188.338L167.642 188.359ZM180.512 188.317L180.508 187.232L186.943 187.211L186.946 188.296L180.512 188.317ZM193.381 188.275L193.377 187.19L199.812 187.169L199.816 188.254L193.381 188.275ZM206.25 188.233L206.247 187.148L212.681 187.127L212.685 188.212L206.25 188.233ZM219.12 188.192L219.116 187.107L225.551 187.086L225.555 188.171L219.12 188.192ZM231.989 188.15L231.986 187.065L238.42 187.044L238.424 188.129L231.989 188.15ZM244.859 188.108L244.855 187.023L251.29 187.002L251.294 188.087L244.859 188.108ZM257.728 188.066L257.725 186.981L264.159 186.961L264.163 188.045L257.728 188.066ZM270.598 188.025L270.594 186.94L277.029 186.919L277.033 188.004L270.598 188.025ZM283.467 187.983L283.464 186.898L289.898 186.877L289.902 187.962L283.467 187.983ZM296.337 187.941L296.333 186.856L302.768 186.836L302.771 187.92L296.337 187.941ZM309.206 187.9L309.203 186.815L315.637 186.794L315.641 187.879L309.206 187.9ZM322.076 187.858L322.072 186.773L328.507 186.752L328.511 187.837L322.076 187.858ZM334.945 187.816L334.942 186.731L341.376 186.71L341.379 187.795L334.945 187.816ZM347.815 187.775L347.811 186.69L354.246 186.669L354.249 187.754L347.815 187.775ZM360.684 187.733L360.68 186.648L367.116 186.627L367.119 187.712L360.684 187.733ZM373.553 187.691L373.55 186.606L379.985 186.585L379.988 187.67L373.553 187.691ZM386.422 187.649L386.419 186.564L392.854 186.543L392.858 187.628L386.422 187.649ZM399.292 187.608L399.289 186.523L405.724 186.502L405.727 187.587L399.292 187.608ZM412.162 187.566L412.159 186.481L418.593 186.46L418.596 187.545L412.162 187.566Z" fill="#3F3D56"/>
<path d="M428.293 186.429L425.027 186.439L425.031 187.524L428.296 187.514L428.293 186.429Z" fill="#3F3D56"/>
<path d="M84.8846 182.089H74V192.938H84.8846V182.089Z" fill="#3F3D56"/>
<path d="M84.8846 220.603H74V231.452H84.8846V220.603Z" fill="#3F3D56"/>
<path d="M84.8846 260.202H74V271.051H84.8846V260.202Z" fill="#3F3D56"/>
<path d="M84.8846 282.443H74V293.292H84.8846V282.443Z" fill="#3F3D56"/>
<path d="M84.8846 313.905H74V324.754H84.8846V313.905Z" fill="#3F3D56"/>
<path d="M609.43 310.654L616.622 283.373L589.251 276.204L582.059 303.485L609.43 310.654Z" fill="#FF3DB0"/>
<path d="M576.416 305.379C575.96 304.174 575.873 302.862 576.166 301.608C576.459 300.354 577.118 299.215 578.061 298.334C579.003 297.454 580.186 296.872 581.46 296.661C582.735 296.451 584.043 296.622 585.22 297.153C586.397 297.684 587.389 298.551 588.071 299.644C588.754 300.737 589.096 302.007 589.054 303.294C589.012 304.581 588.589 305.826 587.837 306.873C587.085 307.92 586.038 308.721 584.83 309.175C583.209 309.782 581.413 309.723 579.835 309.011C578.258 308.299 577.028 306.993 576.416 305.379V305.379ZM587.62 301.171C587.24 300.167 586.57 299.298 585.695 298.673C584.82 298.048 583.779 297.697 582.703 297.662C581.627 297.627 580.565 297.911 579.651 298.478C578.737 299.045 578.013 299.869 577.569 300.847C577.125 301.824 576.982 302.911 577.158 303.969C577.333 305.028 577.82 306.011 578.556 306.793C579.292 307.576 580.245 308.124 581.293 308.367C582.342 308.61 583.439 308.538 584.446 308.16C585.796 307.651 586.888 306.629 587.483 305.319C588.078 304.009 588.127 302.517 587.62 301.171V301.171Z" fill="#3F3D56"/>
<path d="M499.589 478.267C504.699 478.267 508.841 476.082 508.841 473.385C508.841 470.689 504.699 468.503 499.589 468.503C494.479 468.503 490.337 470.689 490.337 473.385C490.337 476.082 494.479 478.267 499.589 478.267Z" fill="#2F2E41"/>
<path d="M542.039 478.267C547.149 478.267 551.291 476.082 551.291 473.385C551.291 470.689 547.149 468.503 542.039 468.503C536.929 468.503 532.787 470.689 532.787 473.385C532.787 476.082 536.929 478.267 542.039 478.267Z" fill="#2F2E41"/>
<path d="M373.42 239.736C372.129 239.736 370.866 239.354 369.792 238.639C368.718 237.924 367.881 236.907 367.387 235.718C366.892 234.528 366.763 233.219 367.015 231.957C367.267 230.694 367.889 229.534 368.802 228.624C369.716 227.713 370.879 227.094 372.146 226.842C373.413 226.591 374.726 226.72 375.92 227.213C377.113 227.705 378.133 228.54 378.851 229.61C379.568 230.681 379.951 231.939 379.951 233.227C379.949 234.952 379.26 236.607 378.036 237.827C376.812 239.048 375.152 239.734 373.42 239.736ZM373.42 227.802C372.344 227.802 371.292 228.12 370.397 228.716C369.502 229.312 368.804 230.16 368.392 231.151C367.98 232.142 367.873 233.233 368.083 234.285C368.293 235.337 368.811 236.304 369.572 237.062C370.333 237.821 371.303 238.338 372.359 238.547C373.414 238.756 374.509 238.649 375.503 238.238C376.498 237.828 377.348 237.132 377.946 236.24C378.544 235.348 378.863 234.3 378.863 233.227C378.861 231.789 378.287 230.41 377.267 229.393C376.247 228.376 374.863 227.804 373.42 227.802Z" fill="white"/>
<path d="M228.111 337.92C226.819 337.92 225.557 337.538 224.483 336.823C223.409 336.107 222.572 335.091 222.077 333.901C221.583 332.712 221.454 331.403 221.706 330.14C221.958 328.878 222.58 327.718 223.493 326.807C224.406 325.897 225.57 325.277 226.837 325.026C228.104 324.775 229.417 324.904 230.61 325.396C231.803 325.889 232.823 326.723 233.541 327.794C234.259 328.864 234.642 330.123 234.642 331.41C234.64 333.136 233.951 334.791 232.727 336.011C231.502 337.231 229.842 337.918 228.111 337.92V337.92ZM228.111 325.986C227.034 325.986 225.982 326.304 225.087 326.9C224.192 327.496 223.495 328.343 223.083 329.334C222.671 330.326 222.563 331.416 222.773 332.469C222.983 333.521 223.501 334.487 224.263 335.246C225.024 336.005 225.993 336.521 227.049 336.731C228.105 336.94 229.199 336.832 230.194 336.422C231.188 336.011 232.038 335.316 232.636 334.424C233.234 333.532 233.553 332.483 233.553 331.41C233.552 329.972 232.978 328.593 231.957 327.576C230.937 326.559 229.554 325.987 228.111 325.986V325.986Z" fill="white"/>
<path d="M163.892 180.067C162.6 180.067 161.338 179.685 160.264 178.97C159.19 178.254 158.353 177.238 157.858 176.048C157.364 174.859 157.235 173.55 157.487 172.287C157.739 171.025 158.361 169.865 159.274 168.954C160.187 168.044 161.351 167.424 162.618 167.173C163.885 166.922 165.198 167.051 166.391 167.543C167.585 168.036 168.605 168.87 169.322 169.941C170.04 171.011 170.423 172.27 170.423 173.557C170.421 175.283 169.732 176.937 168.508 178.158C167.284 179.378 165.624 180.065 163.892 180.067V180.067ZM163.892 168.133C162.816 168.133 161.763 168.451 160.869 169.047C159.974 169.643 159.276 170.49 158.864 171.481C158.452 172.472 158.344 173.563 158.554 174.615C158.764 175.668 159.283 176.634 160.044 177.393C160.805 178.151 161.775 178.668 162.83 178.877C163.886 179.087 164.98 178.979 165.975 178.569C166.969 178.158 167.819 177.463 168.417 176.571C169.015 175.679 169.334 174.63 169.334 173.557C169.333 172.119 168.759 170.74 167.739 169.723C166.718 168.706 165.335 168.134 163.892 168.133V168.133Z" fill="white"/>
</g>
<path opacity="0.1" d="M390.444 86.0617C347.364 84.3292 306.33 68.1777 267.151 50.5216C227.972 32.8654 189.156 13.2973 147.111 3.93776C120.064 -2.08107 89.1333 -2.91625 67.3435 13.8978C46.3684 30.0907 39.5947 58.0727 35.9552 83.991C33.2136 103.511 31.6019 124.024 39.1071 142.323C44.3226 155.002 53.5821 165.666 59.987 177.814C82.2585 220.098 66.5287 272.231 42.372 313.507C31.0727 332.875 17.9119 351.346 9.17578 371.963C0.439631 392.58 -3.60433 416.193 4.03757 437.218C11.62 458.063 29.6751 473.717 49.2348 484.726C88.9668 507.09 135.788 513.495 181.443 517.119C282.512 525.112 384.117 521.661 485.448 518.21C522.95 516.919 560.612 515.614 597.507 508.885C617.989 505.15 639.136 499.221 654.004 484.899C672.886 466.718 677.566 435.934 664.911 413.115C643.692 374.883 585.013 365.385 570.181 324.351C562.015 301.766 570.401 276.607 582.265 255.659C607.718 210.718 650.382 171.299 652.63 119.931C654.176 84.6536 633.665 49.3206 601.956 32.6307C568.712 15.1333 522.623 17.3352 498.097 46.2974C472.858 76.1223 428.481 87.594 390.444 86.0617Z" fill="#FF3DB0"/>
<defs>
<clipPath id="clip0">
<rect x="74" y="118" width="566" height="361" fill="white"/>
</clipPath>
</defs>
</svg>
