<svg id="Слой_1" data-name="Слой 1" xmlns="http://www.w3.org/2000/svg" xmlns:xlink="http://www.w3.org/1999/xlink" viewBox="0 0 1080 780.3"><defs><style>.cls-1{opacity:0.31;fill:url(#linear-gradient);}.cls-2{fill:url(#linear-gradient-2);}.cls-3{fill:#fff;}.cls-4{fill:url(#linear-gradient-3);}.cls-5{fill:url(#linear-gradient-4);}.cls-6{fill:url(#linear-gradient-5);}.cls-7{fill:url(#linear-gradient-6);}.cls-8{fill:url(#linear-gradient-7);}.cls-9{fill:#ec008c;}.cls-10{fill:#0c0c0b;}.cls-11{fill:#030015;}.cls-12{fill:#161616;}.cls-13{fill:#2b2b2b;}.cls-14{fill:#001015;}.cls-15{fill:#464240;}.cls-16{fill:#eb4747;}.cls-17{fill:#eea886;}.cls-18{fill:#51578c;}.cls-19{fill:#b33636;}.cls-20{fill:#a77860;}.cls-21{fill:#48484d;}.cls-22{fill:#5c5049;}.cls-23{fill:#fab46c;}.cls-24{fill:#fccca2;}.cls-25{fill:#d4c3bd;}.cls-26{fill:#de9673;}.cls-27{fill:#e6d3cc;}.cls-28{fill:#ded1c5;}.cls-29{fill:#bc8551;}.cls-30{fill:#23344a;}.cls-31{fill:#807066;}.cls-32{fill:#eea987;}.cls-33{fill:#214361;}.cls-34{fill:#db9c7c;}.cls-35{fill:#e8e8e8;}</style><linearGradient id="linear-gradient" x1="546.57" y1="657.04" x2="542.87" y2="568.25" gradientUnits="userSpaceOnUse"><stop offset="0" stop-color="#ffebe3"/><stop offset="1" stop-color="#eddad4"/></linearGradient><linearGradient id="linear-gradient-2" x1="316.06" y1="413.92" x2="431.71" y2="413.92" gradientUnits="userSpaceOnUse"><stop offset="0" stop-color="#40d5e6"/><stop offset="1" stop-color="#57f"/></linearGradient><linearGradient id="linear-gradient-3" x1="400.9" y1="478.46" x2="505.49" y2="478.46" xlink:href="#linear-gradient-2"/><linearGradient id="linear-gradient-4" x1="409.84" y1="493.67" x2="488.34" y2="493.67" xlink:href="#linear-gradient-2"/><linearGradient id="linear-gradient-5" x1="381.5" y1="430.5" x2="472.91" y2="430.5" xlink:href="#linear-gradient-2"/><linearGradient id="linear-gradient-6" x1="360.52" y1="561.63" x2="444.88" y2="561.63" gradientUnits="userSpaceOnUse"><stop offset="0" stop-color="#ff9340"/><stop offset="1" stop-color="#ffce45"/></linearGradient><linearGradient id="linear-gradient-7" x1="360.52" y1="561.63" x2="444.88" y2="561.63" gradientUnits="userSpaceOnUse"><stop offset="0" stop-color="#c97332"/><stop offset="1" stop-color="#ffce45"/></linearGradient></defs><title>Landing page</title><path class="cls-1" d="M89.8,575.74H968.21s69.17-4.62,33.41,44-173.41,37-258.73,106.68-71.61-32.89-183.61-38.69-453.9-15.49-457-58S52.57,576.72,89.8,575.74Z"/><path class="cls-2" d="M326.17,261.1c10-4.77,19.89,27,19.89,27,16.95,22.4,40.64-7.4,38.33,26.08-4.06,58.59,67.43,18.43,34.45,79.59s29.12,34.59,8.63,83.91,6.06,108.14-24.77,84c0,0-27.16-59.55-55.16-78s16.77-40.29,8-65.31c-12.73-36.34-43.39-34.92-21.29-74S292.27,277.31,326.17,261.1Z"/><path class="cls-3" d="M412.46,539.22c-13.37-9.4-29-74.91-29.94-113.94-.48-20-6.39-28.31-11.6-35.66-5-7-9.29-13.09-6.78-27,4.79-26.61-7.81-38.1-7.94-38.21l1.46-1.67c.56.49,13.68,12.34,8.65,40.28-2.34,13,1.52,18.45,6.41,25.34,5.13,7.23,11.51,16.23,12,36.89,1,41.88,17,103.73,29,112.18Z"/><path class="cls-4" d="M417.46,544.08a28.31,28.31,0,0,1-5.65-.62c-5.15-1-8.53-3.76-10-8.08-3.6-10.3,4.75-27,11.52-35.11.11-.14,11.46-14,10.25-33.21-.2-3.22-.54-6.21-.83-8.83-.86-7.61-1.47-13.1,1.79-16.77,2.88-3.24,8.44-4.64,18.58-4.69,17.79-.08,24.83-7.45,30.48-13.36,2.4-2.52,4.67-4.89,7.42-6.4h0c8.87-4.84,18.26-5.55,22.33-1.69,1.94,1.84,3.57,5.43.37,12.13-2.93,6.12-6.73,10-9.78,13.11-4.11,4.19-6.82,7-5.41,12.47.33,1.3.71,2.6,1.1,3.92,2.74,9.38,5.85,20-10.21,27.23-3.4,1.53-6.5,2.75-9.24,3.82-11.21,4.4-18,7.05-25.61,23.17-1.48,3.12-2.79,6.08-4,8.94C434.46,533.75,429.91,544.07,417.46,544.08ZM482,419c-2.45,1.34-4.5,3.49-6.88,6-5.94,6.22-13.34,14-32.07,14.06-9.32,0-14.55,1.26-16.93,3.94-2.61,2.93-2.05,8-1.26,15.05.3,2.65.64,5.66.85,8.94A52.86,52.86,0,0,1,415,501.69c-6.71,8-14.31,23.88-11.13,33,1.23,3.53,4.06,5.77,8.39,6.65,15.12,3.05,19.29-6.41,26.21-22.08,1.27-2.88,2.58-5.85,4.07-9,8-16.92,15.48-19.85,26.8-24.29,2.71-1.06,5.79-2.27,9.15-3.78,14.3-6.43,11.72-15.25,9-24.59-.39-1.34-.78-2.67-1.12-4-1.72-6.72,1.67-10.19,6-14.57,3.09-3.15,6.59-6.73,9.36-12.52,1.45-3,2.65-7.15.11-9.56-3.34-3.17-11.83-2.3-19.75,2Z"/><path class="cls-5" d="M412.05,556.84l-2.21-.12c.11-2.07,2.9-51,22.53-65.27,21.53-15.7,28.32-32.57,31.56-43.9,3.81-13.34,23.2-16.91,24-17.05l.38,2.18c-.18,0-18.86,3.47-22.29,15.48-3.32,11.64-10.29,29-32.38,45.08C414.88,506.93,412.08,556.34,412.05,556.84Z"/><path class="cls-6" d="M456.93,310.44c-13.95-4.78-11.05,22.11-16.95,42s-65.58,8.68-40.53,58.5-31.69,16.67-14.74,60.15,1.48,90,19.9,78.15,10.35-66.58,29.51-73.09,22.29-14.09,3.32-31.78,49.71-35.25,32.76-71S473.05,316,456.93,310.44Z"/><path class="cls-3" d="M413.16,547.17c-1.76-7.45-16.74-72.95-2.76-80.87,12.33-7,12-34.12,10.1-59.75-1.7-22.69,27.44-33.3,28.68-33.74l.74,2.09c-.29.1-28.79,10.48-27.22,31.48,2,26.32,2.19,54.26-11.21,61.84-10.62,6-.84,58.66,3.82,78.44Z"/><polygon class="cls-7" points="444.88 523.84 424.96 599.42 380.44 599.42 360.52 523.84 444.88 523.84"/><path class="cls-8" d="M444.88,523.84S401,532.08,401,599.42H380.44l-19.92-75.58Z"/><polygon class="cls-9" points="704.18 289.19 609.68 289.63 610 358.12 610.07 372.55 624.43 358.05 704.5 357.68 704.18 289.19"/><path class="cls-3" d="M664.32,326.37a7.22,7.22,0,1,1-7.24-7.19A7.22,7.22,0,0,1,664.32,326.37Z"/><path class="cls-3" d="M688,326.29a7.22,7.22,0,1,1-7.24-7.19A7.23,7.23,0,0,1,688,326.29Z"/><path class="cls-3" d="M641.16,326.44a7.22,7.22,0,1,1-7.24-7.19A7.22,7.22,0,0,1,641.16,326.44Z"/><polygon class="cls-9" points="676.13 101.95 770.63 102.38 770.32 170.87 770.25 185.3 755.89 170.81 675.82 170.44 676.13 101.95"/><path class="cls-3" d="M716,139.13a7.22,7.22,0,1,0,7.24-7.2A7.23,7.23,0,0,0,716,139.13Z"/><path class="cls-3" d="M692.3,139.05a7.22,7.22,0,1,0,7.24-7.19A7.21,7.21,0,0,0,692.3,139.05Z"/><path class="cls-3" d="M739.16,139.2a7.22,7.22,0,1,0,7.24-7.2A7.22,7.22,0,0,0,739.16,139.2Z"/><polygon class="cls-10" points="1054.62 146.1 920.26 146.72 920.71 244.1 920.8 264.62 941.22 244.01 1055.06 243.48 1054.62 146.1"/><path class="cls-3" d="M997.93,199a10.26,10.26,0,1,1-10.29-10.23A10.26,10.26,0,0,1,997.93,199Z"/><path class="cls-3" d="M1031.64,198.86a10.27,10.27,0,1,1-10.3-10.23A10.27,10.27,0,0,1,1031.64,198.86Z"/><path class="cls-3" d="M965,199.07a10.27,10.27,0,1,1-10.3-10.23A10.27,10.27,0,0,1,965,199.07Z"/><polygon class="cls-9" points="35.42 154.72 177.3 155.38 176.82 258.21 176.72 279.87 155.16 258.11 34.95 257.56 35.42 154.72"/><path class="cls-3" d="M95.27,210.54a10.84,10.84,0,1,0,10.87-10.8A10.84,10.84,0,0,0,95.27,210.54Z"/><path class="cls-3" d="M59.69,210.43a10.84,10.84,0,1,0,10.87-10.8A10.83,10.83,0,0,0,59.69,210.43Z"/><path class="cls-3" d="M130,210.65a10.84,10.84,0,1,0,10.87-10.8A10.84,10.84,0,0,0,130,210.65Z"/><path class="cls-9" d="M1018.16,389.1a18.24,18.24,0,0,0-34.23-12.62,10.66,10.66,0,0,0-.74,2.57c-.12.6-.22,1.21-.28,1.81-.72,5.59-.8,17.31,4.26,39.53,18.28-13.61,25.83-22.56,28.92-27.28.35-.51.66-1,1-1.57A11,11,0,0,0,1018.16,389.1Zm-21,4.35a11.36,11.36,0,1,1,14.6-6.73A11.36,11.36,0,0,1,997.11,393.45Z"/><path class="cls-11" d="M547.36,121.65l-17-7.4a2.76,2.76,0,0,1,2.2-5.06l12,5.24,8.7-19.28a2.76,2.76,0,1,1,5,2.27Z"/><path class="cls-11" d="M566.73,137.91a34.81,34.81,0,1,1,8.47-48.5A34.86,34.86,0,0,1,566.73,137.91ZM529.55,85a29.85,29.85,0,1,0,41.58,7.26A29.89,29.89,0,0,0,529.55,85Z"/><rect class="cls-12" x="444.09" y="208.31" width="46.25" height="31.67" transform="translate(54.29 -88.94) rotate(11.54)"/><polygon class="cls-13" points="441.39 235.03 467.59 222.32 486.71 244.29 441.39 235.03"/><polygon class="cls-13" points="493.05 213.26 466.44 227.96 447.73 204.01 493.05 213.26"/><path class="cls-9" d="M414.45,76.44C402.58,76.32,398.5,87,398.5,87s-9.88-5.78-19.06,1.75-4.46,14.9-4.46,14.9c6.47,15.8,37.75,23.79,37.75,23.79s19.38-25.82,14.53-42.19C427.26,85.26,426.32,76.56,414.45,76.44Z"/><path class="cls-14" d="M312,220.47a10.46,10.46,0,0,1-6.52,0,7.83,7.83,0,0,1-4.92-4.45,47.7,47.7,0,0,0-7.26-10.23A21,21,0,1,1,316.89,197a45.27,45.27,0,0,0,1.8,11.8c1.71,4.3-.95,9.42-5.94,11.42Q312.38,220.35,312,220.47ZM293.25,167.3a19.29,19.29,0,0,0,.75,36.94l.24.07.16.18a49.2,49.2,0,0,1,7.71,10.84l0,.06a6.15,6.15,0,0,0,3.89,3.49,8.82,8.82,0,0,0,6.08-.27c4.12-1.66,6.35-5.79,5-9.22v-.06a47,47,0,0,1-1.9-12.56v-.28l.15-.22a19.29,19.29,0,0,0-22.05-29Z"/><polygon class="cls-14" points="305.68 215.31 294.46 195.16 300.37 197.01 301.87 192.84 305.41 194.73 308.1 189.54 314.28 211.8 312.62 212.26 307.62 194.21 306.13 197.06 302.81 195.3 301.43 199.14 298.05 198.09 307.18 214.48 305.68 215.31"/><rect class="cls-14" x="305.62" y="218.04" width="14.91" height="6.01" transform="translate(-59.81 132.52) rotate(-21.87)"/><rect class="cls-14" x="301.62" y="212.22" width="19.7" height="9.67" transform="translate(-58.44 131.64) rotate(-21.87)"/><path class="cls-15" d="M831.72,198.87s13-1.36,17.65,11.17,9.07,16.62,9.62,23.2c2.22,26.61,14.65,20.59,11.16,35.93s-5.92,17.66-5.92,17.66L834.52,281l-30.1.1s11.78-5.88,9.16-18.4-9.16-33-5.47-47S824,199.94,831.72,198.87Z"/><path class="cls-16" d="M823.52,610s-9.32,12.8-8,14.86,11.49,2.35,17.67,0,6.34-17.6,9.13-24.15c1.18-2.75-1.33-10.84-4.86-11.43s-7.66,1.26-7.66,1.26S833.42,599.9,823.52,610Z"/><path class="cls-17" d="M829.81,590.58a86.36,86.36,0,0,1-1.91,10.31c-1.18,4.27-7.51,14-7.22,15.17s8.25,2.25,11.49-.79,5.74-11.83,6-17.16a28,28,0,0,0-.74-8.79S832.91,587.34,829.81,590.58Z"/><polygon class="cls-16" points="842.33 600.75 842.33 614.37 840.57 614.37 840.57 603.84 842.33 600.75"/><path class="cls-16" d="M847.89,610s-9.31,12.8-8,14.86,11.49,2.35,17.68,0,6.33-17.6,9.13-24.15c1.17-2.75-1.34-10.84-4.86-11.43s-7.66,1.26-7.66,1.26S857.8,599.9,847.89,610Z"/><path class="cls-17" d="M854.19,590.58a88.65,88.65,0,0,1-1.91,10.31c-1.18,4.27-7.52,14-7.22,15.17s8.25,2.25,11.48-.79,5.75-11.83,6.05-17.16a28.38,28.38,0,0,0-.74-8.79S857.28,587.34,854.19,590.58Z"/><polygon class="cls-16" points="866.71 600.75 866.71 614.37 864.94 614.37 864.94 603.84 866.71 600.75"/><path class="cls-17" d="M806.4,378.55s-7,38.83-8.95,48.54-7.24,56.74-7.81,64.74S807,538.3,808.14,541c18.77,44.43,20.94,54.48,20.94,54.48s6.16,3.86,9-.75c.87-1.4-11.55-52.34-13.6-66.47-1.9-13.14-6.86-33.44-5.52-38.05s13.52-68.18,15.8-70.84,5.72,1.52,7.05,7.43,4.19,56.93,5.9,63.41.38,28.37,1.34,39.42,4.92,62.6,4.92,62.6,7.67,1.37,8.43.14,7.4-57.26,7.59-70.4.4-31.26.76-36.94c3.53-54.45,10.2-61.57-1.45-100.76C840.8,288.33,806.4,378.55,806.4,378.55Z"/><path class="cls-13" d="M806.4,378.55s-7,38.83-8.95,48.54-7.24,56.74-7.81,64.74,16.76,46.47,17.14,49.33,14.65,43.74,14.65,43.74,14.42-.25,18.35-4c.78-.75-13.24-38.58-15.29-52.71-1.9-13.14-6.86-33.44-5.52-38.05s13.52-68.18,15.8-70.84,5.72,1.52,7.05,7.43,4.19,56.93,5.9,63.41.38,28.37,1.34,39.42S848,579.87,848,579.87s18.88,1,19.64-.24,2.17-44.57,2.36-57.71.4-31.26.76-36.94c3.53-54.45,10.2-61.57-1.45-100.76C840.8,288.33,806.4,378.55,806.4,378.55Z"/><path class="cls-9" d="M872.14,391.62c1.1-.45-7.72-29.6-9.47-38.31-1.58-7.86-6.95-15.06-1.7-28.45,3-7.66,2.8-16.72,2.8-16.72s8,17.7,8.79,22.27-27.74-3.74-28.13-3.11c-.76,1.2-1.59,8.92-1.59,11.58,0,2.21,41.38,12,46.27,3.32,1.39-2.46-7.6-49.48-13.39-55.74-9.52-10.28-34.53-19-34.53-19s-6.86-3.68-18.92.12S793.33,283,790.4,286.08,775.8,335,774.78,341c-.95,5.59-.58,17.36,12.19,15.85L821.44,349l-2.14-10.51-25.84,2.05c-5.27.9-2.74-3.73-2.07-6.3s7.14-25.89,7.14-25.89c-.37,6.47,4.51,27.73,7.05,35.09s-3.07,46.77-3.45,51.08C802.13,394.47,822.88,411.52,872.14,391.62Z"/><path class="cls-17" d="M846.81,269.57s-8.5,17.55-15.6,22.69c0,0-12.79-19.16-12.13-23.58C819.08,268.68,833.24,262.4,846.81,269.57Z"/><path class="cls-17" d="M847.12,328.73s-3.94-1.58-5-3-4.54-2.28-7.12-1.52-1.15,11.88-1.15,11.88l13.64,1.77Z"/><path class="cls-17" d="M822.43,337.22s1.31-7.18,1-8.5,2.33-2.66,2.69.62.57,5.35.57,5.35Z"/><path class="cls-18" d="M828.1,342.2l9.93-.41a2.39,2.39,0,0,0,2.3-2.36l.26-21.74a2.39,2.39,0,0,0-2.47-2.42l-11.88.39a2.39,2.39,0,0,0-2.31,2.58L825.62,340A2.39,2.39,0,0,0,828.1,342.2Z"/><path class="cls-17" d="M822.21,337.8s-.18-2,3.73-3.9c5.2-2.48,12.13-5,13.32-4.35,1.7.93.82,2.23-2.46,3.31s-4.37,1.43-4.37,1.43,6.43-.61,7.87.16,1.52,2.54.47,2.84a28.57,28.57,0,0,1-3.54.46s2.73.11,3,1.2c.2.81.3,2-2.28,2.45,0,0,1.75,1.94-.87,3.19a45.87,45.87,0,0,1-9.76,2.77c-5,.81-16.17.21-16.17.21l4.6-7.79a13.11,13.11,0,0,0,4.32-.4C822.45,338.57,822.21,337.8,822.21,337.8Z"/><polygon class="cls-16" points="819.3 338.44 821.44 348.95 799.48 353.98 798.63 340.08 819.3 338.44"/><path class="cls-16" d="M844.43,327.3s-1.82,3.89-1.59,11.58c0,0,13.62,5,24.2,6.13V331.65Z"/><path class="cls-19" d="M821.44,349,806,357.51c.11-1.78.19-3.49.22-5.08Z"/><path class="cls-19" d="M861.91,350.09c-12.35-4.91-17.29-9.34-18.65-10.74a6.11,6.11,0,0,1-.42-.47L860.38,344h0C860.82,346.12,861.4,348.12,861.91,350.09Z"/><path class="cls-17" d="M833.43,206.2s17.18,2.48,14.67,27.83-17.68,23.34-18.69,23.32-15.21.53-16.44-30.41C813,226.94,812.4,204.06,833.43,206.2Z"/><path class="cls-17" d="M841.06,252.85S840,266,842.54,270s-2.17,9.32-11.88,7.48-9.14-7.34-9.14-7.34,2.71-8.14,1.92-14.65S841.06,252.85,841.06,252.85Z"/><path class="cls-15" d="M831.47,215.38s8,8.44,11.75,12.71,4.16,12.53,4.16,12.53S853.66,233,851,224s-8.84-26.3-24.57-21-16.3,28.84-14.46,40.49C812,243.53,819.06,217.81,831.47,215.38Z"/><path class="cls-20" d="M824.7,256.2a15,15,0,0,0,14.44-1.65,9.29,9.29,0,0,1-7.22,4.67C826.68,259.8,824.7,256.2,824.7,256.2Z"/><path class="cls-15" d="M822.21,260.8s-23.63,21-17.5,34.14c5.23,11.19,23.79,4.33,20.73-7.4S822.21,260.8,822.21,260.8Z"/><path class="cls-21" d="M828.64,319.85a1.48,1.48,0,1,1-1.47-1.47A1.47,1.47,0,0,1,828.64,319.85Z"/><polygon class="cls-22" points="307.25 604.3 290.01 489.63 293.33 489.12 310.57 603.79 307.25 604.3"/><polygon class="cls-22" points="286.2 604.3 268.95 489.63 272.28 489.12 289.52 603.79 286.2 604.3"/><polygon class="cls-22" points="182.5 604.3 179.17 603.79 196.42 489.12 199.74 489.63 182.5 604.3"/><path class="cls-23" d="M295.4,490.8l13.51-142.1s-23.62-3.08-37.89-2.32L249.56,490.8Z"/><rect class="cls-23" x="249.56" y="483.58" width="45.84" height="7.22"/><path class="cls-23" d="M219.57,485,212.41,349.6s59.78-6.49,96.5-.9Z"/><path class="cls-24" d="M267.31,305.75s9.23-27.07-8.38-35.46-32.58,3.74-35.4,10.3-2.08,18.5.33,26.83,2.06,21-3.18,25.23-11.72,11.28-11.4,25.61c.2,8.88,35-22.74,35-22.74Z"/><path class="cls-25" d="M243.81,597.06s-.55,19.14,2.18,20.28,13.07-5.5,17.63-12.08-5.71-21.89-7.4-30.33c-.7-3.54-8.74-9.9-12.66-8.08s-6.77,6.49-6.77,6.49S246.76,580.18,243.81,597.06Z"/><path class="cls-26" d="M236.79,573.34a105.23,105.23,0,0,1,5.13,11.6C243.67,590,244,604,245.09,605s9.77-3.4,10.92-8.64-2.35-15.74-5.7-21.25a34.11,34.11,0,0,0-6.75-8.27S237.66,568,236.79,573.34Z"/><polygon class="cls-25" points="256.22 574.93 265.53 588.52 263.77 589.72 256.57 579.22 256.22 574.93"/><path class="cls-26" d="M222.71,424.68s4.55,7.69,0,13.29-35.17,21-34.94,29.85,5.83,22.79,7.84,26.31,9.45,18.16,13.32,26.73,26.19,49.53,30.56,58.77,1.68-36.94,1.68-36.94L218.83,477.2,271,426.36S264.7,412.3,222.71,424.68Z"/><path class="cls-9" d="M242.56,338s-14.48,3.21-20.23,6.57-18.51,18.8-18.51,25.45,55.82,12.85,55.82,12.85l10.58,38.62s28.21-6.89,31.57-12.6-11.11-46.34-13.13-54.91-12.57-14.34-24.32-16A80.57,80.57,0,0,0,242.56,338Z"/><path class="cls-17" d="M276.78,426s-1,6.61,1.68,9.41,15.06,19.12,8.51,35.15C281,485.23,269.28,485,269.28,485H251.22s5.24,26.5,3.55,44-9.66,57.34-9.83,59.35-7.64,8.32-9.82,5.13c0,0-.2-24-1.38-33.08s-6.18-45.34-7.69-50.71-10.41-21.67-10.41-23.35-8.69-28,10.29-34.68S251.61,426.09,276.78,426Z"/><path class="cls-27" d="M226.13,611.92s-12.46,14.53-11.06,17.14,13.62,4,21.31,1.7,9.32-20.62,13.32-28.24c1.68-3.2-.57-13.2-4.76-14.25s-9.35.79-9.35.79S239,600.64,226.13,611.92Z"/><path class="cls-17" d="M235.59,589.06a106,106,0,0,1-3.3,12.25c-1.83,5-10.4,16.15-10.16,17.59s9.73,3.5,13.93.15,8.06-13.71,8.93-20.1a34.38,34.38,0,0,0-.05-10.68S239.62,585.45,235.59,589.06Z"/><polygon class="cls-27" points="249.7 602.51 248.4 618.94 246.27 618.77 247.28 606.08 249.7 602.51"/><path class="cls-9" d="M287,470.51C281.29,485.43,269.28,485,269.28,485H251.22s-7.54-11.94-26-14a55,55,0,0,0-13.91.33l-.19,0c-24.51,3.63-19.78,12.63-19.7,12.86-2-5-4.18-12.88-3.66-17.14,2.35-19.4,30.38-23.47,34.94-29.07s0-13.29,0-13.29c42-12.38,48.31,1.68,48.31,1.68,1.84-.25,6.55-3,8.56-3,0,0,2.1,4.59,3.58,8.73C284.47,435.77,293.13,454.32,287,470.51Z"/><polygon class="cls-28" points="269.55 363.68 275.76 421.45 193.98 421.45 187.77 363.68 269.55 363.68"/><rect class="cls-28" x="268.61" y="416.25" width="13.66" height="5.2"/><rect class="cls-29" x="137.62" y="421.45" width="225.25" height="7.86"/><path class="cls-17" d="M251.61,274.91s18.32,5.42,15.7,30.84-14.58,24.12-15.7,24.31-15.33,1.12-19.82-29.73S251.61,274.91,251.61,274.91Z"/><path class="cls-17" d="M260.34,325.38s-1,8.42.65,13.66-21.34,5.37-21.33,1.07c0-4.89,2.35-9,.15-17.36S260.34,325.38,260.34,325.38Z"/><path class="cls-24" d="M246.88,286.24s10,15.84,20.43,19.51c0,0,5.72-26.57-17.91-32.14s-19.93,26.84-18.16,35.48A70.23,70.23,0,0,1,246.88,286.24Z"/><path class="cls-20" d="M242.53,326.46s7.25,7.55,16.52.78c0,0-.77,4.83-7.43,5.45S242.53,326.46,242.53,326.46Z"/><path class="cls-30" d="M233.53,283.86s5.24-10.15,14.08-10.6,14.12,7.22,14.12,7.22a15.05,15.05,0,0,0-14.1-8.64C237,271.84,233.53,283.86,233.53,283.86Z"/><path class="cls-17" d="M263.34,337.82S263,355.42,249.05,356,238,339.07,238,339.07,248.21,334.93,263.34,337.82Z"/><rect class="cls-31" x="357.09" y="429.31" width="5.79" height="180.62"/><rect class="cls-31" x="137.62" y="429.31" width="5.78" height="180.62"/><path class="cls-17" d="M618.13,253.89s17.92,5.26,16.83,29.62S618.13,253.89,618.13,253.89Z"/><path class="cls-17" d="M616.48,253.89s1.39,1.88-.34,14,1.54,17.19,1.93,22.24,6.31,37.62,6.47,39.06,1,18.78,3.26,23.38,19.27,30.68,19.5,32,8.24-4.54,8.24-4.54-15.23-31.69-16.22-34.81c-1.22-3.88-5-13.49-5.2-18.52-.57-12.29.55-40.83.11-47.05C633.42,268,624.25,255.74,616.48,253.89Z"/><path class="cls-32" d="M639.32,357.91s2.67,5.86,4.25,6.22,3.45,2.32,4.8,2.92,5.61.93,6.75,2c.47.45,2.26,4.36,3.3,5.18s3.37,2.23,2.66,3.11-3.13.19-3.13.19a1.73,1.73,0,0,1,.52,1.78c-.76,1.89-2,2-2,2s.41,1.42-.11,2.13a3.42,3.42,0,0,1-2.36,1.6,3.26,3.26,0,0,1-1.09,1.95,2.92,2.92,0,0,1-2.83.48s-1.26,1.74-2.43,1.4a10.49,10.49,0,0,1-2.67-1.72c-.84-.51-6.66-7.2-8.81-13.46a47.83,47.83,0,0,0-5.88-11.35Z"/><rect class="cls-33" x="614.51" y="314.77" width="50.49" height="84.26" transform="translate(513.98 -364.8) rotate(50.96)"/><path class="cls-34" d="M657.62,376.79s-5.07-5.63-7.6-5.52-.8,2.24-.8,2.24-1.67-2.14-3.47-1,.35,3.53.35,3.53a2.09,2.09,0,0,0-3,.49c-1.33,1.79.89,3.37.89,3.37s-3.35-.49-2.63,2.24c1.2,4.61,6.19,6.87,6.19,6.87s1.39.38,2.55-1.42c0,0,3.13,1.2,4-2.43,0,0,3.66-.84,2.5-3.76C656.57,381.39,660.42,380,657.62,376.79Z"/><path class="cls-24" d="M601.75,182.72s-25.92-2.16-25.21,25.11,5,31.36,0,50.62,25.26-10.94,25.26-10.94Z"/><path class="cls-32" d="M573.51,351.19S564,363.35,560.6,371.4s-9,25.68-8.23,39.34,5.23,39.29,3.92,45.1-2.61,17.77-4,21.89-7,16.09-7.58,28.44,7.86,66.62,7.49,71.67,9.54,2.06,9.54,2.06,3.37-49,5.24-57.45,4.12-37.05,5.8-39.11,6.29-23.39,5.58-26.75,18.37-53.9,19.5-64,29.26-41.4,29.26-41.4S602.52,341.78,573.51,351.19Z"/><path class="cls-32" d="M619.06,351.19a55.61,55.61,0,0,0,1.05,7c.56,1.88,13.47,49.6,14.78,67.93s4.68,33.9,5.24,37.81-.56,17-1.69,20.39,5.62,82.9,6.18,84.77-4.49,2.43-8,1.87-21.52-58.39-20.39-68.11,2.24-30.48-.94-38.92-31.81-69.43-32-73.17S570.85,322.51,619.06,351.19Z"/><path class="cls-32" d="M561.54,573.93s.93,6.46,1.93,8.23,3.78,10.74,5,12.41,4,14.27,0,15.78-13.51,4-16.7-1a20.71,20.71,0,0,1-3.1-13.93c.5-3.86,4.33-21.57,4.28-23.32S561.54,573.93,561.54,573.93Z"/><path class="cls-3" d="M566.9,591.09s.43,9.78-6.95,9.78-10.66-8.9-10.66-8.9-2.51,4.37,0,13.68,13,7.38,15.36,7S578.13,609.41,566.9,591.09Z"/><path class="cls-3" d="M643.82,565.15s5.22,9.34,8.32,11.23c3.86,2.36,11.36,9.92,14,10.27s12,2,10.21,7.33c-1.49,4.35-23.94,3.73-26.47,1.55s-10.1-10-13.16-9.85-1.92,11.3-1.92,11.3h-3.32s-1.16-10.82-1.3-12.68c-.41-5.51,3.52-9.56,3.69-12.7s.36-5.49.36-5.49Z"/><path class="cls-32" d="M665.37,586.39s-7.41,2.56-13.1-.71-16.62-8.25-20.49-8.29c0,0,2.11-6.44,2.15-7.16s.28-4.12.28-4.12l9.55-1.53s6.2,9.1,8.93,11.24S662.42,583.31,665.37,586.39Z"/><path class="cls-9" d="M627.27,350.34s2.66,11.09,3.64,14.32,7.29,53.31,8.84,84.63c0,0-37.75,14.31-89.68,11.93,0,0-1.26-57.55,3.51-73.82s13.41-31.52,19.93-36.21C579.31,347,627.27,350.34,627.27,350.34Z"/><path class="cls-35" d="M633.75,284.79c-.42,6.6-3.12,10.82-3.68,13.2s0,7.86-.7,13.34-2.81,31.57-2.1,39-51.06,4.08-55,1.84c0,0,8.72-15.59,9-22.05.08-2.21,1.41-9.12-2.25-14.17-1.92-2.67-5.5-11.16-9.06-17.36h0c-1.38-2.41-2.83-4.81-3.84-6.6h0a24.71,24.71,0,0,1-2.05-5.09s-2.31-28.63,4-31.86,9.68-3.79,15.86-4.07a44.92,44.92,0,0,0,10.24-1.54L608.6,251s5.1,2.39,8.75,2.67,8.1,8.21,10.31,14C629.48,272.33,634.17,278.19,633.75,284.79Z"/><path class="cls-17" d="M575.88,252.06s-11.44.95-15.74,11.47-3.94,21.19-4.87,25.07S553,315,552,318.31a188.34,188.34,0,0,0-5.1,31.2C546.14,362,548,388.25,548,388.25l6.33-3.08s5.65-39,8.1-47.21c2.09-7,2.09-19,3.26-23.36s8.36-30.36,9.52-33C577,277.55,585.72,251.93,575.88,252.06Z"/><path class="cls-17" d="M599.22,185.48c6.42-1,21.12.56,25.28,17.43a53.24,53.24,0,0,1-.7,8.42c-.7,3.76,3.77,14.08,3,14.7a23.31,23.31,0,0,1-4.22,1.7s-2.43,12.11-6.54,12.48-20-1.06-29-14.75S573.28,189.73,599.22,185.48Z"/><path class="cls-17" d="M609.88,235.52s-.32,1.69-.61,4.19c-.15,1.27-.3,2.75-.39,4.32-.26,4.35-.13,9.38,1.36,12.57,0,0-8.07,4.91-16.69-7.09,0,0,.85-14.88-4.1-22.79S609.88,235.52,609.88,235.52Z"/><path class="cls-24" d="M624.5,202.91s-9.67,8.34-19.91,11S588.93,228,588.93,228s-18.12-18.07-7.19-35.61S624.48,182.7,624.5,202.91Z"/><path class="cls-20" d="M609.27,239.71c-.15,1.27-.3,2.75-.39,4.32a45.27,45.27,0,0,1-14-10.38C600.18,237.45,609.27,239.71,609.27,239.71Z"/><path class="cls-24" d="M602.71,214.49s-10.48,28.17-9.22,34.95c0,0-5.55-1-15.42,2.06C578.07,251.5,582.84,201.25,602.71,214.49Z"/><path class="cls-17" d="M590,250.34s3.45,21.13,16.22,18.74,3.09-17.86,3.09-17.86S603.62,246.47,590,250.34Z"/><path class="cls-17" d="M554.49,384.1a54.57,54.57,0,0,0,2.58,6.71c.77,1.65,1.92,12.71,2,14.15,0,1.21-.81.56-1.28-.2-.27-.44-1.28-4.22-2.14-6.21-.73-1.66-1.29-2.26-1.55-1.69a37.57,37.57,0,0,0,.61,10.74c.88,3,.73,10.07-.95,9.18s-6.39-13.31-6.43-18.11a95.09,95.09,0,0,1,.69-10.61Z"/></svg>