<svg width="48" height="48" viewBox="0 0 48 48" fill="none" xmlns="http://www.w3.org/2000/svg">
<path fill-rule="evenodd" clip-rule="evenodd" d="M24 48C37.2548 48 48 37.2548 48 24C48 10.7452 37.2548 0 24 0C10.7452 0 0 10.7452 0 24C0 37.2548 10.7452 48 24 48Z" fill="#FFE9F6"/>
<path d="M28 24.2884V36.2143H35.7985C36.793 36.2143 37 35.6137 37 34.6724V14.918C37 13.9771 36.1941 13.2143 35.2 13.2143H29.8C28.8059 13.2143 28 13.9771 28 14.918V20.881" stroke="#F24AAA" stroke-width="1.7" stroke-linecap="round" stroke-linejoin="round"/>
<path d="M19 36.2143H28V21.2143" stroke="#F24AAA" stroke-width="1.7" stroke-linecap="round" stroke-linejoin="round"/>
<path d="M28 20.2143H20.8C19.8059 20.2143 19 20.9306 19 21.8143V24.2143" stroke="#F24AAA" stroke-width="1.7" stroke-linecap="round" stroke-linejoin="round"/>
<path d="M11 29.9908C11 29.0097 11.8059 28.2143 12.8 28.2143H20V36.2085H12.8C12.3414 36.2467 11.8873 36.0954 11.5461 35.7906C11.2049 35.4858 11.0071 35.0549 11 34.6008V29.9908" stroke="#F24AAA" stroke-width="1.7" stroke-linecap="round" stroke-linejoin="round"/>
<path d="M20 12.2143L11 21.2143" stroke="#F24AAA" stroke-width="1.7" stroke-linecap="round" stroke-linejoin="round"/>
<path d="M17 12.2143H20" stroke="#F24AAA" stroke-width="1.7" stroke-linecap="round" stroke-linejoin="round"/>
<path d="M20.0001 16.2143V13.2143" stroke="#F24AAA" stroke-width="1.7" stroke-linecap="round" stroke-linejoin="round"/>
<path d="M28 26.2143L37 34.2143" stroke="#F24AAA" stroke-width="1.7" stroke-linecap="round" stroke-linejoin="round"/>
<path d="M28 31.2143L33 36.2143" stroke="#F24AAA" stroke-width="1.7" stroke-linecap="round" stroke-linejoin="round"/>
<path d="M28 20.2143L37 28.2143" stroke="#F24AAA" stroke-width="1.7" stroke-linecap="round" stroke-linejoin="round"/>
<path d="M28 15.2143L37 23.2143" stroke="#F24AAA" stroke-width="1.7" stroke-linecap="round" stroke-linejoin="round"/>
<path d="M32 12.2143L37 17.2143" stroke="#F24AAA" stroke-width="1.7" stroke-linecap="round" stroke-linejoin="round"/>
</svg>
