<svg width="761" height="786" viewBox="0 0 761 786" fill="none" xmlns="http://www.w3.org/2000/svg">
<g clip-path="url(#clip0)">
<path opacity="0.1" d="M725.19 683.15C718.07 686.82 710.61 689.99 703.25 693.15C676.06 704.63 648.46 716.21 619.25 720.15C564.43 727.54 507.81 707.53 453.92 719.98C408.77 730.4 371.43 762.33 327.32 776.55C306.81 783.16 285.47 785.75 263.94 785.75H261.12C258.453 785.717 255.807 785.65 253.18 785.55C231.35 784.73 209.43 781.5 188.03 777.37C120.46 764.37 51.69 740.54 0.0299988 696.67C150.45 669.15 460.3 626.96 725.19 683.15Z" fill="#252223"/>
<path d="M525.35 686.23C525.35 686.23 500.68 602.47 529.98 540.85C542.28 514.98 546.36 485.93 540.68 457.85C537.964 444.518 534.031 431.463 528.93 418.85" stroke="#535461" stroke-width="2" stroke-miterlimit="10"/>
<path d="M547.12 379.91C547.12 390.18 528.53 419.91 528.53 419.91C528.53 419.91 509.94 390.14 509.94 379.91C509.883 377.433 510.321 374.97 511.229 372.665C512.137 370.36 513.497 368.259 515.228 366.487C516.96 364.715 519.028 363.307 521.311 362.346C523.595 361.384 526.047 360.889 528.525 360.889C531.003 360.889 533.455 361.384 535.739 362.346C538.022 363.307 540.09 364.715 541.822 366.487C543.553 368.259 544.913 370.36 545.821 372.665C546.729 374.97 547.167 377.433 547.11 379.91H547.12Z" fill="#FF3DB0"/>
<path d="M577.88 436.77C572.3 445.39 540.52 460.27 540.52 460.27C540.52 460.27 541.1 425.18 546.68 416.56C549.417 412.557 553.61 409.781 558.365 408.826C563.119 407.871 568.059 408.811 572.129 411.447C576.2 414.083 579.08 418.205 580.154 422.934C581.229 427.663 580.412 432.624 577.88 436.76V436.77Z" fill="#FF3DB0"/>
<path d="M576.53 533.94C567.36 538.56 532.42 535.37 532.42 535.37C532.42 535.37 550.63 505.37 559.8 500.75C561.985 499.593 564.379 498.883 566.841 498.662C569.304 498.442 571.786 498.714 574.142 499.465C576.497 500.215 578.68 501.428 580.562 503.032C582.443 504.636 583.986 506.599 585.099 508.807C586.212 511.014 586.874 513.422 587.046 515.888C587.217 518.355 586.895 520.831 586.098 523.171C585.301 525.511 584.045 527.669 582.404 529.518C580.763 531.368 578.769 532.871 576.54 533.94H576.53Z" fill="#FF3DB0"/>
<path d="M558.96 607.23C550.71 613.33 515.72 616.09 515.72 616.09C515.72 616.09 528.6 583.45 536.85 577.34C538.811 575.865 541.045 574.793 543.422 574.185C545.799 573.578 548.273 573.447 550.702 573.8C553.13 574.154 555.464 574.984 557.57 576.244C559.675 577.504 561.511 579.169 562.97 581.141C564.429 583.114 565.483 585.356 566.072 587.738C566.66 590.12 566.771 592.596 566.399 595.021C566.026 597.446 565.177 599.774 563.9 601.869C562.623 603.965 560.944 605.787 558.96 607.23V607.23Z" fill="#FF3DB0"/>
<path d="M501.49 462.26C508.85 469.41 543.12 476.85 543.12 476.85C543.12 476.85 534.72 442.78 527.36 435.62C523.799 432.322 519.089 430.547 514.238 430.676C509.386 430.804 504.776 432.824 501.394 436.305C498.012 439.787 496.126 444.453 496.138 449.306C496.15 454.16 498.06 458.816 501.46 462.28L501.49 462.26Z" fill="#FF3DB0"/>
<path d="M482.03 548.23C491.2 552.85 526.14 549.66 526.14 549.66C526.14 549.66 507.93 519.66 498.76 515.04C496.575 513.883 494.181 513.173 491.719 512.952C489.256 512.732 486.774 513.004 484.418 513.755C482.063 514.505 479.88 515.718 477.998 517.322C476.117 518.926 474.574 520.889 473.461 523.096C472.348 525.304 471.686 527.712 471.514 530.178C471.343 532.645 471.665 535.12 472.462 537.461C473.259 539.801 474.515 541.959 476.156 543.808C477.797 545.658 479.791 547.161 482.02 548.23H482.03Z" fill="#FF3DB0"/>
<path d="M474.58 634.39C482.83 640.49 517.82 643.25 517.82 643.25C517.82 643.25 504.94 610.61 496.69 604.5C494.729 603.025 492.495 601.953 490.118 601.345C487.741 600.738 485.267 600.607 482.838 600.96C480.41 601.314 478.076 602.144 475.97 603.404C473.865 604.664 472.029 606.329 470.57 608.301C469.111 610.274 468.057 612.516 467.468 614.898C466.88 617.28 466.769 619.756 467.141 622.181C467.514 624.606 468.363 626.934 469.64 629.029C470.917 631.125 472.596 632.947 474.58 634.39V634.39Z" fill="#FF3DB0"/>
<path opacity="0.25" d="M547.12 379.91C547.12 390.18 528.53 419.91 528.53 419.91C528.53 419.91 509.94 390.14 509.94 379.91C509.883 377.433 510.321 374.97 511.229 372.665C512.137 370.36 513.497 368.259 515.228 366.487C516.96 364.715 519.028 363.307 521.311 362.346C523.595 361.384 526.047 360.889 528.525 360.889C531.003 360.889 533.455 361.384 535.739 362.346C538.022 363.307 540.09 364.715 541.822 366.487C543.553 368.259 544.913 370.36 545.821 372.665C546.729 374.97 547.167 377.433 547.11 379.91H547.12Z" fill="black"/>
<path opacity="0.25" d="M577.88 436.77C572.3 445.39 540.52 460.27 540.52 460.27C540.52 460.27 541.1 425.18 546.68 416.56C549.417 412.557 553.61 409.781 558.365 408.826C563.119 407.871 568.059 408.811 572.129 411.447C576.2 414.083 579.08 418.205 580.154 422.934C581.229 427.663 580.412 432.624 577.88 436.76V436.77Z" fill="black"/>
<path opacity="0.25" d="M576.53 533.94C567.36 538.56 532.42 535.37 532.42 535.37C532.42 535.37 550.63 505.37 559.8 500.75C561.985 499.593 564.379 498.883 566.841 498.662C569.304 498.442 571.786 498.714 574.142 499.465C576.497 500.215 578.68 501.428 580.562 503.032C582.443 504.636 583.986 506.599 585.099 508.807C586.212 511.014 586.874 513.422 587.046 515.888C587.217 518.355 586.895 520.831 586.098 523.171C585.301 525.511 584.045 527.669 582.404 529.518C580.763 531.368 578.769 532.871 576.54 533.94H576.53Z" fill="black"/>
<path opacity="0.25" d="M558.96 607.23C550.71 613.33 515.72 616.09 515.72 616.09C515.72 616.09 528.6 583.45 536.85 577.34C538.811 575.865 541.045 574.793 543.422 574.185C545.799 573.578 548.273 573.447 550.702 573.8C553.13 574.154 555.464 574.984 557.57 576.244C559.675 577.504 561.511 579.169 562.97 581.141C564.429 583.114 565.483 585.356 566.072 587.738C566.66 590.12 566.771 592.596 566.399 595.021C566.026 597.446 565.177 599.774 563.9 601.869C562.623 603.965 560.944 605.787 558.96 607.23V607.23Z" fill="black"/>
<path opacity="0.25" d="M501.49 462.26C508.85 469.41 543.12 476.85 543.12 476.85C543.12 476.85 534.72 442.78 527.36 435.62C523.799 432.322 519.089 430.547 514.238 430.676C509.386 430.804 504.776 432.824 501.394 436.305C498.012 439.787 496.126 444.453 496.138 449.306C496.15 454.16 498.06 458.816 501.46 462.28L501.49 462.26Z" fill="black"/>
<path opacity="0.25" d="M482.03 548.23C491.2 552.85 526.14 549.66 526.14 549.66C526.14 549.66 507.93 519.66 498.76 515.04C496.575 513.883 494.181 513.173 491.719 512.952C489.256 512.732 486.774 513.004 484.418 513.755C482.063 514.505 479.88 515.718 477.998 517.322C476.117 518.926 474.574 520.889 473.461 523.096C472.348 525.304 471.686 527.712 471.514 530.178C471.343 532.645 471.665 535.12 472.462 537.461C473.259 539.801 474.515 541.959 476.156 543.808C477.797 545.658 479.791 547.161 482.02 548.23H482.03Z" fill="black"/>
<path opacity="0.25" d="M474.58 634.39C482.83 640.49 517.82 643.25 517.82 643.25C517.82 643.25 504.94 610.61 496.69 604.5C494.729 603.025 492.495 601.953 490.118 601.345C487.741 600.738 485.267 600.607 482.838 600.96C480.41 601.314 478.076 602.144 475.97 603.404C473.865 604.664 472.029 606.329 470.57 608.301C469.111 610.274 468.057 612.516 467.468 614.898C466.88 617.28 466.769 619.756 467.141 622.181C467.514 624.606 468.363 626.934 469.64 629.029C470.917 631.125 472.596 632.947 474.58 634.39V634.39Z" fill="black"/>
<path d="M96.4 715.6C96.4 715.6 71.73 631.85 101.03 570.19C113.33 544.32 117.41 515.27 111.73 487.19C109.014 473.858 105.081 460.803 99.98 448.19" stroke="#535461" stroke-width="2" stroke-miterlimit="10"/>
<path d="M118.21 409.28C118.21 419.55 99.62 449.28 99.62 449.28C99.62 449.28 81.03 419.51 81.03 409.28C80.9725 406.803 81.4108 404.34 82.3189 402.035C83.2271 399.73 84.5869 397.629 86.3183 395.857C88.0498 394.085 90.118 392.677 92.4014 391.716C94.6849 390.754 97.1374 390.259 99.615 390.259C102.093 390.259 104.545 390.754 106.829 391.716C109.112 392.677 111.18 394.085 112.912 395.857C114.643 397.629 116.003 399.73 116.911 402.035C117.819 404.34 118.257 406.803 118.2 409.28H118.21Z" fill="#FF3DB0"/>
<path d="M148.93 466.14C143.35 474.76 111.57 489.64 111.57 489.64C111.57 489.64 112.15 454.55 117.73 445.93C119.025 443.815 120.731 441.98 122.747 440.534C124.762 439.088 127.047 438.059 129.465 437.51C131.884 436.96 134.389 436.9 136.831 437.334C139.274 437.767 141.605 438.685 143.687 440.033C145.769 441.381 147.561 443.132 148.956 445.184C150.351 447.235 151.321 449.544 151.81 451.976C152.298 454.408 152.295 456.913 151.801 459.344C151.306 461.775 150.33 464.082 148.93 466.13V466.14Z" fill="#FF3DB0"/>
<path d="M147.59 563.31C138.42 567.93 103.48 564.74 103.48 564.74C103.48 564.74 121.69 534.74 130.86 530.12C135.248 528.016 140.286 527.715 144.892 529.284C149.498 530.853 153.306 534.165 155.498 538.51C157.689 542.855 158.089 547.886 156.613 552.523C155.136 557.159 151.9 561.032 147.6 563.31H147.59Z" fill="#FF3DB0"/>
<path d="M130.02 636.6C121.77 642.7 86.78 645.46 86.78 645.46C86.78 645.46 99.66 612.82 107.91 606.71C111.876 603.825 116.822 602.624 121.67 603.369C126.517 604.114 130.874 606.745 133.791 610.688C136.708 614.631 137.948 619.567 137.242 624.421C136.535 629.274 133.94 633.652 130.02 636.6V636.6Z" fill="#FF3DB0"/>
<path d="M72.54 491.63C79.9 498.78 114.21 506.19 114.21 506.19C114.21 506.19 105.81 472.12 98.45 464.96C94.889 461.662 90.1795 459.887 85.3276 460.016C80.4757 460.144 75.8663 462.164 72.4843 465.645C69.1023 469.127 67.2159 473.793 67.2281 478.646C67.2404 483.5 69.1504 488.156 72.55 491.62L72.54 491.63Z" fill="#FF3DB0"/>
<path d="M53.12 577.6C62.29 582.22 97.23 579.03 97.23 579.03C97.23 579.03 79.02 549.03 69.85 544.41C65.4662 542.337 60.4462 542.06 55.8606 543.636C51.2751 545.213 47.487 548.519 45.3044 552.849C43.1218 557.179 42.7173 562.19 44.1774 566.814C45.6375 571.438 48.8466 575.309 53.12 577.6V577.6Z" fill="#FF3DB0"/>
<path d="M45.63 663.76C53.88 669.86 88.87 672.62 88.87 672.62C88.87 672.62 75.99 639.98 67.74 633.85C63.7737 630.965 58.8279 629.764 53.9802 630.509C49.1325 631.254 44.7756 633.885 41.8589 637.828C38.9421 641.771 37.7018 646.707 38.4082 651.561C39.1145 656.414 41.7103 660.792 45.63 663.74V663.76Z" fill="#FF3DB0"/>
<path opacity="0.25" d="M118.21 409.28C118.21 419.55 99.62 449.28 99.62 449.28C99.62 449.28 81.03 419.51 81.03 409.28C80.9725 406.803 81.4108 404.34 82.3189 402.035C83.2271 399.73 84.5869 397.629 86.3183 395.857C88.0498 394.085 90.118 392.677 92.4014 391.716C94.6849 390.754 97.1374 390.259 99.615 390.259C102.093 390.259 104.545 390.754 106.829 391.716C109.112 392.677 111.18 394.085 112.912 395.857C114.643 397.629 116.003 399.73 116.911 402.035C117.819 404.34 118.257 406.803 118.2 409.28H118.21Z" fill="black"/>
<path opacity="0.25" d="M148.93 466.14C143.35 474.76 111.57 489.64 111.57 489.64C111.57 489.64 112.15 454.55 117.73 445.93C119.025 443.815 120.731 441.98 122.747 440.534C124.762 439.088 127.047 438.059 129.465 437.51C131.884 436.96 134.389 436.9 136.831 437.334C139.274 437.767 141.605 438.685 143.687 440.033C145.769 441.381 147.561 443.132 148.956 445.184C150.351 447.235 151.321 449.544 151.81 451.976C152.298 454.408 152.295 456.913 151.801 459.344C151.306 461.775 150.33 464.082 148.93 466.13V466.14Z" fill="black"/>
<path opacity="0.25" d="M147.59 563.31C138.42 567.93 103.48 564.74 103.48 564.74C103.48 564.74 121.69 534.74 130.86 530.12C135.248 528.016 140.286 527.715 144.892 529.284C149.498 530.853 153.306 534.165 155.498 538.51C157.689 542.855 158.089 547.886 156.613 552.523C155.136 557.159 151.9 561.032 147.6 563.31H147.59Z" fill="black"/>
<path opacity="0.25" d="M130.02 636.6C121.77 642.7 86.78 645.46 86.78 645.46C86.78 645.46 99.66 612.82 107.91 606.71C111.876 603.825 116.822 602.624 121.67 603.369C126.517 604.114 130.874 606.745 133.791 610.688C136.708 614.631 137.948 619.567 137.242 624.421C136.535 629.274 133.94 633.652 130.02 636.6V636.6Z" fill="black"/>
<path opacity="0.25" d="M72.54 491.63C79.9 498.78 114.21 506.19 114.21 506.19C114.21 506.19 105.81 472.12 98.45 464.96C94.889 461.662 90.1795 459.887 85.3276 460.016C80.4757 460.144 75.8663 462.164 72.4843 465.645C69.1023 469.127 67.2159 473.793 67.2281 478.646C67.2404 483.5 69.1504 488.156 72.55 491.62L72.54 491.63Z" fill="black"/>
<path opacity="0.25" d="M53.12 577.6C62.29 582.22 97.23 579.03 97.23 579.03C97.23 579.03 79.02 549.03 69.85 544.41C65.4662 542.337 60.4462 542.06 55.8606 543.636C51.2751 545.213 47.487 548.519 45.3044 552.849C43.1218 557.179 42.7173 562.19 44.1774 566.814C45.6375 571.438 48.8466 575.309 53.12 577.6V577.6Z" fill="black"/>
<path opacity="0.25" d="M45.63 663.76C53.88 669.86 88.87 672.62 88.87 672.62C88.87 672.62 75.99 639.98 67.74 633.85C63.7737 630.965 58.8279 629.764 53.9802 630.509C49.1325 631.254 44.7756 633.885 41.8589 637.828C38.9421 641.771 37.7018 646.707 38.4082 651.561C39.1145 656.414 41.7103 660.792 45.63 663.74V663.76Z" fill="black"/>
<path d="M398.06 660.71C398.06 660.71 384.7 615.36 400.56 581.99C407.301 568.034 409.332 552.269 406.35 537.06C404.879 529.851 402.75 522.791 399.99 515.97" stroke="#535461" stroke-width="2" stroke-miterlimit="10"/>
<path d="M409.86 494.85C409.86 500.41 399.8 516.52 399.8 516.52C399.8 516.52 389.74 500.43 389.74 494.85C389.74 493.528 390 492.219 390.506 490.998C391.012 489.777 391.753 488.668 392.688 487.733C393.623 486.798 394.732 486.057 395.953 485.551C397.174 485.045 398.483 484.785 399.805 484.785C401.127 484.785 402.436 485.045 403.657 485.551C404.878 486.057 405.987 486.798 406.922 487.733C407.857 488.668 408.598 489.777 409.104 490.998C409.61 492.219 409.87 493.528 409.87 494.85H409.86Z" fill="#FF3DB0"/>
<path d="M426.5 525.66C423.5 530.32 406.27 538.38 406.27 538.38C406.27 538.38 406.58 519.38 409.6 514.72C411.051 512.48 413.332 510.908 415.941 510.351C418.551 509.793 421.275 510.294 423.515 511.745C425.755 513.196 427.326 515.477 427.884 518.086C428.442 520.696 427.941 523.42 426.49 525.66H426.5Z" fill="#FF3DB0"/>
<path d="M425.77 578.26C420.77 580.76 401.89 579.03 401.89 579.03C401.89 579.03 411.75 562.79 416.71 560.29C419.097 559.089 421.863 558.885 424.401 559.723C426.938 560.561 429.039 562.373 430.24 564.76C431.441 567.147 431.645 569.913 430.807 572.451C429.969 574.988 428.157 577.089 425.77 578.29V578.26Z" fill="#FF3DB0"/>
<path d="M416.26 617.94C411.79 621.24 392.85 622.74 392.85 622.74C392.85 622.74 399.85 605.07 404.29 601.74C406.436 600.149 409.125 599.475 411.768 599.867C414.41 600.259 416.789 601.684 418.38 603.83C419.971 605.976 420.645 608.665 420.253 611.308C419.861 613.95 418.436 616.329 416.29 617.92L416.26 617.94Z" fill="#FF3DB0"/>
<path d="M385.12 539.46C389.12 543.33 407.68 547.34 407.68 547.34C407.68 547.34 403.12 528.85 399.12 525.02C397.19 523.248 394.644 522.299 392.024 522.375C389.405 522.451 386.918 523.547 385.094 525.428C383.27 527.31 382.252 529.829 382.257 532.449C382.262 535.07 383.289 537.585 385.12 539.46V539.46Z" fill="#FF3DB0"/>
<path d="M374.61 586C379.61 588.5 398.49 586.77 398.49 586.77C398.49 586.77 388.63 570.53 383.67 568.03C381.283 566.829 378.517 566.625 375.979 567.463C373.442 568.301 371.341 570.113 370.14 572.5C368.939 574.887 368.735 577.653 369.573 580.191C370.411 582.728 372.223 584.829 374.61 586.03V586Z" fill="#FF3DB0"/>
<path d="M370.57 632.65C375.04 635.95 393.98 637.45 393.98 637.45C393.98 637.45 386.98 619.78 382.54 616.45C381.478 615.662 380.27 615.091 378.987 614.77C377.704 614.448 376.37 614.383 375.062 614.577C372.42 614.969 370.041 616.394 368.45 618.54C366.859 620.686 366.185 623.375 366.577 626.018C366.969 628.66 368.394 631.039 370.54 632.63L370.57 632.65Z" fill="#FF3DB0"/>
<path opacity="0.5" d="M409.86 494.85C409.86 500.41 399.8 516.52 399.8 516.52C399.8 516.52 389.74 500.43 389.74 494.85C389.74 493.528 390 492.219 390.506 490.998C391.012 489.777 391.753 488.668 392.688 487.733C393.623 486.798 394.732 486.057 395.953 485.551C397.174 485.045 398.483 484.785 399.805 484.785C401.127 484.785 402.436 485.045 403.657 485.551C404.878 486.057 405.987 486.798 406.922 487.733C407.857 488.668 408.598 489.777 409.104 490.998C409.61 492.219 409.87 493.528 409.87 494.85H409.86Z" fill="white"/>
<path opacity="0.5" d="M426.5 525.66C423.5 530.32 406.27 538.38 406.27 538.38C406.27 538.38 406.58 519.38 409.6 514.72C411.051 512.48 413.332 510.908 415.941 510.351C418.551 509.793 421.275 510.294 423.515 511.745C425.755 513.196 427.326 515.477 427.884 518.086C428.442 520.696 427.941 523.42 426.49 525.66H426.5Z" fill="white"/>
<path opacity="0.5" d="M425.77 578.26C420.77 580.76 401.89 579.03 401.89 579.03C401.89 579.03 411.75 562.79 416.71 560.29C419.097 559.089 421.863 558.885 424.401 559.723C426.938 560.561 429.039 562.373 430.24 564.76C431.441 567.147 431.645 569.913 430.807 572.451C429.969 574.988 428.157 577.089 425.77 578.29V578.26Z" fill="white"/>
<path opacity="0.5" d="M416.26 617.94C411.79 621.24 392.85 622.74 392.85 622.74C392.85 622.74 399.85 605.07 404.29 601.74C406.436 600.149 409.125 599.475 411.768 599.867C414.41 600.259 416.789 601.684 418.38 603.83C419.971 605.976 420.645 608.665 420.253 611.308C419.861 613.95 418.436 616.329 416.29 617.92L416.26 617.94Z" fill="white"/>
<path opacity="0.5" d="M385.12 539.46C389.12 543.33 407.68 547.34 407.68 547.34C407.68 547.34 403.12 528.85 399.12 525.02C397.19 523.248 394.644 522.299 392.024 522.375C389.405 522.451 386.918 523.547 385.094 525.428C383.27 527.31 382.252 529.829 382.257 532.449C382.262 535.07 383.289 537.585 385.12 539.46V539.46Z" fill="white"/>
<path opacity="0.5" d="M374.61 586C379.61 588.5 398.49 586.77 398.49 586.77C398.49 586.77 388.63 570.53 383.67 568.03C381.283 566.829 378.517 566.625 375.979 567.463C373.442 568.301 371.341 570.113 370.14 572.5C368.939 574.887 368.735 577.653 369.573 580.191C370.411 582.728 372.223 584.829 374.61 586.03V586Z" fill="white"/>
<path opacity="0.5" d="M370.57 632.65C375.04 635.95 393.98 637.45 393.98 637.45C393.98 637.45 386.98 619.78 382.54 616.45C381.478 615.662 380.27 615.091 378.987 614.77C377.704 614.448 376.37 614.383 375.062 614.577C372.42 614.969 370.041 616.394 368.45 618.54C366.859 620.686 366.185 623.375 366.577 626.018C366.969 628.66 368.394 631.039 370.54 632.63L370.57 632.65Z" fill="white"/>
<path d="M306.01 101.75V213.94L357.93 147.18" stroke="#535461" stroke-width="2" stroke-miterlimit="10"/>
<path d="M253.16 136.98L306.01 213.94" stroke="#535461" stroke-width="2" stroke-miterlimit="10"/>
<g opacity="0.7">
<path opacity="0.7" d="M401.51 88.56C401.505 81.9701 399.942 75.4746 396.948 69.6043C393.953 63.7339 389.613 58.6552 384.281 54.7828C378.948 50.9104 372.776 48.3543 366.267 47.3232C359.758 46.2921 353.098 46.8153 346.83 48.85C347.174 46.5022 347.351 44.1329 347.36 41.76C347.353 30.9495 343.153 20.5631 335.645 12.7853C328.137 5.00749 317.905 0.444467 307.101 0.0558963C296.297 -0.332675 285.764 3.48349 277.717 10.7018C269.669 17.9201 264.734 27.9779 263.95 38.76C257.68 36.7195 251.017 36.1918 244.504 37.2201C237.991 38.2485 231.814 40.8036 226.478 44.6767C221.142 48.5497 216.799 53.6306 213.802 59.504C210.806 65.3774 209.243 71.8766 209.24 78.47C209.24 99.47 224.67 129.22 244.79 134.47L247.92 136.26L246.22 142.08H256.28L254.12 136.27L257.23 134.49C272.77 130.41 285.52 111.69 290.51 93.73C293.243 95.5507 296.251 96.9183 299.42 97.78L302.55 99.57L300.85 105.39H310.91L308.72 99.56L311.83 97.78C314.146 97.16 316.376 96.2565 318.47 95.09C321.16 115.24 335.47 139.83 353.56 144.58L356.69 146.37L354.99 152.19H365.05L362.86 146.36L365.97 144.58C386.12 139.31 401.51 109.51 401.51 88.56Z" fill="url(#paint0_linear)"/>
</g>
<path d="M257.87 139.97H248.14L249.84 134.13H255.68L257.87 139.97Z" fill="#FF3DB0"/>
<path d="M293.12 78.39C293.12 100.71 275.03 133.39 252.71 133.39C230.39 133.39 212.3 100.69 212.3 78.39C212.467 67.784 216.797 57.6689 224.356 50.2276C231.916 42.7863 242.098 38.6157 252.705 38.6157C263.312 38.6157 273.494 42.7863 281.054 50.2276C288.613 57.6689 292.943 67.784 293.11 78.39H293.12Z" fill="#FF3DB0"/>
<path opacity="0.2" d="M293.12 78.39C293.12 100.71 275.03 133.39 252.71 133.39C230.39 133.39 212.3 100.69 212.3 78.39C212.467 67.784 216.797 57.6689 224.356 50.2276C231.916 42.7863 242.098 38.6157 252.705 38.6157C263.312 38.6157 273.494 42.7863 281.054 50.2276C288.613 57.6689 292.943 67.784 293.11 78.39H293.12Z" fill="white"/>
<path opacity="0.2" d="M261.037 82.3457H265.937V85.6855H261.037V88.9375H265.937V92.2773H261.037V103H256.774L249.765 92.2773H240.668V103H236.449V92.2773H231.681V88.9375H236.449V85.6855H231.681V82.3457H236.449V71.0078H240.668L248.073 82.3457H256.84V71.0078H261.037V82.3457ZM240.668 88.9375H247.589L245.458 85.6855H240.668V88.9375ZM252.357 88.9375H256.84V85.6855H250.248L252.357 88.9375ZM240.668 82.3457H243.283L240.668 78.3467V82.3457ZM256.84 95.771V92.2773H254.555L256.84 95.771Z" fill="black"/>
<path d="M255.68 134.38H249.84L246.43 132.43H259.09L255.68 134.38Z" fill="#535461"/>
<path opacity="0.1" d="M238.12 46.98C238.12 46.98 221.12 56.23 218.65 74.73Z" fill="white"/>
<path d="M310.71 104.45H300.98L302.68 98.61H308.52L310.71 104.45Z" fill="#FF3DB0"/>
<path opacity="0.07" d="M310.71 104.45H300.98L302.68 98.61H308.52L310.71 104.45Z" fill="black"/>
<path d="M346.01 42.85C346.01 65.17 327.92 97.85 305.6 97.85C283.28 97.85 265.19 65.15 265.19 42.85C265.357 32.244 269.687 22.1289 277.246 14.6876C284.806 7.24635 294.988 3.07567 305.595 3.07567C316.202 3.07567 326.384 7.24635 333.944 14.6876C341.503 22.1289 345.833 32.244 346 42.85H346.01Z" fill="#FF3DB0"/>
<path d="M308.52 98.85H302.68L299.27 96.91H311.93L308.52 98.85Z" fill="#535461"/>
<path opacity="0.1" d="M290.99 11.46C290.99 11.46 273.99 20.71 271.52 39.21Z" fill="white"/>
<path d="M363.11 149.74H353.37L355.08 143.9H360.92L363.11 149.74Z" fill="#FF3DB0"/>
<path d="M398.4 88.15C398.4 110.47 380.31 143.15 357.99 143.15C335.67 143.15 317.58 110.45 317.58 88.15C317.747 77.544 322.077 67.4289 329.636 59.9876C337.196 52.5464 347.378 48.3757 357.985 48.3757C368.592 48.3757 378.774 52.5464 386.334 59.9876C393.893 67.4289 398.223 77.544 398.39 88.15H398.4Z" fill="#FF3DB0"/>
<path opacity="0.2" d="M398.4 88.15C398.4 110.47 380.31 143.15 357.99 143.15C335.67 143.15 317.58 110.45 317.58 88.15C317.747 77.544 322.077 67.4289 329.636 59.9876C337.196 52.5464 347.378 48.3757 357.985 48.3757C368.592 48.3757 378.774 52.5464 386.334 59.9876C393.893 67.4289 398.223 77.544 398.39 88.15H398.4Z" fill="white"/>
<path d="M360.92 144.15H355.08L351.67 142.2H364.33L360.92 144.15Z" fill="#535461"/>
<path opacity="0.1" d="M343.39 56.75C343.39 56.75 326.39 66 323.92 84.5Z" fill="white"/>
<path d="M356.03 739.95C349.03 738.35 343.28 729.95 343.28 729.95L342.71 730.04L349.61 638.43C349.61 638.43 356.93 625.12 349.61 605.81C348.15 601.97 346.78 597.94 345.5 593.95L346.61 593.49L346.39 592.25L346.61 592.16C346.61 592.16 325.32 475.48 325.12 437.5C325.12 432.91 325.53 429.63 326.35 428.06C329.71 421.65 335.73 412.43 335.48 400.92C335.7 389.68 330.07 376.17 309.88 360.92C311.49 348.12 315.46 321.17 322.36 302.92C322.36 302.92 325.02 290.92 322.36 272.92L318.36 222.33C318.36 222.33 319.03 199.03 304.36 199.03C289.69 199.03 305.03 225.03 305.03 225.03L303.7 290.93C303.7 290.93 303.26 294.34 302.51 299.7C298.98 295.704 294.305 292.894 289.12 291.65C289.327 289.241 288.985 286.817 288.12 284.56C287.82 284.75 287.51 284.92 287.2 285.09C287.08 284.69 286.94 284.29 286.79 283.9C283.668 285.835 280.073 286.873 276.4 286.9C273.04 286.9 269.74 286.09 266.4 285.84C260.733 285.442 255.072 286.703 250.11 289.47C249.42 289.4 248.72 289.31 248.02 289.21C234.92 287.21 225.81 303.91 212.69 310.74C203.49 315.53 199.77 326.74 198.33 337C196.89 347.26 196.72 358.19 191.33 367.09C187.67 373.17 179.48 376.68 177.94 383.6C174.94 397.1 178.27 393.77 181.6 411.74C182.7 417.68 184.13 420.05 185.53 425.93C187.05 432.27 185.37 438.93 185.14 445.41C184.56 462.48 195.54 478.96 210.79 486.3C214.631 488.333 218.774 489.734 223.06 490.45C222.372 498.082 219.192 505.275 214.01 510.92C214.52 511.09 215.01 511.23 215.55 511.35L215.34 511.58C224.14 514.46 233.86 511.13 241.62 506.07C243.882 504.589 246.044 502.958 248.09 501.19C246.889 504.015 245.912 506.931 245.17 509.91L245.11 509.97L243.51 509.58C243.51 509.58 243.97 509.84 244.8 510.26C240.38 514.36 197.01 554.39 180.34 562.04C176.67 562.12 164.67 583.53 195.91 591.13C220.54 597.13 225.91 588.47 238.51 603.78C242.049 607.879 246.61 610.967 251.73 612.73C248.13 624.21 242.44 638.62 235.84 641.73C224.52 647.06 205.84 675.01 203.84 685L187.12 720.63H186.81L183.42 724.26C182.744 724.984 182.255 725.861 181.996 726.817C181.736 727.772 181.712 728.776 181.928 729.743C182.144 730.709 182.592 731.608 183.233 732.362C183.875 733.116 184.691 733.702 185.61 734.07C195.27 737.92 210.99 743.26 218.1 740.6C228.75 736.6 212.1 732.6 212.1 732.6C205.44 729.94 202.1 721.28 202.1 721.28L255.68 660.37C255.68 660.37 276.68 652.23 280.97 635.08C281.24 633.99 284.4 625.58 288.04 616.01C291.44 615.76 294.67 615.43 297.61 615.11C302.37 614.58 308.01 612.7 313.73 610.22C317.2 621.95 320.18 634.67 318.91 640.4C316.25 652.4 312.91 667.69 318.91 687.66L329.23 731.93H330.17L329.11 732.09L326.36 736.16C325.8 736.987 325.45 737.939 325.342 738.932C325.233 739.926 325.369 740.931 325.738 741.859C326.107 742.788 326.697 743.613 327.457 744.261C328.218 744.91 329.125 745.362 330.1 745.58C340.25 747.88 356.53 750.69 363.1 746.96C373.12 741.31 356.03 739.95 356.03 739.95ZM268.28 413.25C268.058 408.424 268.128 403.588 268.49 398.77C269.357 407.539 270.881 416.23 273.05 424.77C275.954 430.9 277.522 437.578 277.65 444.36C277.572 453.838 274.046 462.963 267.73 470.03L267.67 470.09C272.61 451.71 269.12 432.26 268.28 413.24V413.25Z" fill="url(#paint1_linear)"/>
<path d="M273.64 372.43C267.9 382.14 268.94 399.89 276.91 432.35C276.91 432.35 286.02 457.08 267.8 477.9C249.58 498.72 245.68 516.9 245.68 516.9C245.68 516.9 188.48 552.34 181.26 568.3C192 544.55 156.74 578.55 197.53 588.47C221.6 594.33 226.81 585.87 239.17 600.83C251.53 615.79 279.51 613.83 297.08 611.89C314.65 609.95 344.58 589.12 344.58 589.12C344.58 589.12 311.4 449.23 318.58 435.56C325.35 422.63 349.7 398.06 302 366.24C292.47 359.94 279.45 362.6 273.64 372.43Z" fill="#F0898B"/>
<path opacity="0.1" d="M273.64 372.43C267.9 382.14 268.94 399.89 276.91 432.35C276.91 432.35 286.02 457.08 267.8 477.9C249.58 498.72 245.68 516.9 245.68 516.9C245.68 516.9 188.11 552.18 181.26 568.3C191.35 544.55 156.74 578.55 197.53 588.47C221.6 594.33 226.81 585.87 239.17 600.83C251.53 615.79 279.51 613.83 297.08 611.89C314.65 609.95 344.58 589.12 344.58 589.12C344.58 589.12 311.4 449.23 318.58 435.56C325.35 422.63 349.7 398.06 302 366.24C292.47 359.94 279.45 362.6 273.64 372.43Z" fill="black"/>
<path d="M256.12 595.01C256.12 595.01 247.66 632.75 236.6 637.95C225.54 643.15 207.32 670.48 205.37 680.24L188.78 715.7H203.78L256.12 656.18C256.12 656.18 276.65 648.18 280.85 631.45C281.5 628.85 299.07 583.3 299.07 583.3L256.12 595.01Z" fill="#A26565"/>
<path d="M304.88 583.3C304.88 583.3 320.5 624.94 317.88 636.66C315.26 648.38 312.02 663.34 317.88 682.86L327.97 726.13L340.97 725.48L347.8 634.71C347.8 634.71 354.96 621.71 347.8 602.83C340.64 583.95 335.44 560.54 335.44 560.54L304.88 583.3Z" fill="#A26565"/>
<path d="M308.12 370.53C308.12 370.53 312.02 330.84 321.12 306.76C321.12 306.76 323.72 295.05 321.12 277.48L317.22 228.03C317.22 228.03 317.87 205.26 303.56 205.26C289.25 205.26 304.21 230.64 304.21 230.64L302.91 295.06C302.91 295.06 294.45 360.78 288.6 367.94L308.12 370.53Z" fill="#FDB797"/>
<path opacity="0.9" d="M308.12 370.53C308.12 370.53 312.02 330.84 321.12 306.76C321.12 306.76 323.72 295.05 321.12 277.48L317.22 228.03C317.22 228.03 317.87 205.26 303.56 205.26C289.25 205.26 304.21 230.64 304.21 230.64L302.91 295.06C302.91 295.06 294.45 360.78 288.6 367.94L308.12 370.53Z" fill="#A26565"/>
<path d="M304.88 323.68C304.88 323.68 302.28 354.91 310.09 365.32C310.09 365.32 291.87 355.56 276.26 364.02C276.26 364.02 286.02 337.34 282.77 325.63L304.88 323.68Z" fill="#A26565"/>
<path opacity="0.1" d="M273.64 365.92C267.9 375.63 265.03 393.38 273 425.84C273 425.84 286 450.57 267.79 471.39C249.58 492.21 245.67 510.39 245.67 510.39C245.67 510.39 197.52 555.29 181.25 561.79C181.25 561.79 173.44 576.1 197.52 581.96C221.6 587.82 226.8 579.36 239.16 594.32C251.52 609.28 279.5 607.32 297.07 605.38C314.64 603.44 344.89 590.74 344.89 590.74C344.89 590.74 317.89 442.74 325.04 429.05C331.81 416.12 349.65 391.55 301.96 359.73C292.47 353.43 279.45 356.1 273.64 365.92Z" fill="black"/>
<path d="M273.64 364.62C267.9 374.33 265.03 392.08 273 424.54C273 424.54 286 449.27 267.79 470.09C249.58 490.91 245.67 509.09 245.67 509.09C245.67 509.09 197.52 553.99 181.25 560.49C181.25 560.49 173.44 574.8 197.52 580.66C221.6 586.52 226.8 578.06 239.16 593.02C251.52 607.98 279.5 606.02 297.07 604.08C314.64 602.14 344.89 589.44 344.89 589.44C344.89 589.44 317.89 441.44 325.04 427.75C331.81 414.82 349.65 390.25 301.96 358.43C292.47 352.13 279.45 354.79 273.64 364.62Z" fill="#F0898B"/>
<path d="M293.17 402.42C305.387 402.42 315.29 392.517 315.29 380.3C315.29 368.083 305.387 358.18 293.17 358.18C280.953 358.18 271.05 368.083 271.05 380.3C271.05 392.517 280.953 402.42 293.17 402.42Z" fill="#A26565"/>
<path opacity="0.1" d="M285.36 389.4L280.81 457.72L295.81 530.6C295.81 530.6 282.15 578.75 295.81 574.19C309.47 569.63 310.12 529.95 310.12 529.95L300.98 453.85C300.98 453.85 312.04 396.59 310.09 384.85C308.14 373.11 285.36 389.4 285.36 389.4Z" fill="black"/>
<path d="M285.36 388.1L280.81 456.42L295.81 529.3C295.81 529.3 282.12 577.45 295.77 572.85C309.42 568.25 310.12 528.65 310.12 528.65L301.01 452.52C301.01 452.52 312.07 395.26 310.12 383.52C308.17 371.78 285.36 388.1 285.36 388.1Z" fill="#A26565"/>
<path opacity="0.03" d="M282.43 344.85C291.64 344.85 300.02 342.22 304.43 334.85C304.49 329.1 304.84 324.97 304.84 324.97L282.72 326.97C284.12 331.97 283.35 336.29 281.72 343.56C282.19 343.55 282.02 344.85 282.43 344.85Z" fill="black"/>
<path d="M282.76 345.82C296.777 345.82 308.14 334.457 308.14 320.44C308.14 306.423 296.777 295.06 282.76 295.06C268.743 295.06 257.38 306.423 257.38 320.44C257.38 334.457 268.743 345.82 282.76 345.82Z" fill="#A26565"/>
<path opacity="0.03" d="M310.41 418.36C310.41 418.36 312.41 428.12 325.05 429.1Z" fill="black"/>
<path opacity="0.03" d="M243.07 593.06C230.71 578.06 225.5 586.55 201.43 580.7C177.36 574.85 185.12 560.53 185.12 560.53C201.39 554.02 249.54 509.13 249.54 509.13C249.54 509.13 253.44 490.91 271.66 470.13C289.88 449.35 276.87 424.58 276.87 424.58C268.87 392.13 271.76 374.37 277.51 364.66C279.092 361.998 281.282 359.75 283.902 358.1C286.522 356.451 289.496 355.446 292.58 355.17C288.838 354.774 285.06 355.457 281.693 357.139C278.327 358.82 275.511 361.43 273.58 364.66C267.84 374.37 264.97 392.12 272.94 424.58C272.94 424.58 285.94 449.31 267.73 470.13C249.52 490.95 245.61 509.13 245.61 509.13C245.61 509.13 197.46 554.03 181.19 560.53C181.19 560.53 173.38 574.84 197.46 580.7C221.54 586.56 226.74 578.1 239.1 593.06C247.65 603.41 263.66 605.67 278.54 605.43C264.9 605.21 250.87 602.51 243.07 593.06Z" fill="black"/>
<path opacity="0.1" d="M291.97 349.85C291.15 348.03 289.4 346.85 288.08 345.34C283.79 340.47 284.53 333.17 284.28 326.68C284.026 320.481 282.64 314.38 280.19 308.68C281.725 307.919 283.121 306.904 284.32 305.68C286.395 303.468 287.807 300.717 288.396 297.742C288.985 294.767 288.726 291.686 287.65 288.85C284.598 290.745 281.082 291.762 277.49 291.79C274.21 291.79 270.98 291 267.7 290.79C262.158 290.4 256.622 291.634 251.77 294.34C251.09 294.27 250.41 294.19 249.77 294.08C236.96 292.14 228.06 308.45 215.24 315.13C206.24 319.82 202.61 330.76 201.24 340.8C199.87 350.84 199.66 361.52 194.44 370.21C190.86 376.15 182.85 379.58 181.35 386.35C178.42 399.55 181.67 396.29 184.92 413.86C186 419.67 187.39 421.99 188.76 427.73C190.24 433.93 188.6 440.4 188.38 446.73C187.67 467.65 204.72 487.68 225.49 490.31C224.904 497.934 221.773 505.139 216.6 510.77C225.2 513.59 234.71 510.33 242.29 505.38C254.568 497.261 263.53 485.01 267.55 470.85C272.66 452.71 269.14 433.43 268.33 414.6C267.52 395.77 270.49 374.83 284.81 362.6C288.8 359.16 294.12 354.66 291.97 349.85Z" fill="black"/>
<path d="M290.67 349.22C289.85 347.4 288.1 346.22 286.78 344.71C282.49 339.84 283.23 332.54 282.98 326.05C282.726 319.851 281.34 313.75 278.89 308.05C280.425 307.289 281.821 306.275 283.02 305.05C285.099 302.836 286.513 300.082 287.102 297.103C287.691 294.123 287.43 291.038 286.35 288.2C283.298 290.095 279.782 291.112 276.19 291.14C272.91 291.14 269.68 290.35 266.4 290.14C260.858 289.75 255.322 290.984 250.47 293.69C249.79 293.62 249.11 293.54 248.47 293.43C235.66 291.49 226.76 307.8 213.94 314.48C204.94 319.17 201.31 330.11 199.94 340.15C198.57 350.19 198.36 360.87 193.14 369.56C189.56 375.5 181.55 378.93 180.05 385.7C177.12 398.9 180.37 395.64 183.62 413.21C184.7 419.02 186.09 421.34 187.46 427.08C188.94 433.28 187.3 439.75 187.08 446.08C186.37 467 203.42 487.03 224.19 489.66C223.604 497.284 220.473 504.489 215.3 510.12C223.9 512.94 233.41 509.68 240.99 504.73C253.298 496.631 262.293 484.387 266.34 470.22C271.45 452.08 267.93 432.8 267.12 413.97C266.31 395.14 269.28 374.2 283.6 361.97C287.5 358.51 292.82 354.01 290.67 349.22Z" fill="#252223"/>
<path d="M203.7 715.71C203.7 715.71 206.95 724.17 213.46 726.77C213.46 726.77 229.73 730.67 219.32 734.58C212.32 737.19 197.01 731.96 187.56 728.2C186.669 727.832 185.88 727.254 185.26 726.517C184.639 725.779 184.206 724.902 183.996 723.962C183.786 723.021 183.806 722.043 184.053 721.112C184.301 720.18 184.77 719.322 185.42 718.61L188.73 715.06L203.7 715.71Z" fill="#333333"/>
<path d="M341.64 724.17C341.64 724.17 347.27 732.4 354.1 733.96C354.1 733.96 370.78 735.29 361.1 740.76C354.66 744.4 338.74 741.66 328.82 739.41C327.868 739.195 326.983 738.751 326.241 738.116C325.5 737.481 324.924 736.675 324.565 735.768C324.205 734.861 324.072 733.879 324.178 732.909C324.283 731.939 324.624 731.009 325.17 730.2L327.86 726.2L341.64 724.17Z" fill="#333333"/>
<path opacity="0.03" d="M244.04 508.85C244.04 508.85 259.04 517.31 275.92 516.66Z" fill="black"/>
<path opacity="0.3" d="M214.06 263.64H209.91L210.63 261.14H213.13L214.06 263.64Z" fill="#FF3DB0"/>
<path opacity="0.3" d="M229.12 237.35C229.12 246.85 221.4 260.85 211.88 260.85C202.36 260.85 194.64 246.85 194.64 237.38C194.64 232.808 196.456 228.423 199.689 225.189C202.923 221.956 207.308 220.14 211.88 220.14C216.452 220.14 220.837 221.956 224.071 225.189C227.304 228.423 229.12 232.808 229.12 237.38V237.35Z" fill="#FF3DB0"/>
<path opacity="0.2" d="M218.35 236.82H220.527V238.305H218.35V239.75H220.527V241.234H218.35V246H216.455L213.34 241.234H209.297V246H207.422V241.234H205.303V239.75H207.422V238.305H205.303V236.82H207.422V231.781H209.297L212.588 236.82H216.484V231.781H218.35V236.82ZM209.297 239.75H212.373L211.426 238.305H209.297V239.75ZM214.492 239.75H216.484V238.305H213.555L214.492 239.75ZM209.297 236.82H210.459L209.297 235.043V236.82ZM216.484 242.787V241.234H215.469L216.484 242.787Z" fill="black"/>
<path d="M213.13 261.25H210.63L209.18 260.42H214.58L213.13 261.25Z" fill="#535461"/>
<path opacity="0.1" d="M205.64 223.96C205.64 223.96 198.37 227.91 197.33 235.8Z" fill="white"/>
<path d="M212.31 260.78C211.211 261.993 210.397 263.435 209.926 265.003C209.456 266.57 209.341 268.223 209.59 269.84C210.5 275.28 215.03 280.72 214.12 287.06C213.21 293.4 210.49 297.06 210.49 299.75" stroke="#535461" stroke-width="0.75" stroke-miterlimit="10"/>
<path opacity="0.3" d="M662.22 318.23H658.06L658.79 315.73H661.28L662.22 318.23Z" fill="#FF3DB0"/>
<path opacity="0.3" d="M677.27 291.94C677.27 301.46 669.55 315.41 660.03 315.41C650.51 315.41 642.79 301.41 642.79 291.94C642.79 287.368 644.606 282.983 647.839 279.749C651.073 276.516 655.458 274.7 660.03 274.7C664.602 274.7 668.987 276.516 672.221 279.749C675.454 282.983 677.27 287.368 677.27 291.94V291.94Z" fill="#FF3DB0"/>
<path opacity="0.2" d="M665.35 291.82H667.527V293.305H665.35V294.75H667.527V296.234H665.35V301H663.455L660.34 296.234H656.297V301H654.422V296.234H652.303V294.75H654.422V293.305H652.303V291.82H654.422V286.781H656.297L659.588 291.82H663.484V286.781H665.35V291.82ZM656.297 294.75H659.373L658.426 293.305H656.297V294.75ZM661.492 294.75H663.484V293.305H660.555L661.492 294.75ZM656.297 291.82H657.459L656.297 290.043V291.82ZM663.484 297.787V296.234H662.469L663.484 297.787Z" fill="black"/>
<path d="M661.28 315.84H658.79L657.34 315.01H662.74L661.28 315.84Z" fill="#535461"/>
<path opacity="0.1" d="M653.8 278.55C653.8 278.55 646.53 282.5 645.49 290.39Z" fill="white"/>
<path d="M660.47 315.37C659.371 316.583 658.557 318.025 658.086 319.593C657.616 321.16 657.501 322.813 657.75 324.43C658.66 329.87 663.19 335.31 662.28 341.65C661.37 347.99 658.65 351.65 658.65 354.34" stroke="#535461" stroke-width="0.75" stroke-miterlimit="10"/>
<path opacity="0.3" d="M739.7 288.48L735.63 287.62L736.86 285.33L739.3 285.85L739.7 288.48Z" fill="#FF3DB0"/>
<path opacity="0.3" d="M759.87 265.85C757.87 275.17 747.46 287.22 738.14 285.25C728.82 283.28 724.14 268.03 726.14 258.72C727.148 254.31 729.849 250.474 733.66 248.037C737.471 245.6 742.086 244.759 746.512 245.695C750.937 246.63 754.818 249.267 757.317 253.038C759.816 256.808 760.733 261.41 759.87 265.85Z" fill="#FF3DB0"/>
<path opacity="0.2" d="M748.35 262.82H750.527V264.305H748.35V265.75H750.527V267.234H748.35V272H746.455L743.34 267.234H739.297V272H737.422V267.234H735.303V265.75H737.422V264.305H735.303V262.82H737.422V257.781H739.297L742.588 262.82H746.484V257.781H748.35V262.82ZM739.297 265.75H742.373L741.426 264.305H739.297V265.75ZM744.492 265.75H746.484V264.305H743.555L744.492 265.75ZM739.297 262.82H740.459L739.297 261.043V262.82ZM746.484 268.787V267.234H745.469L746.484 268.787Z" fill="black"/>
<path d="M739.28 285.95L736.84 285.44L735.59 284.32L740.87 285.44L739.28 285.95Z" fill="#535461"/>
<path opacity="0.1" d="M739.68 247.92C739.68 247.92 731.75 250.28 729.1 257.78Z" fill="white"/>
<path d="M738.58 285.32C737.253 286.279 736.158 287.521 735.372 288.957C734.587 290.393 734.132 291.986 734.04 293.62C733.8 299.13 737.11 305.39 734.91 311.41C732.71 317.43 729.3 320.41 728.74 323.07" stroke="#535461" stroke-width="0.75" stroke-miterlimit="10"/>
<path opacity="0.2" d="M371.037 89.3457H375.937V92.6855H371.037V95.9375H375.937V99.2773H371.037V110H366.774L359.765 99.2773H350.668V110H346.449V99.2773H341.681V95.9375H346.449V92.6855H341.681V89.3457H346.449V78.0078H350.668L358.073 89.3457H366.84V78.0078H371.037V89.3457ZM350.668 95.9375H357.589L355.458 92.6855H350.668V95.9375ZM362.357 95.9375H366.84V92.6855H360.248L362.357 95.9375ZM350.668 89.3457H353.283L350.668 85.3467V89.3457ZM366.84 102.771V99.2773H364.555L366.84 102.771Z" fill="black"/>
<path opacity="0.2" d="M318.039 40.9688H323.266V44.5312H318.039V48H323.266V51.5625H318.039V63H313.492L306.016 51.5625H296.312V63H291.812V51.5625H286.727V48H291.812V44.5312H286.727V40.9688H291.812V28.875H296.312L304.211 40.9688H313.562V28.875H318.039V40.9688ZM296.312 48H303.695L301.422 44.5312H296.312V48ZM308.781 48H313.562V44.5312H306.531L308.781 48ZM296.312 40.9688H299.102L296.312 36.7031V40.9688ZM313.562 55.2891V51.5625H311.125L313.562 55.2891Z" fill="black"/>
</g>
<defs>
<linearGradient id="paint0_linear" x1="305.38" y1="152.2" x2="305.38" y2="9.26267e-06" gradientUnits="userSpaceOnUse">
<stop stop-color="#808080" stop-opacity="0.25"/>
<stop offset="0.54" stop-color="#808080" stop-opacity="0.12"/>
<stop offset="1" stop-color="#808080" stop-opacity="0.1"/>
</linearGradient>
<linearGradient id="paint1_linear" x1="93979.9" y1="443222" x2="93979.9" y2="141060" gradientUnits="userSpaceOnUse">
<stop stop-color="#808080" stop-opacity="0.25"/>
<stop offset="0.54" stop-color="#808080" stop-opacity="0.12"/>
<stop offset="1" stop-color="#808080" stop-opacity="0.1"/>
</linearGradient>
<clipPath id="clip0">
<rect width="760.25" height="785.71" fill="white"/>
</clipPath>
</defs>
</svg>
