<svg width="1646" height="1354" viewBox="0 0 1646 1354" fill="none" xmlns="http://www.w3.org/2000/svg">
<g clip-path="url(#clip0)">
<path opacity="0.1" d="M1292.52 1179.07C1281.86 1184.39 1270.7 1188.99 1259.68 1193.57C1218.98 1210.22 1177.66 1227.02 1133.94 1232.74C1051.88 1243.45 967.129 1214.43 886.462 1232.49C818.878 1247.6 762.985 1293.92 696.957 1314.55C666.257 1324.13 634.313 1327.89 602.085 1327.89H597.864C593.873 1327.84 589.911 1327.75 585.979 1327.6C553.302 1326.41 520.491 1321.73 488.458 1315.74C387.314 1296.88 284.374 1262.31 207.045 1198.68C432.205 1158.76 896.012 1097.56 1292.52 1179.07Z" fill="#252223"/>
<path d="M993.384 1183.53C993.384 1183.53 956.456 1062.03 1000.31 972.652C1018.73 935.127 1024.83 892.988 1016.33 852.257C1012.27 832.918 1006.38 813.982 998.743 795.686" stroke="#535461" stroke-width="2" stroke-miterlimit="10"/>
<path d="M1025.97 739.201C1025.97 754.098 998.144 797.223 998.144 797.223C998.144 797.223 970.317 754.04 970.317 739.201C970.231 735.608 970.887 732.035 972.246 728.692C973.606 725.348 975.641 722.301 978.233 719.731C980.825 717.16 983.921 715.118 987.339 713.723C990.757 712.329 994.428 711.61 998.136 711.61C1001.85 711.61 1005.52 712.329 1008.93 713.723C1012.35 715.118 1015.45 717.16 1018.04 719.731C1020.63 722.301 1022.67 725.348 1024.03 728.692C1025.39 732.035 1026.04 735.608 1025.96 739.201H1025.97Z" fill="#FF3DB0"/>
<path d="M1072.01 821.679C1063.66 834.183 1016.09 855.767 1016.09 855.767C1016.09 855.767 1016.96 804.868 1025.31 792.364C1029.41 786.557 1035.69 782.531 1042.8 781.146C1049.92 779.76 1057.31 781.124 1063.41 784.947C1069.5 788.77 1073.81 794.749 1075.42 801.609C1077.03 808.469 1075.81 815.666 1072.01 821.665V821.679Z" fill="#FF3DB0"/>
<path d="M1069.99 962.629C1056.27 969.331 1003.97 964.703 1003.97 964.703C1003.97 964.703 1031.22 921.187 1044.95 914.485C1048.22 912.807 1051.8 911.777 1055.49 911.457C1059.18 911.137 1062.89 911.533 1066.42 912.621C1069.95 913.709 1073.21 915.468 1076.03 917.795C1078.84 920.122 1081.15 922.97 1082.82 926.172C1084.49 929.374 1085.48 932.866 1085.73 936.444C1085.99 940.022 1085.51 943.613 1084.32 947.008C1083.12 950.403 1081.24 953.533 1078.79 956.215C1076.33 958.898 1073.35 961.078 1070.01 962.629H1069.99Z" fill="#FF3DB0"/>
<path d="M1043.69 1068.94C1031.34 1077.79 978.969 1081.79 978.969 1081.79C978.969 1081.79 998.249 1034.45 1010.6 1025.58C1013.53 1023.44 1016.88 1021.89 1020.44 1021.01C1023.99 1020.13 1027.7 1019.94 1031.33 1020.45C1034.97 1020.96 1038.46 1022.17 1041.61 1023.99C1044.76 1025.82 1047.51 1028.24 1049.7 1031.1C1051.88 1033.96 1053.46 1037.21 1054.34 1040.67C1055.22 1044.12 1055.39 1047.71 1054.83 1051.23C1054.27 1054.75 1053 1058.12 1051.09 1061.16C1049.18 1064.2 1046.66 1066.85 1043.69 1068.94V1068.94Z" fill="#FF3DB0"/>
<path d="M957.668 858.654C968.685 869.025 1019.98 879.817 1019.98 879.817C1019.98 879.817 1007.41 830.397 996.393 820.011C991.062 815.227 984.013 812.653 976.75 812.839C969.487 813.025 962.588 815.956 957.525 821.005C952.463 826.055 949.639 832.823 949.657 839.864C949.676 846.904 952.535 853.658 957.623 858.683L957.668 858.654Z" fill="#FF3DB0"/>
<path d="M928.539 983.357C942.265 990.059 994.566 985.432 994.566 985.432C994.566 985.432 967.308 941.915 953.582 935.214C950.311 933.535 946.728 932.506 943.042 932.186C939.356 931.865 935.641 932.261 932.114 933.349C928.588 934.438 925.321 936.197 922.504 938.523C919.688 940.85 917.379 943.698 915.712 946.9C914.046 950.102 913.055 953.594 912.798 957.172C912.541 960.75 913.024 964.341 914.217 967.736C915.41 971.131 917.29 974.261 919.746 976.944C922.203 979.626 925.187 981.806 928.524 983.357H928.539Z" fill="#FF3DB0"/>
<path d="M917.387 1108.34C929.737 1117.18 982.112 1121.19 982.112 1121.19C982.112 1121.19 962.833 1073.84 950.483 1064.98C947.548 1062.84 944.205 1061.28 940.646 1060.4C937.087 1059.52 933.384 1059.33 929.749 1059.85C926.114 1060.36 922.62 1061.56 919.469 1063.39C916.317 1065.22 913.569 1067.63 911.385 1070.49C909.201 1073.36 907.623 1076.61 906.742 1080.06C905.861 1083.52 905.695 1087.11 906.253 1090.63C906.811 1094.14 908.082 1097.52 909.993 1100.56C911.904 1103.6 914.417 1106.24 917.387 1108.34V1108.34Z" fill="#FF3DB0"/>
<path opacity="0.25" d="M1025.97 739.201C1025.97 754.098 998.144 797.223 998.144 797.223C998.144 797.223 970.317 754.04 970.317 739.201C970.231 735.608 970.887 732.035 972.246 728.692C973.606 725.348 975.641 722.301 978.233 719.731C980.825 717.16 983.921 715.118 987.339 713.723C990.757 712.329 994.428 711.61 998.136 711.61C1001.85 711.61 1005.52 712.329 1008.93 713.723C1012.35 715.118 1015.45 717.16 1018.04 719.731C1020.63 722.301 1022.67 725.348 1024.03 728.692C1025.39 732.035 1026.04 735.608 1025.96 739.201H1025.97Z" fill="black"/>
<path opacity="0.25" d="M1072.01 821.679C1063.66 834.183 1016.09 855.767 1016.09 855.767C1016.09 855.767 1016.96 804.868 1025.31 792.364C1029.41 786.557 1035.69 782.531 1042.8 781.146C1049.92 779.76 1057.31 781.124 1063.41 784.947C1069.5 788.77 1073.81 794.749 1075.42 801.609C1077.03 808.469 1075.81 815.666 1072.01 821.665V821.679Z" fill="black"/>
<path opacity="0.25" d="M1069.99 962.629C1056.27 969.331 1003.97 964.703 1003.97 964.703C1003.97 964.703 1031.22 921.187 1044.95 914.485C1048.22 912.807 1051.8 911.777 1055.49 911.457C1059.18 911.137 1062.89 911.533 1066.42 912.621C1069.95 913.709 1073.21 915.468 1076.03 917.795C1078.84 920.122 1081.15 922.97 1082.82 926.172C1084.49 929.374 1085.48 932.866 1085.73 936.444C1085.99 940.022 1085.51 943.613 1084.32 947.008C1083.12 950.403 1081.24 953.533 1078.79 956.215C1076.33 958.898 1073.35 961.078 1070.01 962.629H1069.99Z" fill="black"/>
<path opacity="0.25" d="M1043.69 1068.94C1031.34 1077.79 978.969 1081.79 978.969 1081.79C978.969 1081.79 998.249 1034.45 1010.6 1025.58C1013.53 1023.44 1016.88 1021.89 1020.44 1021.01C1023.99 1020.13 1027.7 1019.94 1031.33 1020.45C1034.97 1020.96 1038.46 1022.17 1041.61 1023.99C1044.76 1025.82 1047.51 1028.24 1049.7 1031.1C1051.88 1033.96 1053.46 1037.21 1054.34 1040.67C1055.22 1044.12 1055.39 1047.71 1054.83 1051.23C1054.27 1054.75 1053 1058.12 1051.09 1061.16C1049.18 1064.2 1046.66 1066.85 1043.69 1068.94V1068.94Z" fill="black"/>
<path opacity="0.25" d="M957.668 858.654C968.685 869.025 1019.98 879.817 1019.98 879.817C1019.98 879.817 1007.41 830.397 996.393 820.011C991.062 815.227 984.013 812.653 976.75 812.839C969.487 813.025 962.588 815.956 957.525 821.005C952.463 826.055 949.639 832.823 949.657 839.864C949.676 846.904 952.535 853.658 957.623 858.683L957.668 858.654Z" fill="black"/>
<path opacity="0.25" d="M928.539 983.357C942.265 990.059 994.566 985.432 994.566 985.432C994.566 985.432 967.308 941.915 953.582 935.214C950.311 933.535 946.728 932.506 943.042 932.186C939.356 931.865 935.641 932.261 932.114 933.349C928.588 934.438 925.321 936.197 922.504 938.523C919.688 940.85 917.379 943.698 915.712 946.9C914.046 950.102 913.055 953.594 912.798 957.172C912.541 960.75 913.024 964.341 914.217 967.736C915.41 971.131 917.29 974.261 919.746 976.944C922.203 979.626 925.187 981.806 928.524 983.357H928.539Z" fill="black"/>
<path opacity="0.25" d="M917.387 1108.34C929.737 1117.18 982.112 1121.19 982.112 1121.19C982.112 1121.19 962.833 1073.84 950.483 1064.98C947.548 1062.84 944.205 1061.28 940.646 1060.4C937.087 1059.52 933.384 1059.33 929.749 1059.85C926.114 1060.36 922.62 1061.56 919.469 1063.39C916.317 1065.22 913.569 1067.63 911.385 1070.49C909.201 1073.36 907.623 1076.61 906.742 1080.06C905.861 1083.52 905.695 1087.11 906.253 1090.63C906.811 1094.14 908.082 1097.52 909.993 1100.56C911.904 1103.6 914.417 1106.24 917.387 1108.34V1108.34Z" fill="black"/>
<path d="M351.299 1226.14C351.299 1226.14 314.371 1104.65 358.229 1015.21C376.641 977.686 382.748 935.547 374.246 894.816C370.18 875.477 364.293 856.541 356.658 838.245" stroke="#535461" stroke-width="2" stroke-miterlimit="10"/>
<path d="M383.946 781.804C383.946 796.701 356.119 839.826 356.119 839.826C356.119 839.826 328.292 796.643 328.292 781.804C328.206 778.211 328.862 774.638 330.221 771.294C331.581 767.95 333.616 764.904 336.208 762.333C338.8 759.763 341.895 757.72 345.313 756.326C348.731 754.931 352.403 754.213 356.111 754.213C359.82 754.213 363.491 754.931 366.909 756.326C370.327 757.72 373.423 759.763 376.015 762.333C378.607 764.904 380.642 767.95 382.001 771.294C383.361 774.638 384.017 778.211 383.931 781.804H383.946Z" fill="#FF3DB0"/>
<path d="M429.93 864.282C421.577 876.786 374.006 898.37 374.006 898.37C374.006 898.37 374.875 847.47 383.227 834.966C385.166 831.898 387.719 829.236 390.736 827.139C393.753 825.041 397.173 823.55 400.794 822.753C404.415 821.956 408.163 821.869 411.819 822.497C415.475 823.126 418.965 824.457 422.082 826.413C425.198 828.368 427.88 830.908 429.968 833.884C432.056 836.859 433.509 840.209 434.24 843.737C434.972 847.265 434.967 850.898 434.227 854.424C433.486 857.95 432.025 861.297 429.93 864.267V864.282Z" fill="#FF3DB0"/>
<path d="M427.924 1005.23C414.198 1011.93 361.897 1007.31 361.897 1007.31C361.897 1007.31 389.155 963.789 402.881 957.088C409.449 954.035 416.99 953.6 423.885 955.875C430.781 958.151 436.48 962.956 439.761 969.258C443.041 975.561 443.64 982.858 441.43 989.584C439.22 996.31 434.376 1001.93 427.939 1005.23H427.924Z" fill="#FF3DB0"/>
<path d="M401.624 1111.54C389.275 1120.39 336.899 1124.39 336.899 1124.39C336.899 1124.39 356.179 1077.05 368.528 1068.19C374.465 1064 381.868 1062.26 389.125 1063.34C396.381 1064.42 402.903 1068.24 407.269 1073.96C411.635 1079.68 413.491 1086.84 412.434 1093.88C411.377 1100.92 407.491 1107.27 401.624 1111.54V1111.54Z" fill="#FF3DB0"/>
<path d="M315.583 901.256C326.6 911.628 377.958 922.376 377.958 922.376C377.958 922.376 365.384 872.956 354.367 862.57C349.037 857.786 341.988 855.212 334.725 855.398C327.462 855.584 320.562 858.515 315.5 863.564C310.438 868.614 307.614 875.382 307.632 882.423C307.651 889.463 310.51 896.217 315.598 901.242L315.583 901.256Z" fill="#FF3DB0"/>
<path d="M286.514 1025.96C300.24 1032.66 352.541 1028.03 352.541 1028.03C352.541 1028.03 325.283 984.518 311.557 977.816C304.995 974.81 297.48 974.407 290.616 976.694C283.752 978.981 278.082 983.776 274.815 990.057C271.548 996.338 270.943 1003.61 273.128 1010.31C275.314 1017.02 280.117 1022.64 286.514 1025.96V1025.96Z" fill="#FF3DB0"/>
<path d="M275.302 1150.94C287.652 1159.79 340.027 1163.79 340.027 1163.79C340.027 1163.79 320.748 1116.44 308.398 1107.55C302.461 1103.37 295.058 1101.63 287.802 1102.71C280.545 1103.79 274.024 1107.6 269.658 1113.32C265.292 1119.04 263.435 1126.2 264.492 1133.24C265.55 1140.28 269.435 1146.63 275.302 1150.91V1150.94Z" fill="#FF3DB0"/>
<path opacity="0.25" d="M383.946 781.804C383.946 796.701 356.119 839.826 356.119 839.826C356.119 839.826 328.292 796.643 328.292 781.804C328.206 778.211 328.862 774.638 330.221 771.294C331.581 767.95 333.616 764.904 336.208 762.333C338.8 759.763 341.895 757.72 345.313 756.326C348.731 754.931 352.403 754.213 356.111 754.213C359.82 754.213 363.491 754.931 366.909 756.326C370.327 757.72 373.423 759.763 376.015 762.333C378.607 764.904 380.642 767.95 382.001 771.294C383.361 774.638 384.017 778.211 383.931 781.804H383.946Z" fill="black"/>
<path opacity="0.25" d="M429.93 864.282C421.577 876.786 374.006 898.37 374.006 898.37C374.006 898.37 374.875 847.47 383.227 834.966C385.166 831.898 387.719 829.236 390.736 827.139C393.753 825.041 397.173 823.55 400.794 822.753C404.415 821.956 408.163 821.869 411.819 822.497C415.475 823.126 418.965 824.457 422.082 826.413C425.198 828.368 427.88 830.908 429.968 833.884C432.056 836.859 433.509 840.209 434.24 843.737C434.972 847.265 434.967 850.898 434.227 854.424C433.486 857.95 432.025 861.297 429.93 864.267V864.282Z" fill="black"/>
<path opacity="0.25" d="M427.924 1005.23C414.198 1011.93 361.897 1007.31 361.897 1007.31C361.897 1007.31 389.155 963.789 402.881 957.088C409.449 954.035 416.99 953.6 423.885 955.875C430.781 958.151 436.48 962.956 439.761 969.258C443.041 975.561 443.64 982.858 441.43 989.584C439.22 996.31 434.376 1001.93 427.939 1005.23H427.924Z" fill="black"/>
<path opacity="0.25" d="M401.624 1111.54C389.275 1120.39 336.899 1124.39 336.899 1124.39C336.899 1124.39 356.179 1077.05 368.528 1068.19C374.465 1064 381.868 1062.26 389.125 1063.34C396.381 1064.42 402.903 1068.24 407.269 1073.96C411.635 1079.68 413.491 1086.84 412.434 1093.88C411.377 1100.92 407.491 1107.27 401.624 1111.54V1111.54Z" fill="black"/>
<path opacity="0.25" d="M315.583 901.256C326.6 911.628 377.958 922.376 377.958 922.376C377.958 922.376 365.384 872.956 354.367 862.57C349.037 857.786 341.988 855.212 334.725 855.398C327.462 855.584 320.562 858.515 315.5 863.564C310.438 868.614 307.614 875.382 307.632 882.423C307.651 889.463 310.51 896.217 315.598 901.242L315.583 901.256Z" fill="black"/>
<path opacity="0.25" d="M286.514 1025.96C300.24 1032.66 352.541 1028.03 352.541 1028.03C352.541 1028.03 325.283 984.518 311.557 977.816C304.995 974.81 297.48 974.407 290.616 976.694C283.752 978.981 278.082 983.776 274.815 990.057C271.548 996.338 270.943 1003.61 273.128 1010.31C275.314 1017.02 280.117 1022.64 286.514 1025.96V1025.96Z" fill="black"/>
<path opacity="0.25" d="M275.302 1150.94C287.652 1159.79 340.027 1163.79 340.027 1163.79C340.027 1163.79 320.748 1116.44 308.398 1107.55C302.461 1103.37 295.058 1101.63 287.802 1102.71C280.545 1103.79 274.024 1107.6 269.658 1113.32C265.292 1119.04 263.435 1126.2 264.492 1133.24C265.55 1140.28 269.435 1146.63 275.302 1150.91V1150.94Z" fill="black"/>
<path d="M802.847 1146.51C802.847 1146.51 782.848 1080.73 806.589 1032.33C816.678 1012.08 819.72 989.216 815.256 967.155C813.053 956.697 809.866 946.457 805.735 936.563" stroke="#535461" stroke-width="2" stroke-miterlimit="10"/>
<path d="M820.51 905.927C820.51 913.992 805.451 937.36 805.451 937.36C805.451 937.36 790.392 914.021 790.392 905.927C790.392 904.01 790.782 902.111 791.539 900.34C792.296 898.569 793.406 896.959 794.805 895.604C796.204 894.248 797.865 893.172 799.693 892.439C801.521 891.705 803.48 891.327 805.458 891.327C807.437 891.327 809.396 891.705 811.224 892.439C813.052 893.172 814.713 894.248 816.112 895.604C817.511 896.959 818.621 898.569 819.378 900.34C820.135 902.111 820.525 904.01 820.525 905.927H820.51Z" fill="#FF3DB0"/>
<path d="M845.418 950.618C840.927 957.378 815.136 969.069 815.136 969.069C815.136 969.069 815.6 941.509 820.12 934.749C822.292 931.501 825.706 929.221 829.613 928.411C833.519 927.602 837.597 928.33 840.949 930.434C844.302 932.538 846.655 935.847 847.49 939.632C848.325 943.418 847.574 947.37 845.403 950.618H845.418Z" fill="#FF3DB0"/>
<path d="M844.325 1026.92C836.841 1030.54 808.58 1028.03 808.58 1028.03C808.58 1028.03 823.339 1004.48 830.763 1000.85C834.336 999.108 838.477 998.812 842.275 1000.03C846.073 1001.24 849.218 1003.87 851.016 1007.33C852.814 1010.8 853.12 1014.81 851.865 1018.49C850.61 1022.17 847.898 1025.22 844.325 1026.96V1026.92Z" fill="#FF3DB0"/>
<path d="M830.09 1084.47C823.399 1089.26 795.048 1091.44 795.048 1091.44C795.048 1091.44 805.526 1065.81 812.172 1060.98C815.384 1058.67 819.41 1057.69 823.365 1058.26C827.321 1058.83 830.881 1060.9 833.263 1064.01C835.645 1067.12 836.654 1071.02 836.067 1074.85C835.48 1078.69 833.346 1082.14 830.134 1084.45L830.09 1084.47Z" fill="#FF3DB0"/>
<path d="M783.477 970.636C789.464 976.25 817.246 982.066 817.246 982.066C817.246 982.066 810.421 955.246 804.433 949.69C801.543 947.119 797.733 945.743 793.812 945.854C789.891 945.964 786.169 947.553 783.438 950.282C780.708 953.012 779.184 956.665 779.191 960.467C779.198 964.268 780.736 967.917 783.477 970.636V970.636Z" fill="#FF3DB0"/>
<path d="M767.745 1038.14C775.229 1041.77 803.49 1039.26 803.49 1039.26C803.49 1039.26 788.731 1015.7 781.306 1012.08C777.733 1010.34 773.592 1010.04 769.794 1011.26C765.996 1012.47 762.852 1015.1 761.054 1018.56C759.255 1022.02 758.95 1026.04 760.205 1029.72C761.459 1033.4 764.172 1036.45 767.745 1038.19V1038.14Z" fill="#FF3DB0"/>
<path d="M761.697 1105.81C768.388 1110.6 796.739 1112.77 796.739 1112.77C796.739 1112.77 786.261 1087.14 779.615 1082.31C778.025 1081.17 776.218 1080.34 774.297 1079.88C772.377 1079.41 770.38 1079.31 768.421 1079.6C764.466 1080.17 760.906 1082.23 758.524 1085.35C756.142 1088.46 755.133 1092.36 755.72 1096.19C756.307 1100.03 758.441 1103.48 761.652 1105.78L761.697 1105.81Z" fill="#FF3DB0"/>
<path opacity="0.5" d="M820.51 905.927C820.51 913.992 805.451 937.36 805.451 937.36C805.451 937.36 790.392 914.021 790.392 905.927C790.392 904.01 790.782 902.111 791.539 900.34C792.296 898.569 793.406 896.959 794.805 895.604C796.204 894.248 797.865 893.172 799.693 892.439C801.521 891.705 803.48 891.327 805.458 891.327C807.437 891.327 809.396 891.705 811.224 892.439C813.052 893.172 814.713 894.248 816.112 895.604C817.511 896.959 818.621 898.569 819.378 900.34C820.135 902.111 820.525 904.01 820.525 905.927H820.51Z" fill="white"/>
<path opacity="0.5" d="M845.418 950.618C840.927 957.378 815.136 969.069 815.136 969.069C815.136 969.069 815.6 941.509 820.12 934.749C822.292 931.501 825.706 929.221 829.613 928.411C833.519 927.602 837.597 928.33 840.949 930.434C844.302 932.538 846.655 935.847 847.49 939.632C848.325 943.418 847.574 947.37 845.403 950.618H845.418Z" fill="white"/>
<path opacity="0.5" d="M844.325 1026.92C836.841 1030.54 808.58 1028.03 808.58 1028.03C808.58 1028.03 823.339 1004.48 830.763 1000.85C834.336 999.108 838.477 998.812 842.275 1000.03C846.073 1001.24 849.218 1003.87 851.016 1007.33C852.814 1010.8 853.12 1014.81 851.865 1018.49C850.61 1022.17 847.898 1025.22 844.325 1026.96V1026.92Z" fill="white"/>
<path opacity="0.5" d="M830.09 1084.47C823.399 1089.26 795.048 1091.44 795.048 1091.44C795.048 1091.44 805.526 1065.81 812.172 1060.98C815.384 1058.67 819.41 1057.69 823.365 1058.26C827.321 1058.83 830.881 1060.9 833.263 1064.01C835.645 1067.12 836.654 1071.02 836.067 1074.85C835.48 1078.69 833.346 1082.14 830.134 1084.45L830.09 1084.47Z" fill="white"/>
<path opacity="0.5" d="M783.477 970.636C789.464 976.25 817.246 982.066 817.246 982.066C817.246 982.066 810.421 955.246 804.433 949.69C801.543 947.119 797.733 945.743 793.812 945.854C789.891 945.964 786.169 947.553 783.438 950.282C780.708 953.012 779.184 956.665 779.191 960.467C779.198 964.268 780.736 967.917 783.477 970.636V970.636Z" fill="white"/>
<path opacity="0.5" d="M767.745 1038.14C775.229 1041.77 803.49 1039.26 803.49 1039.26C803.49 1039.26 788.731 1015.7 781.306 1012.08C777.733 1010.34 773.592 1010.04 769.794 1011.26C765.996 1012.47 762.852 1015.1 761.054 1018.56C759.255 1022.02 758.95 1026.04 760.205 1029.72C761.459 1033.4 764.172 1036.45 767.745 1038.19V1038.14Z" fill="white"/>
<path opacity="0.5" d="M761.697 1105.81C768.388 1110.6 796.739 1112.77 796.739 1112.77C796.739 1112.77 786.261 1087.14 779.615 1082.31C778.025 1081.17 776.218 1080.34 774.297 1079.88C772.377 1079.41 770.38 1079.31 768.421 1079.6C764.466 1080.17 760.906 1082.23 758.524 1085.35C756.142 1088.46 755.133 1092.36 755.72 1096.19C756.307 1100.03 758.441 1103.48 761.652 1105.78L761.697 1105.81Z" fill="white"/>
<path d="M665.059 335.717V498.454L742.777 401.616" stroke="#535461" stroke-width="2" stroke-miterlimit="10"/>
<path d="M585.949 386.82L665.059 498.454" stroke="#535461" stroke-width="2" stroke-miterlimit="10"/>
<g opacity="0.7">
<path opacity="0.7" d="M808.011 316.585C808.004 307.026 805.664 297.604 801.182 289.088C796.699 280.573 790.202 273.206 782.221 267.589C774.239 261.972 764.999 258.264 755.256 256.769C745.514 255.273 735.544 256.032 726.162 258.983C726.677 255.578 726.942 252.141 726.955 248.699C726.944 233.018 720.658 217.952 709.419 206.67C698.18 195.388 682.864 188.769 666.692 188.205C650.521 187.642 634.754 193.177 622.707 203.648C610.661 214.118 603.274 228.707 602.1 244.347C592.715 241.387 582.741 240.622 572.992 242.114C563.243 243.605 553.997 247.312 546.01 252.93C538.022 258.548 531.521 265.918 527.036 274.438C522.551 282.957 520.211 292.384 520.206 301.949C520.206 332.41 543.303 375.564 573.42 383.179L578.105 385.776L575.561 394.218H590.619L587.386 385.79L592.041 383.208C615.303 377.29 634.388 350.136 641.857 324.084C645.948 326.725 650.452 328.709 655.195 329.959L659.88 332.555L657.335 340.997H672.394L669.116 332.541L673.771 329.959C677.237 329.059 680.575 327.749 683.71 326.057C687.737 355.285 709.157 390.954 736.236 397.844L740.921 400.441L738.376 408.883H753.435L750.156 400.426L754.812 397.844C784.974 390.2 808.011 346.974 808.011 316.585Z" fill="url(#paint0_linear)"/>
</g>
<path d="M592.999 391.157H578.435L580.98 382.686H589.721L592.999 391.157Z" fill="#FF3DB0"/>
<path d="M645.764 301.833C645.764 334.209 618.686 381.613 585.276 381.613C551.865 381.613 524.787 334.18 524.787 301.833C525.037 286.448 531.519 271.776 542.834 260.982C554.149 250.188 569.39 244.138 585.268 244.138C601.146 244.138 616.387 250.188 627.702 260.982C639.018 271.776 645.5 286.448 645.749 301.833H645.764Z" fill="#FF3DB0"/>
<path opacity="0.2" d="M645.764 301.833C645.764 334.209 618.686 381.613 585.276 381.613C551.865 381.613 524.787 334.18 524.787 301.833C525.037 286.448 531.519 271.776 542.834 260.982C554.149 250.188 569.39 244.138 585.268 244.138C601.146 244.138 616.387 250.188 627.702 260.982C639.018 271.776 645.5 286.448 645.749 301.833H645.764Z" fill="white"/>
<path opacity="0.2" d="M582.815 297.953H587.715V301.293H582.815V304.545H587.715V307.885H582.815V318.608H578.552L571.543 307.885H562.446V318.608H558.228V307.885H553.46V304.545H558.228V301.293H553.46V297.953H558.228V286.615H562.446L569.851 297.953H578.618V286.615H582.815V297.953ZM562.446 304.545H569.368L567.236 301.293H562.446V304.545ZM574.136 304.545H578.618V301.293H572.026L574.136 304.545ZM562.446 297.953H565.061L562.446 293.954V297.953ZM578.618 311.379V307.885H576.333L578.618 311.379Z" fill="black"/>
<path d="M589.721 383.049H580.979L575.875 380.22H594.826L589.721 383.049Z" fill="#535461"/>
<path opacity="0.1" d="M563.436 256.271C563.436 256.271 537.989 269.688 534.292 296.524Z" fill="white"/>
<path d="M672.094 339.634H657.53L660.074 331.163H668.816L672.094 339.634Z" fill="#FF3DB0"/>
<path opacity="0.07" d="M672.094 339.634H657.53L660.074 331.163H668.816L672.094 339.634Z" fill="black"/>
<path d="M724.934 250.28C724.934 282.656 697.856 330.06 664.445 330.06C631.035 330.06 603.957 282.627 603.957 250.28C604.206 234.896 610.688 220.223 622.004 209.429C633.319 198.635 648.56 192.586 664.438 192.586C680.316 192.586 695.557 198.635 706.872 209.429C718.187 220.223 724.669 234.896 724.919 250.28H724.934Z" fill="#FF3DB0"/>
<path d="M668.816 331.511H660.074L654.97 328.697H673.921L668.816 331.511Z" fill="#535461"/>
<path opacity="0.1" d="M642.576 204.747C642.576 204.747 617.129 218.165 613.432 245Z" fill="white"/>
<path d="M750.531 405.329H735.951L738.511 396.858H747.253L750.531 405.329Z" fill="#FF3DB0"/>
<path d="M803.355 315.99C803.355 348.366 776.277 395.77 742.867 395.77C709.456 395.77 682.378 348.337 682.378 315.99C682.628 300.605 689.11 285.933 700.425 275.139C711.74 264.345 726.981 258.295 742.859 258.295C758.737 258.295 773.978 264.345 785.293 275.139C796.609 285.933 803.091 300.605 803.34 315.99H803.355Z" fill="#FF3DB0"/>
<path opacity="0.2" d="M803.355 315.99C803.355 348.366 776.277 395.77 742.867 395.77C709.456 395.77 682.378 348.337 682.378 315.99C682.628 300.605 689.11 285.933 700.425 275.139C711.74 264.345 726.981 258.295 742.859 258.295C758.737 258.295 773.978 264.345 785.293 275.139C796.609 285.933 803.091 300.605 803.34 315.99H803.355Z" fill="white"/>
<path d="M747.253 397.22H738.511L733.406 394.392H752.357L747.253 397.22Z" fill="#535461"/>
<path opacity="0.1" d="M721.012 270.443C721.012 270.443 695.565 283.86 691.868 310.695Z" fill="white"/>
<path d="M739.933 1261.46C729.455 1259.14 720.848 1246.95 720.848 1246.95L719.994 1247.08L730.323 1114.2C730.323 1114.2 741.28 1094.89 730.323 1066.88C728.137 1061.31 726.087 1055.46 724.171 1049.68L725.832 1049.01L725.503 1047.21L725.832 1047.08C725.832 1047.08 693.964 877.83 693.664 822.738C693.664 816.08 694.278 811.323 695.505 809.045C700.535 799.747 709.546 786.373 709.172 769.677C709.501 753.373 701.074 733.776 670.852 711.655C673.262 693.088 679.204 653.996 689.533 627.524C689.533 627.524 693.515 610.117 689.533 584.007L683.545 510.624C683.545 510.624 684.548 476.826 662.589 476.826C640.63 476.826 663.592 514.541 663.592 514.541L661.601 610.132C661.601 610.132 660.943 615.078 659.82 622.853C654.536 617.057 647.537 612.98 639.777 611.176C640.086 607.682 639.574 604.166 638.28 600.892C637.831 601.167 637.367 601.414 636.903 601.661C636.723 601.08 636.514 600.5 636.289 599.934C631.616 602.741 626.235 604.247 620.737 604.286C615.707 604.286 610.767 603.111 605.768 602.748C597.284 602.171 588.811 604 581.384 608.014C580.351 607.912 579.303 607.782 578.255 607.637C558.646 604.736 545.01 628.96 525.371 638.867C511.599 645.815 506.031 662.076 503.875 676.958C501.72 691.841 501.465 707.695 493.397 720.605C487.919 729.425 475.659 734.516 473.354 744.554C468.863 764.136 473.848 759.306 478.833 785.372C480.479 793.989 482.62 797.426 484.715 805.955C486.991 815.152 484.476 824.813 484.132 834.212C483.263 858.973 499.699 882.878 522.526 893.525C528.276 896.473 534.477 898.506 540.893 899.545C539.864 910.615 535.103 921.049 527.346 929.237C528.11 929.484 528.843 929.687 529.652 929.861L529.337 930.195C542.51 934.372 557.059 929.542 568.675 922.202C572.062 920.053 575.297 917.689 578.36 915.124C576.562 919.222 575.1 923.451 573.989 927.772L573.899 927.859L571.504 927.294C571.504 927.294 572.193 927.671 573.435 928.28C566.819 934.227 501.9 992.293 476.947 1003.39C471.453 1003.51 453.491 1034.56 500.253 1045.59C537.121 1054.29 545.159 1041.73 564.02 1063.94C569.317 1069.88 576.145 1074.36 583.809 1076.92C578.42 1093.57 569.903 1114.47 560.023 1118.98C543.079 1126.71 515.117 1167.26 512.123 1181.75L487.095 1233.43H486.631L481.557 1238.7C480.546 1239.75 479.814 1241.02 479.425 1242.41C479.036 1243.79 479.001 1245.25 479.324 1246.65C479.647 1248.05 480.317 1249.36 481.278 1250.45C482.238 1251.54 483.459 1252.39 484.835 1252.93C499.295 1258.51 522.826 1266.26 533.469 1262.4C549.41 1256.6 524.487 1250.79 524.487 1250.79C514.518 1246.94 509.519 1234.37 509.519 1234.37L589.721 1146.02C589.721 1146.02 621.156 1134.21 627.577 1109.34C627.981 1107.76 632.712 1095.56 638.16 1081.68C643.25 1081.31 648.084 1080.83 652.485 1080.37C659.61 1079.6 668.053 1076.87 676.615 1073.28C681.809 1090.29 686.27 1108.74 684.369 1117.05C680.387 1134.46 675.387 1156.64 684.369 1185.61L699.816 1249.82H701.224L699.637 1250.05L695.52 1255.96C694.682 1257.16 694.159 1258.54 693.996 1259.98C693.834 1261.42 694.038 1262.88 694.59 1264.23C695.142 1265.57 696.025 1266.77 697.163 1267.71C698.301 1268.65 699.659 1269.31 701.119 1269.62C716.312 1272.96 740.681 1277.04 750.516 1271.62C765.514 1263.43 739.933 1261.46 739.933 1261.46ZM608.582 787.563C608.25 780.562 608.355 773.547 608.896 766.559C610.194 779.278 612.476 791.885 615.722 804.273C620.069 813.165 622.416 822.851 622.608 832.689C622.492 846.437 617.213 859.674 607.759 869.925L607.669 870.012C615.063 843.351 609.839 815.137 608.582 787.548V787.563Z" fill="url(#paint1_linear)"/>
<path d="M616.605 728.351C608.013 742.436 609.57 768.183 621.5 815.268C621.5 815.268 635.136 851.14 607.863 881.34C580.59 911.541 574.752 937.912 574.752 937.912C574.752 937.912 489.131 989.319 478.324 1012.47C494.4 978.019 441.62 1027.34 502.678 1041.73C538.708 1050.23 546.506 1037.96 565.008 1059.66C583.509 1081.36 625.392 1078.51 651.692 1075.7C677.992 1072.88 722.794 1042.67 722.794 1042.67C722.794 1042.67 673.127 839.753 683.875 819.924C694.009 801.169 730.458 765.529 659.057 719.372C644.791 710.234 625.302 714.092 616.605 728.351Z" fill="#F0898B"/>
<path opacity="0.1" d="M616.605 728.351C608.013 742.436 609.57 768.183 621.5 815.268C621.5 815.268 635.136 851.14 607.863 881.34C580.59 911.541 574.753 937.912 574.753 937.912C574.753 937.912 488.577 989.087 478.324 1012.47C493.427 978.019 441.62 1027.34 502.678 1041.73C538.708 1050.23 546.506 1037.96 565.008 1059.66C583.509 1081.36 625.392 1078.51 651.692 1075.7C677.992 1072.88 722.794 1042.67 722.794 1042.67C722.794 1042.67 673.127 839.753 683.875 819.924C694.009 801.169 730.458 765.529 659.057 719.372C644.791 710.234 625.302 714.092 616.605 728.351Z" fill="black"/>
<path d="M590.38 1051.21C590.38 1051.21 577.716 1105.96 561.161 1113.5C544.605 1121.04 517.332 1160.69 514.413 1174.84L489.58 1226.28H512.033L590.38 1139.94C590.38 1139.94 621.111 1128.34 627.398 1104.07C628.371 1100.3 654.671 1034.23 654.671 1034.23L590.38 1051.21Z" fill="#A26565"/>
<path d="M663.368 1034.23C663.368 1034.23 686.749 1094.63 682.827 1111.63C678.905 1128.63 674.055 1150.33 682.827 1178.64L697.93 1241.41L717.39 1240.47L727.613 1108.8C727.613 1108.8 738.331 1089.94 727.613 1062.56C716.896 1035.17 709.112 1001.21 709.112 1001.21L663.368 1034.23Z" fill="#A26565"/>
<path d="M668.217 725.595C668.217 725.595 674.055 668.023 687.677 633.094C687.677 633.094 691.569 616.108 687.677 590.622L681.839 518.892C681.839 518.892 682.812 485.863 661.392 485.863C639.971 485.863 662.365 522.678 662.365 522.678L660.419 616.122C660.419 616.122 647.755 711.452 638.998 721.838L668.217 725.595Z" fill="#FDB797"/>
<path opacity="0.9" d="M668.217 725.595C668.217 725.595 674.055 668.023 687.677 633.094C687.677 633.094 691.569 616.108 687.677 590.622L681.839 518.892C681.839 518.892 682.812 485.863 661.392 485.863C639.971 485.863 662.365 522.678 662.365 522.678L660.419 616.122C660.419 616.122 647.755 711.452 638.998 721.838L668.217 725.595Z" fill="#A26565"/>
<path d="M663.368 657.637C663.368 657.637 659.476 702.938 671.166 718.038C671.166 718.038 643.893 703.881 620.527 716.152C620.527 716.152 635.136 677.452 630.272 660.466L663.368 657.637Z" fill="#A26565"/>
<path opacity="0.1" d="M616.605 718.908C608.013 732.993 603.717 758.74 615.647 805.825C615.647 805.825 635.107 841.697 607.848 871.897C580.59 902.098 574.737 928.469 574.737 928.469C574.737 928.469 502.663 993.598 478.309 1003.03C478.309 1003.03 466.618 1023.78 502.663 1032.28C538.708 1040.78 546.491 1028.51 564.993 1050.21C583.494 1071.91 625.377 1069.07 651.677 1066.26C677.977 1063.44 723.258 1045.02 723.258 1045.02C723.258 1045.02 682.842 830.339 693.545 810.481C703.678 791.726 730.383 756.086 658.997 709.929C644.791 700.791 625.302 704.664 616.605 718.908Z" fill="black"/>
<path d="M616.605 717.022C608.013 731.107 603.717 756.854 615.647 803.939C615.647 803.939 635.107 839.811 607.848 870.012C580.59 900.212 574.737 926.583 574.737 926.583C574.737 926.583 502.663 991.712 478.309 1001.14C478.309 1001.14 466.618 1021.9 502.663 1030.4C538.708 1038.9 546.491 1026.63 564.993 1048.33C583.494 1070.03 625.377 1067.18 651.677 1064.37C677.977 1061.56 723.258 1043.13 723.258 1043.13C723.258 1043.13 682.842 828.453 693.545 808.595C703.678 789.84 730.383 754.2 658.997 708.044C644.791 698.905 625.302 702.764 616.605 717.022Z" fill="#F0898B"/>
<path d="M645.839 771.853C664.126 771.853 678.95 757.488 678.95 739.767C678.95 722.046 664.126 707.681 645.839 707.681C627.553 707.681 612.728 722.046 612.728 739.767C612.728 757.488 627.553 771.853 645.839 771.853Z" fill="#A26565"/>
<path opacity="0.1" d="M634.149 752.967L627.338 852.068L649.791 957.784C649.791 957.784 629.344 1027.63 649.791 1021.01C670.238 1014.4 671.211 956.841 671.211 956.841L657.53 846.455C657.53 846.455 674.085 763.396 671.166 746.367C668.247 729.338 634.149 752.967 634.149 752.967Z" fill="black"/>
<path d="M634.149 751.081L627.338 850.183L649.791 955.899C649.791 955.899 629.299 1025.74 649.731 1019.07C670.163 1012.4 671.211 954.956 671.211 954.956L657.575 844.526C657.575 844.526 674.13 761.467 671.211 744.438C668.292 727.408 634.149 751.081 634.149 751.081Z" fill="#A26565"/>
<path opacity="0.03" d="M629.763 688.345C643.549 688.345 656.093 684.53 662.694 673.84C662.784 665.499 663.308 659.508 663.308 659.508L630.197 662.409C632.292 669.662 631.14 675.928 628.7 686.474C629.403 686.459 629.149 688.345 629.763 688.345Z" fill="black"/>
<path d="M630.257 689.752C651.238 689.752 668.247 673.27 668.247 652.937C668.247 632.605 651.238 616.122 630.257 616.122C609.275 616.122 592.266 632.605 592.266 652.937C592.266 673.27 609.275 689.752 630.257 689.752Z" fill="#A26565"/>
<path opacity="0.03" d="M671.645 794.975C671.645 794.975 674.639 809.132 693.56 810.554Z" fill="black"/>
<path opacity="0.03" d="M570.846 1048.39C552.344 1026.63 544.546 1038.94 508.516 1030.46C472.486 1021.97 484.102 1001.2 484.102 1001.2C508.456 991.756 580.53 926.641 580.53 926.641C580.53 926.641 586.368 900.212 613.641 870.07C640.914 839.927 621.44 803.997 621.44 803.997C609.465 756.927 613.791 731.165 622.398 717.08C624.766 713.22 628.045 709.959 631.967 707.565C635.888 705.172 640.34 703.716 644.956 703.315C639.354 702.74 633.699 703.731 628.66 706.17C623.62 708.61 619.406 712.395 616.515 717.08C607.923 731.165 603.627 756.912 615.557 803.997C615.557 803.997 635.017 839.869 607.759 870.07C580.5 900.27 574.648 926.641 574.648 926.641C574.648 926.641 502.573 991.77 478.219 1001.2C478.219 1001.2 466.528 1021.96 502.573 1030.46C538.618 1038.96 546.402 1026.69 564.903 1048.39C577.701 1063.4 601.666 1066.68 623.94 1066.33C603.522 1066.01 582.521 1062.09 570.846 1048.39Z" fill="black"/>
<path opacity="0.1" d="M644.043 695.598C642.815 692.958 640.196 691.246 638.22 689.056C631.798 681.992 632.906 671.403 632.532 661.989C632.152 652.996 630.077 644.147 626.41 635.879C628.708 634.775 630.797 633.303 632.592 631.527C635.698 628.318 637.812 624.329 638.693 620.013C639.574 615.697 639.187 611.228 637.576 607.115C633.008 609.863 627.746 611.339 622.368 611.379C617.458 611.379 612.623 610.233 607.714 609.929C599.418 609.363 591.132 611.153 583.868 615.078C582.851 614.977 581.833 614.861 580.875 614.701C561.7 611.887 548.378 635.545 529.188 645.235C515.716 652.038 510.282 667.907 508.231 682.471C506.181 697.034 505.866 712.526 498.053 725.131C492.694 733.747 480.704 738.723 478.458 748.543C474.073 767.69 478.937 762.961 483.802 788.447C485.419 796.875 487.5 800.24 489.55 808.567C491.766 817.56 489.311 826.945 488.982 836.127C487.919 866.472 513.44 895.527 544.531 899.342C543.653 910.4 538.966 920.852 531.223 929.02C544.096 933.11 558.332 928.382 569.678 921.201C588.057 909.424 601.471 891.654 607.489 871.114C615.138 844.801 609.869 816.835 608.657 789.521C607.444 762.207 611.89 731.833 633.325 714.092C639.298 709.103 647.261 702.575 644.043 695.598Z" fill="black"/>
<path d="M642.097 694.684C640.869 692.044 638.25 690.332 636.274 688.142C629.853 681.078 630.96 670.489 630.586 661.075C630.206 652.083 628.131 643.233 624.464 634.965C626.762 633.861 628.852 632.39 630.646 630.613C633.757 627.402 635.875 623.407 636.756 619.085C637.637 614.764 637.247 610.289 635.63 606.172C631.062 608.92 625.8 610.396 620.422 610.436C615.512 610.436 610.678 609.29 605.768 608.986C597.472 608.421 589.186 610.21 581.923 614.135C580.905 614.034 579.887 613.918 578.929 613.758C559.754 610.944 546.432 634.602 527.242 644.292C513.77 651.095 508.336 666.964 506.285 681.528C504.235 696.091 503.92 711.583 496.107 724.188C490.748 732.804 478.758 737.78 476.513 747.6C472.127 766.747 476.992 762.018 481.856 787.505C483.473 795.932 485.554 799.298 487.604 807.624C489.82 816.617 487.365 826.002 487.036 835.184C485.973 865.529 511.495 894.584 542.585 898.399C541.707 909.457 537.02 919.909 529.277 928.077C542.151 932.168 556.386 927.439 567.732 920.259C586.156 908.511 599.62 890.75 605.678 870.2C613.327 843.887 608.058 815.921 606.846 788.607C605.633 761.293 610.079 730.919 631.514 713.179C637.352 708.16 645.315 701.632 642.097 694.684Z" fill="#252223"/>
<path d="M511.914 1226.29C511.914 1226.29 516.779 1238.57 526.523 1242.34C526.523 1242.34 550.877 1247.99 535.295 1253.67C524.817 1257.45 501.9 1249.87 487.754 1244.41C486.421 1243.88 485.239 1243.04 484.311 1241.97C483.382 1240.9 482.733 1239.63 482.419 1238.26C482.104 1236.9 482.134 1235.48 482.505 1234.13C482.876 1232.78 483.578 1231.53 484.551 1230.5L489.505 1225.35L511.914 1226.29Z" fill="#333333"/>
<path d="M718.393 1238.57C718.393 1238.57 726.82 1250.5 737.044 1252.77C737.044 1252.77 762.012 1254.7 747.522 1262.63C737.882 1267.91 714.052 1263.94 699.203 1260.67C697.778 1260.36 696.453 1259.72 695.343 1258.8C694.233 1257.88 693.371 1256.71 692.833 1255.39C692.295 1254.07 692.096 1252.65 692.254 1251.24C692.412 1249.84 692.922 1248.49 693.739 1247.31L697.766 1241.51L718.393 1238.57Z" fill="#333333"/>
<path opacity="0.03" d="M572.298 926.235C572.298 926.235 594.751 938.506 620.018 937.563Z" fill="black"/>
<path opacity="0.3" d="M527.421 570.546H521.209L522.287 566.92H526.029L527.421 570.546Z" fill="#FF3DB0"/>
<path opacity="0.3" d="M549.964 532.411C549.964 546.192 538.408 566.499 524.158 566.499C509.908 566.499 498.352 546.192 498.352 532.455C498.352 525.823 501.071 519.462 505.91 514.772C510.75 510.082 517.314 507.448 524.158 507.448C531.002 507.448 537.566 510.082 542.406 514.772C547.245 519.462 549.964 525.823 549.964 532.455V532.411Z" fill="#FF3DB0"/>
<path opacity="0.2" d="M527.209 527.669H529.387V529.153H527.209V530.599H529.387V532.083H527.209V536.849H525.315L522.199 532.083H518.156V536.849H516.281V532.083H514.162V530.599H516.281V529.153H514.162V527.669H516.281V522.63H518.156L521.447 527.669H525.344V522.63H527.209V527.669ZM518.156 530.599H521.233L520.285 529.153H518.156V530.599ZM523.352 530.599H525.344V529.153H522.414L523.352 530.599ZM518.156 527.669H519.319L518.156 525.892V527.669ZM525.344 533.636V532.083H524.328L525.344 533.636Z" fill="black"/>
<path d="M526.029 567.079H522.287L520.117 565.876H528.2L526.029 567.079Z" fill="#535461"/>
<path opacity="0.1" d="M514.818 512.989C514.818 512.989 503.935 518.718 502.379 530.163Z" fill="white"/>
<path d="M524.802 566.398C523.157 568.157 521.938 570.249 521.234 572.523C520.529 574.796 520.357 577.194 520.73 579.54C522.092 587.431 528.873 595.322 527.511 604.518C526.149 613.715 522.077 619.024 522.077 622.926" stroke="#535461" stroke-width="0.75" stroke-miterlimit="10"/>
<path opacity="0.3" d="M1198.26 649.732H1192.03L1193.13 646.105H1196.85L1198.26 649.732Z" fill="#FF3DB0"/>
<path opacity="0.3" d="M1220.79 611.597C1220.79 625.406 1209.23 645.641 1194.98 645.641C1180.73 645.641 1169.18 625.333 1169.18 611.597C1169.18 604.964 1171.9 598.604 1176.74 593.914C1181.57 589.224 1188.14 586.589 1194.98 586.589C1201.83 586.589 1208.39 589.224 1213.23 593.914C1218.07 598.604 1220.79 604.964 1220.79 611.597V611.597Z" fill="#FF3DB0"/>
<path opacity="0.2" d="M1196.31 607.449H1198.49V608.934H1196.31V610.379H1198.49V611.863H1196.31V616.629H1194.42L1191.3 611.863H1187.26V616.629H1185.39V611.863H1183.27V610.379H1185.39V608.934H1183.27V607.449H1185.39V602.41H1187.26L1190.55 607.449H1194.45V602.41H1196.31V607.449ZM1187.26 610.379H1190.34L1189.39 608.934H1187.26V610.379ZM1192.46 610.379H1194.45V608.934H1191.52L1192.46 610.379ZM1187.26 607.449H1188.42L1187.26 605.672V607.449ZM1194.45 613.416V611.863H1193.43L1194.45 613.416Z" fill="black"/>
<path d="M1196.85 646.265H1193.13L1190.96 645.061H1199.04L1196.85 646.265Z" fill="#535461"/>
<path opacity="0.1" d="M1185.66 592.174C1185.66 592.174 1174.78 597.904 1173.22 609.348Z" fill="white"/>
<path d="M1195.64 645.583C1194 647.342 1192.78 649.435 1192.07 651.708C1191.37 653.982 1191.2 656.379 1191.57 658.725C1192.93 666.616 1199.71 674.507 1198.35 683.703C1196.99 692.9 1192.92 698.209 1192.92 702.111" stroke="#535461" stroke-width="0.75" stroke-miterlimit="10"/>
<path opacity="0.3" d="M1314.24 606.578L1308.15 605.33L1309.99 602.009L1313.64 602.763L1314.24 606.578Z" fill="#FF3DB0"/>
<path opacity="0.3" d="M1344.43 573.752C1341.44 587.271 1325.86 604.75 1311.9 601.893C1297.95 599.035 1290.95 576.914 1293.94 563.41C1295.45 557.013 1299.49 551.448 1305.2 547.914C1310.9 544.379 1317.81 543.159 1324.44 544.516C1331.06 545.873 1336.87 549.698 1340.61 555.167C1344.35 560.637 1345.72 567.311 1344.43 573.752Z" fill="#FF3DB0"/>
<path opacity="0.2" d="M1320.55 565.383H1322.73V566.868H1320.55V568.313H1322.73V569.797H1320.55V574.563H1318.66L1315.54 569.797H1311.5V574.563H1309.63V569.797H1307.51V568.313H1309.63V566.868H1307.51V565.383H1309.63V560.344H1311.5L1314.79 565.383H1318.69V560.344H1320.55V565.383ZM1311.5 568.313H1314.58L1313.63 566.868H1311.5V568.313ZM1316.7 568.313H1318.69V566.868H1315.76L1316.7 568.313ZM1311.5 565.383H1312.66L1311.5 563.606V565.383ZM1318.69 571.35V569.797H1317.67L1318.69 571.35Z" fill="black"/>
<path d="M1313.61 602.908L1309.96 602.168L1308.09 600.544L1315.99 602.168L1313.61 602.908Z" fill="#535461"/>
<path opacity="0.1" d="M1314.21 547.744C1314.21 547.744 1302.34 551.167 1298.37 562.046Z" fill="white"/>
<path d="M1312.56 601.994C1310.58 603.385 1308.94 605.187 1307.76 607.27C1306.59 609.353 1305.9 611.663 1305.77 614.034C1305.41 622.026 1310.36 631.107 1307.07 639.839C1303.78 648.571 1298.67 652.894 1297.83 656.752" stroke="#535461" stroke-width="0.75" stroke-miterlimit="10"/>
<path opacity="0.2" d="M747.471 308.107H752.371V311.447H747.471V314.699H752.371V318.039H747.471V328.761H743.209L736.199 318.039H727.103V328.761H722.884V318.039H718.116V314.699H722.884V311.447H718.116V308.107H722.884V296.769H727.103L734.507 308.107H743.275V296.769H747.471V308.107ZM727.103 314.699H734.024L731.893 311.447H727.103V314.699ZM738.792 314.699H743.275V311.447H736.683L738.792 314.699ZM727.103 308.107H729.717L727.103 304.108V308.107ZM743.275 321.532V318.039H740.989L743.275 321.532Z" fill="black"/>
</g>
<path opacity="0.1" d="M956.356 223.233C850.836 218.739 750.326 176.844 654.361 131.046C558.396 85.2486 463.32 34.4915 360.334 10.214C294.085 -5.39803 218.324 -7.56439 164.951 36.0491C113.575 78.0513 96.9835 150.633 88.0687 217.862C81.3535 268.493 77.406 321.703 95.789 369.166C108.564 402.055 131.244 429.717 146.932 461.227C201.484 570.905 162.956 706.132 103.786 813.197C76.1095 863.435 43.8736 911.345 22.4752 964.824C1.07683 1018.3 -8.82847 1079.55 9.88964 1134.09C28.4621 1188.15 72.6864 1228.76 120.596 1257.32C217.916 1315.32 332.599 1331.94 444.427 1341.34C691.987 1362.07 940.857 1353.12 1189.06 1344.17C1280.92 1340.82 1373.17 1337.44 1463.54 1319.98C1513.7 1310.29 1565.5 1294.91 1601.92 1257.76C1648.17 1210.61 1659.63 1130.76 1628.64 1071.57C1576.66 972.397 1432.93 947.761 1396.6 841.324C1376.6 782.742 1397.14 717.483 1426.2 663.146C1488.55 546.574 1593.05 444.326 1598.56 311.086C1602.34 219.58 1552.1 127.931 1474.43 84.6399C1393.01 39.2539 1280.11 44.9652 1220.04 120.089C1158.22 197.451 1049.52 227.207 956.356 223.233Z" fill="#FF3DB0"/>
<defs>
<linearGradient id="paint0_linear" x1="664.116" y1="408.897" x2="664.116" y2="188.124" gradientUnits="userSpaceOnUse">
<stop stop-color="#808080" stop-opacity="0.25"/>
<stop offset="0.54" stop-color="#808080" stop-opacity="0.12"/>
<stop offset="1" stop-color="#808080" stop-opacity="0.1"/>
</linearGradient>
<linearGradient id="paint1_linear" x1="140883" y1="643103" x2="140883" y2="204803" gradientUnits="userSpaceOnUse">
<stop stop-color="#808080" stop-opacity="0.25"/>
<stop offset="0.54" stop-color="#808080" stop-opacity="0.12"/>
<stop offset="1" stop-color="#808080" stop-opacity="0.1"/>
</linearGradient>
<clipPath id="clip0">
<rect x="207" y="188.124" width="1138" height="1139.71" fill="white"/>
</clipPath>
</defs>
</svg>
