<svg width="697" height="541" viewBox="0 0 697 541" fill="none" xmlns="http://www.w3.org/2000/svg">
<path opacity="0.1" d="M404.964 81.1231C360.282 79.4901 317.721 64.2665 277.086 47.6245C236.45 30.9826 196.191 12.5385 152.582 3.71657C124.529 -1.95653 92.4486 -2.74373 69.8485 13.1045C48.0935 28.3672 41.068 54.7419 37.2931 79.1714C34.4496 97.5699 32.778 116.905 40.5622 134.152C45.9717 146.103 55.5755 156.155 62.2185 167.605C85.3182 207.46 69.0035 256.599 43.9485 295.504C32.229 313.759 18.579 331.169 9.51795 350.602C0.456954 370.035 -3.73738 392.291 4.18868 412.108C12.0531 431.756 30.7795 446.511 51.0665 456.888C92.2759 477.967 140.838 484.004 188.19 487.42C293.018 494.953 398.401 491.7 503.5 488.448C542.396 487.231 581.459 486.001 619.726 479.658C640.969 476.138 662.903 470.55 678.323 457.05C697.907 439.914 702.762 410.898 689.636 389.39C667.628 353.354 606.767 344.402 591.383 305.724C582.915 284.437 591.612 260.723 603.917 240.978C630.317 198.619 674.567 161.464 676.898 113.047C678.502 79.7959 657.228 46.4925 624.34 30.7614C589.86 14.2691 542.057 16.3444 516.619 43.6429C490.442 71.7547 444.415 82.5674 404.964 81.1231Z" fill="#FF3DB0"/>
<path d="M409.675 491.77L289.396 490.144L289.748 486.891L295.565 433.218H401.194L408.966 486.891L409.558 490.957L409.675 491.77Z" fill="#D0D2D5"/>
<path opacity="0.1" d="M409.558 490.957H349.536L289.396 490.144L289.748 486.891H408.966L409.558 490.957Z" fill="black"/>
<path d="M428.951 487.704H269.351V491.77H428.951V487.704Z" fill="#D0D2D5"/>
<path d="M581.224 110.84C581.231 109.45 580.977 108.072 580.479 106.785C579.981 105.499 579.247 104.328 578.32 103.34C577.392 102.352 576.29 101.567 575.075 101.029C573.86 100.49 572.556 100.21 571.238 100.203H125.522C124.203 100.209 122.899 100.489 121.683 101.027C120.467 101.565 119.364 102.35 118.436 103.338C117.508 104.326 116.774 105.497 116.275 106.784C115.776 108.071 115.523 109.45 115.529 110.84V395.796H581.224V110.84Z" fill="#444053"/>
<path d="M115.529 392.966V426.341C115.529 429.136 116.582 431.817 118.456 433.794C120.33 435.77 122.872 436.881 125.522 436.881H571.238C573.887 436.879 576.427 435.768 578.299 433.791C580.172 431.815 581.224 429.135 581.224 426.341V392.966H115.529Z" fill="#D0D2D5"/>
<path opacity="0.1" d="M564.262 118.094H134.805V374.262H564.262V118.094Z" fill="#FF3DB0"/>
<path d="M350.689 424.214C352.266 424.215 353.823 423.838 355.242 423.112C356.661 422.387 357.905 421.331 358.881 420.024V420.024C359.177 419.625 359.447 419.205 359.689 418.768L353.977 417.779L360.145 417.831C360.74 416.472 361.064 414.998 361.098 413.5C361.132 412.003 360.875 410.515 360.342 409.126L352.059 413.681L359.701 407.76C358.983 406.461 358.019 405.331 356.87 404.441C355.721 403.551 354.411 402.92 353.021 402.586C351.63 402.252 350.19 402.224 348.789 402.501C347.388 402.779 346.056 403.358 344.875 404.201C343.695 405.045 342.691 406.135 341.927 407.404C341.163 408.674 340.654 410.095 340.432 411.581C340.211 413.066 340.281 414.584 340.638 416.04C340.996 417.495 341.633 418.858 342.51 420.043V420.043C343.486 421.345 344.729 422.397 346.146 423.12C347.562 423.842 349.116 424.216 350.689 424.214Z" fill="#FF3DB0"/>
<path opacity="0.1" d="M361.102 436.881L409.084 487.704L401.725 436.881H361.102Z" fill="black"/>
<path d="M427.699 164.312H149.023C148.137 164.312 147.419 165.069 147.419 166.003V340.88C147.419 341.814 148.137 342.572 149.023 342.572H427.699C428.585 342.572 429.303 341.814 429.303 340.88V166.003C429.303 165.069 428.585 164.312 427.699 164.312Z" fill="white"/>
<path d="M564.385 118.12H135.082V133.084H564.385V118.12Z" fill="white"/>
<path d="M148.788 120.722H137.414C137.148 120.722 136.933 120.95 136.933 121.23V129.323C136.933 129.603 137.148 129.831 137.414 129.831H148.788C149.054 129.831 149.269 129.603 149.269 129.323V121.23C149.269 120.95 149.054 120.722 148.788 120.722Z" fill="#FF3DB0"/>
<path opacity="0.3" d="M412.908 120.722H284.092C283.895 120.722 283.734 120.891 283.734 121.1V129.453C283.734 129.662 283.895 129.831 284.092 129.831H412.908C413.105 129.831 413.265 129.662 413.265 129.453V121.1C413.265 120.891 413.105 120.722 412.908 120.722Z" fill="#FF3DB0"/>
<path d="M409.423 126.213H409.109L408.991 126.109C409.387 125.614 409.605 124.988 409.608 124.34C409.605 123.808 409.451 123.288 409.168 122.848C408.885 122.407 408.485 122.065 408.018 121.865C407.55 121.664 407.037 121.614 406.543 121.72C406.049 121.827 405.595 122.086 405.24 122.464C404.885 122.842 404.644 123.323 404.548 123.845C404.452 124.367 404.504 124.908 404.699 125.399C404.894 125.89 405.222 126.309 405.642 126.603C406.063 126.897 406.556 127.054 407.061 127.053C407.675 127.049 408.268 126.819 408.738 126.402L408.856 126.506V126.844L410.829 128.926L411.446 128.276L409.423 126.213ZM407.055 126.213C406.701 126.215 406.356 126.105 406.062 125.899C405.768 125.693 405.538 125.4 405.403 125.056C405.267 124.712 405.231 124.333 405.3 123.968C405.368 123.603 405.538 123.267 405.788 123.004C406.038 122.74 406.356 122.561 406.702 122.489C407.048 122.416 407.407 122.454 407.733 122.597C408.059 122.74 408.338 122.982 408.533 123.293C408.729 123.603 408.832 123.967 408.831 124.34C408.833 124.586 408.788 124.831 408.699 125.059C408.61 125.287 408.48 125.494 408.314 125.668C408.149 125.843 407.953 125.981 407.736 126.074C407.52 126.168 407.288 126.215 407.055 126.213V126.213Z" fill="#444053"/>
<path d="M558.217 129.831C560.602 129.831 562.535 127.792 562.535 125.277C562.535 122.761 560.602 120.722 558.217 120.722C555.833 120.722 553.899 122.761 553.899 125.277C553.899 127.792 555.833 129.831 558.217 129.831Z" fill="#FF3DB0"/>
<path d="M488.251 149.348H451.156C450.328 149.348 449.657 150.056 449.657 150.929V176.393C449.657 177.266 450.328 177.974 451.156 177.974H488.251C489.079 177.974 489.75 177.266 489.75 176.393V150.929C489.75 150.056 489.079 149.348 488.251 149.348Z" fill="white"/>
<path d="M551.672 149.348H500.613C500.405 149.348 500.236 149.526 500.236 149.745V153.505C500.236 153.725 500.405 153.902 500.613 153.902H551.672C551.88 153.902 552.049 153.725 552.049 153.505V149.745C552.049 149.526 551.88 149.348 551.672 149.348Z" fill="white"/>
<path d="M551.672 159.107H500.613C500.405 159.107 500.236 159.285 500.236 159.504V163.264C500.236 163.483 500.405 163.661 500.613 163.661H551.672C551.88 163.661 552.049 163.483 552.049 163.264V159.504C552.049 159.285 551.88 159.107 551.672 159.107Z" fill="white"/>
<path d="M551.672 168.866H500.613C500.405 168.866 500.236 169.043 500.236 169.263V173.023C500.236 173.242 500.405 173.42 500.613 173.42H551.672C551.88 173.42 552.049 173.242 552.049 173.023V169.263C552.049 169.043 551.88 168.866 551.672 168.866Z" fill="white"/>
<path d="M488.251 194.239H451.156C450.328 194.239 449.657 194.946 449.657 195.819V221.283C449.657 222.156 450.328 222.864 451.156 222.864H488.251C489.079 222.864 489.75 222.156 489.75 221.283V195.819C489.75 194.946 489.079 194.239 488.251 194.239Z" fill="white"/>
<path d="M551.672 194.239H500.613C500.405 194.239 500.236 194.416 500.236 194.635V198.396C500.236 198.615 500.405 198.793 500.613 198.793H551.672C551.88 198.793 552.049 198.615 552.049 198.396V194.635C552.049 194.416 551.88 194.239 551.672 194.239Z" fill="white"/>
<path d="M551.672 203.997H500.613C500.405 203.997 500.236 204.175 500.236 204.394V208.155C500.236 208.374 500.405 208.551 500.613 208.551H551.672C551.88 208.551 552.049 208.374 552.049 208.155V204.394C552.049 204.175 551.88 203.997 551.672 203.997Z" fill="white"/>
<path d="M551.642 213.756H500.643C500.419 213.756 500.236 213.948 500.236 214.185V217.881C500.236 218.118 500.419 218.31 500.643 218.31H551.642C551.866 218.31 552.049 218.118 552.049 217.881V214.185C552.049 213.948 551.866 213.756 551.642 213.756Z" fill="white"/>
<path d="M488.251 239.129H451.156C450.328 239.129 449.657 239.836 449.657 240.71V266.174C449.657 267.047 450.328 267.754 451.156 267.754H488.251C489.079 267.754 489.75 267.047 489.75 266.174V240.71C489.75 239.836 489.079 239.129 488.251 239.129Z" fill="white"/>
<path d="M551.642 239.129H500.643C500.419 239.129 500.236 239.321 500.236 239.558V243.253C500.236 243.491 500.419 243.683 500.643 243.683H551.642C551.866 243.683 552.049 243.491 552.049 243.253V239.558C552.049 239.321 551.866 239.129 551.642 239.129Z" fill="white"/>
<path d="M551.642 248.887H500.643C500.419 248.887 500.236 249.08 500.236 249.317V253.012C500.236 253.249 500.419 253.442 500.643 253.442H551.642C551.866 253.442 552.049 253.249 552.049 253.012V249.317C552.049 249.08 551.866 248.887 551.642 248.887Z" fill="white"/>
<path d="M551.642 258.646H500.643C500.419 258.646 500.236 258.839 500.236 259.076V262.771C500.236 263.008 500.419 263.201 500.643 263.201H551.642C551.866 263.201 552.049 263.008 552.049 262.771V259.076C552.049 258.839 551.866 258.646 551.642 258.646Z" fill="white"/>
<path d="M488.251 284.019H451.156C450.328 284.019 449.657 284.727 449.657 285.6V311.064C449.657 311.937 450.328 312.645 451.156 312.645H488.251C489.079 312.645 489.75 311.937 489.75 311.064V285.6C489.75 284.727 489.079 284.019 488.251 284.019Z" fill="white"/>
<path d="M551.642 284.019H500.643C500.419 284.019 500.236 284.211 500.236 284.448V288.144C500.236 288.381 500.419 288.573 500.643 288.573H551.642C551.866 288.573 552.049 288.381 552.049 288.144V284.448C552.049 284.211 551.866 284.019 551.642 284.019Z" fill="white"/>
<path d="M551.642 293.778H500.643C500.419 293.778 500.236 293.97 500.236 294.207V297.902C500.236 298.14 500.419 298.332 500.643 298.332H551.642C551.866 298.332 552.049 298.14 552.049 297.902V294.207C552.049 293.97 551.866 293.778 551.642 293.778Z" fill="white"/>
<path d="M551.642 303.537H500.643C500.419 303.537 500.236 303.729 500.236 303.966V307.661C500.236 307.899 500.419 308.091 500.643 308.091H551.642C551.866 308.091 552.049 307.899 552.049 307.661V303.966C552.049 303.729 551.866 303.537 551.642 303.537Z" fill="white"/>
<path d="M488.251 328.91H451.156C450.328 328.91 449.657 329.617 449.657 330.491V355.954C449.657 356.828 450.328 357.535 451.156 357.535H488.251C489.079 357.535 489.75 356.828 489.75 355.954V330.491C489.75 329.617 489.079 328.91 488.251 328.91Z" fill="white"/>
<path d="M551.642 328.91H500.643C500.419 328.91 500.236 329.102 500.236 329.339V333.034C500.236 333.271 500.419 333.464 500.643 333.464H551.642C551.866 333.464 552.049 333.271 552.049 333.034V329.339C552.049 329.102 551.866 328.91 551.642 328.91Z" fill="white"/>
<path d="M551.642 338.668H500.643C500.419 338.668 500.236 338.86 500.236 339.098V342.793C500.236 343.03 500.419 343.222 500.643 343.222H551.642C551.866 343.222 552.049 343.03 552.049 342.793V339.098C552.049 338.86 551.866 338.668 551.642 338.668Z" fill="white"/>
<path d="M551.642 348.427H500.643C500.419 348.427 500.236 348.619 500.236 348.856V352.552C500.236 352.789 500.419 352.981 500.643 352.981H551.642C551.866 352.981 552.049 352.789 552.049 352.552V348.856C552.049 348.619 551.866 348.427 551.642 348.427Z" fill="white"/>
<path opacity="0.1" d="M251.506 211.551H188.079V215.018H251.506V211.551Z" fill="#FF3DB0"/>
<path opacity="0.1" d="M199.823 193.217H193.717V211.55H199.823V193.217Z" fill="#FF3DB0"/>
<path opacity="0.1" d="M208.748 193.217H202.642V211.55H208.748V193.217Z" fill="#FF3DB0"/>
<path opacity="0.1" d="M217.674 193.217H211.567V211.55H217.674V193.217Z" fill="#FF3DB0"/>
<path opacity="0.1" d="M226.599 193.217H220.492V211.55H226.599V193.217Z" fill="#FF3DB0"/>
<path opacity="0.1" d="M235.524 193.217H229.418V211.55H235.524V193.217Z" fill="#FF3DB0"/>
<path opacity="0.1" d="M244.456 193.217H238.35V211.55H244.456V193.217Z" fill="#FF3DB0"/>
<path opacity="0.1" d="M199.823 196.685H193.717V198.669H199.823V196.685Z" fill="#FF3DB0"/>
<path opacity="0.1" d="M208.748 196.685H202.642V198.669H208.748V196.685Z" fill="#FF3DB0"/>
<path opacity="0.1" d="M217.674 196.685H211.567V198.669H217.674V196.685Z" fill="#FF3DB0"/>
<path opacity="0.1" d="M226.599 196.685H220.492V198.669H226.599V196.685Z" fill="#FF3DB0"/>
<path opacity="0.1" d="M235.524 196.685H229.418V198.669H235.524V196.685Z" fill="#FF3DB0"/>
<path opacity="0.1" d="M244.456 196.685H238.35V198.669H244.456V196.685Z" fill="#FF3DB0"/>
<path opacity="0.1" d="M199.823 205.604H193.717V207.588H199.823V205.604Z" fill="#FF3DB0"/>
<path opacity="0.1" d="M208.748 205.604H202.642V207.588H208.748V205.604Z" fill="#FF3DB0"/>
<path opacity="0.1" d="M217.674 205.604H211.567V207.588H217.674V205.604Z" fill="#FF3DB0"/>
<path opacity="0.1" d="M226.599 205.604H220.492V207.588H226.599V205.604Z" fill="#FF3DB0"/>
<path opacity="0.1" d="M235.524 205.604H229.418V207.588H235.524V205.604Z" fill="#FF3DB0"/>
<path opacity="0.1" d="M244.456 205.604H238.35V207.588H244.456V205.604Z" fill="#FF3DB0"/>
<path opacity="0.1" d="M390.567 220.47H327.14V223.938H390.567V220.47Z" fill="#FF3DB0"/>
<path opacity="0.1" d="M338.884 202.136H332.777V220.47H338.884V202.136Z" fill="#FF3DB0"/>
<path opacity="0.1" d="M347.809 202.136H341.702V220.47H347.809V202.136Z" fill="#FF3DB0"/>
<path opacity="0.1" d="M356.734 202.136H350.628V220.47H356.734V202.136Z" fill="#FF3DB0"/>
<path opacity="0.1" d="M365.666 202.136H359.56V220.47H365.666V202.136Z" fill="#FF3DB0"/>
<path opacity="0.1" d="M374.591 202.136H368.484V220.47H374.591V202.136Z" fill="#FF3DB0"/>
<path opacity="0.1" d="M383.517 202.136H377.41V220.47H383.517V202.136Z" fill="#FF3DB0"/>
<path opacity="0.1" d="M338.884 205.604H332.777V207.588H338.884V205.604Z" fill="#FF3DB0"/>
<path opacity="0.1" d="M347.809 205.604H341.702V207.588H347.809V205.604Z" fill="#FF3DB0"/>
<path opacity="0.1" d="M356.734 205.604H350.628V207.588H356.734V205.604Z" fill="#FF3DB0"/>
<path opacity="0.1" d="M365.666 205.604H359.56V207.588H365.666V205.604Z" fill="#FF3DB0"/>
<path opacity="0.1" d="M374.591 205.604H368.484V207.588H374.591V205.604Z" fill="#FF3DB0"/>
<path opacity="0.1" d="M383.517 205.604H377.41V207.588H383.517V205.604Z" fill="#FF3DB0"/>
<path opacity="0.1" d="M338.884 214.524H332.777V216.508H338.884V214.524Z" fill="#FF3DB0"/>
<path opacity="0.1" d="M347.809 214.524H341.702V216.508H347.809V214.524Z" fill="#FF3DB0"/>
<path opacity="0.1" d="M356.734 214.524H350.628V216.508H356.734V214.524Z" fill="#FF3DB0"/>
<path opacity="0.1" d="M365.666 214.524H359.56V216.508H365.666V214.524Z" fill="#FF3DB0"/>
<path opacity="0.1" d="M374.591 214.524H368.484V216.508H374.591V214.524Z" fill="#FF3DB0"/>
<path opacity="0.1" d="M383.517 214.524H377.41V216.508H383.517V214.524Z" fill="#FF3DB0"/>
<path opacity="0.1" d="M390.567 245.739H327.14V249.206H390.567V245.739Z" fill="#FF3DB0"/>
<path opacity="0.1" d="M338.884 227.405H332.777V245.739H338.884V227.405Z" fill="#FF3DB0"/>
<path opacity="0.1" d="M347.809 227.405H341.702V245.739H347.809V227.405Z" fill="#FF3DB0"/>
<path opacity="0.1" d="M356.734 227.405H350.628V245.739H356.734V227.405Z" fill="#FF3DB0"/>
<path opacity="0.1" d="M365.666 227.405H359.56V245.739H365.666V227.405Z" fill="#FF3DB0"/>
<path opacity="0.1" d="M374.591 227.405H368.484V245.739H374.591V227.405Z" fill="#FF3DB0"/>
<path opacity="0.1" d="M383.517 227.405H377.41V245.739H383.517V227.405Z" fill="#FF3DB0"/>
<path opacity="0.1" d="M338.884 230.873H332.777V232.857H338.884V230.873Z" fill="#FF3DB0"/>
<path opacity="0.1" d="M347.809 230.873H341.702V232.857H347.809V230.873Z" fill="#FF3DB0"/>
<path opacity="0.1" d="M356.734 230.873H350.628V232.857H356.734V230.873Z" fill="#FF3DB0"/>
<path opacity="0.1" d="M365.666 230.873H359.56V232.857H365.666V230.873Z" fill="#FF3DB0"/>
<path opacity="0.1" d="M374.591 230.873H368.484V232.857H374.591V230.873Z" fill="#FF3DB0"/>
<path opacity="0.1" d="M383.517 230.873H377.41V232.857H383.517V230.873Z" fill="#FF3DB0"/>
<path opacity="0.1" d="M338.884 239.792H332.777V241.777H338.884V239.792Z" fill="#FF3DB0"/>
<path opacity="0.1" d="M347.809 239.792H341.702V241.777H347.809V239.792Z" fill="#FF3DB0"/>
<path opacity="0.1" d="M356.734 239.792H350.628V241.777H356.734V239.792Z" fill="#FF3DB0"/>
<path opacity="0.1" d="M365.666 239.792H359.56V241.777H365.666V239.792Z" fill="#FF3DB0"/>
<path opacity="0.1" d="M374.591 239.792H368.484V241.777H374.591V239.792Z" fill="#FF3DB0"/>
<path opacity="0.1" d="M383.517 239.792H377.41V241.777H383.517V239.792Z" fill="#FF3DB0"/>
<path opacity="0.1" d="M226.988 250.761C226.515 250.122 226.082 249.45 225.692 248.751L234.827 247.17L224.958 247.248C224.012 245.074 223.495 242.72 223.44 240.328C223.385 237.937 223.792 235.558 224.638 233.339L237.868 240.573L225.649 231.101C226.786 228.997 228.323 227.164 230.163 225.717C232.004 224.269 234.108 223.239 236.344 222.69C238.58 222.141 240.899 222.086 243.156 222.528C245.413 222.969 247.56 223.899 249.46 225.257C251.36 226.615 252.974 228.373 254.2 230.42C255.425 232.468 256.237 234.76 256.582 237.154C256.928 239.548 256.801 241.991 256.208 244.331C255.616 246.67 254.572 248.855 253.141 250.748C253.884 251.738 254.521 252.811 255.04 253.949L243.185 260.455L255.824 255.985C256.708 258.749 256.926 261.702 256.457 264.577C255.989 267.451 254.849 270.158 253.141 272.452C255.077 275.042 256.283 278.154 256.621 281.433C256.958 284.713 256.414 288.026 255.049 290.994C253.685 293.962 251.556 296.464 248.906 298.215C246.255 299.967 243.191 300.895 240.064 300.895C236.937 300.895 233.873 299.967 231.223 298.215C228.573 296.464 226.443 293.962 225.079 290.994C223.715 288.026 223.17 284.713 223.507 281.433C223.845 278.154 225.051 275.042 226.988 272.452C224.681 269.356 223.427 265.534 223.427 261.597C223.427 257.66 224.681 253.837 226.988 250.742V250.761Z" fill="#FF3DB0"/>
<path opacity="0.1" d="M256.706 261.613C256.706 265.546 255.45 269.364 253.141 272.452C255.077 275.042 256.283 278.154 256.621 281.433C256.958 284.713 256.414 288.026 255.049 290.994C253.685 293.962 251.556 296.464 248.906 298.215C246.255 299.966 243.191 300.895 240.064 300.895C236.937 300.895 233.873 299.966 231.223 298.215C228.573 296.464 226.443 293.962 225.079 290.994C223.715 288.026 223.17 284.713 223.507 281.433C223.845 278.154 225.051 275.042 226.988 272.452C224.749 269.478 256.706 259.642 256.706 261.613Z" fill="#FF3DB0"/>
<path opacity="0.2" d="M242.729 305.553C242.758 305.6 242.784 305.648 242.809 305.697H237.159C237.19 305.651 237.208 305.599 237.239 305.553C236.753 304.661 236.501 303.648 236.511 302.619C236.508 301.914 236.623 301.214 236.85 300.551V300.551C237.165 300.603 237.553 300.661 238.004 300.713C239.314 300.851 240.635 300.851 241.945 300.713C242.323 300.674 242.712 300.622 243.111 300.557C243.108 300.568 243.108 300.579 243.111 300.59C243.336 301.242 243.448 301.932 243.444 302.626C243.456 303.651 243.209 304.662 242.729 305.553Z" fill="#3F3D56"/>
<path opacity="0.1" d="M222.423 305.697H190.966C190.898 305.508 190.836 305.306 190.781 305.111C189.672 301.352 189.8 297.308 191.144 293.635C188.073 291.395 185.805 288.132 184.703 284.37C183.601 280.608 183.73 276.564 185.069 272.888C184.437 272.429 183.837 271.922 183.274 271.372L191.552 267.019L182.139 270.168C180.625 268.387 179.473 266.299 178.752 264.031C178.03 261.763 177.756 259.364 177.945 256.981L192.631 259.778L178.309 254.528C178.803 252.161 179.756 249.927 181.108 247.967C182.461 246.007 184.183 244.364 186.167 243.141C188.151 241.917 190.354 241.14 192.636 240.858C194.919 240.576 197.232 240.795 199.43 241.502C201.629 242.209 203.664 243.389 205.409 244.966C207.155 246.543 208.571 248.484 209.571 250.667C210.57 252.85 211.13 255.228 211.215 257.65C211.301 260.072 210.911 262.487 210.068 264.742C211.062 265.471 211.978 266.311 212.801 267.247L203.289 277.142L214.115 268.932C215.737 271.3 216.774 274.057 217.131 276.953C217.489 279.85 217.156 282.795 216.162 285.522C219.15 287.704 221.379 290.857 222.509 294.499C223.639 298.141 223.609 302.074 222.423 305.697V305.697Z" fill="#FF3DB0"/>
<path opacity="0.1" d="M222.424 305.697H190.966C190.898 305.508 190.837 305.306 190.781 305.111C189.673 301.352 189.801 297.308 191.145 293.635C188.184 291.475 215.959 272.12 216.508 274.007C217.617 277.768 217.488 281.814 216.144 285.49C219.142 287.671 221.378 290.827 222.512 294.477C223.646 298.127 223.615 302.068 222.424 305.697V305.697Z" fill="#FF3DB0"/>
<path opacity="0.1" d="M364.753 281.924C362.842 285.306 359.906 287.91 356.419 289.315C356.569 290.566 356.591 291.831 356.487 293.088L343.158 292.242L356.179 295.222C355.796 297.094 355.125 298.887 354.193 300.531C353.058 302.544 351.547 304.292 349.752 305.67H331.605V306.171H313.101C313.138 306.002 313.175 305.84 313.218 305.67C313.893 302.979 315.165 300.495 316.929 298.424C318.693 296.353 320.899 294.754 323.364 293.758C322.891 289.853 323.675 285.893 325.591 282.514C327.507 279.135 330.444 276.533 333.93 275.126C333.833 274.321 333.787 273.51 333.795 272.699L342.399 276.284L333.887 271.007C334.138 268.629 334.847 266.331 335.97 264.252C337.093 262.174 338.607 260.359 340.419 258.919L348.259 272.308L342.381 257.566C345.583 255.697 349.279 254.993 352.899 255.562C356.518 256.131 359.859 257.941 362.406 260.714C364.952 263.486 366.561 267.066 366.986 270.9C367.41 274.733 366.625 278.608 364.753 281.924V281.924Z" fill="#FF3DB0"/>
<path opacity="0.1" d="M354.193 300.557C353.058 302.57 351.547 304.319 349.752 305.697H331.605V306.198H313.101C313.138 306.029 313.175 305.866 313.218 305.697C313.893 303.005 315.165 300.521 316.929 298.45C318.693 296.379 320.899 294.78 323.364 293.785C323.21 292.483 326.794 292.679 331.574 293.524C340.944 295.183 354.828 299.438 354.193 300.557Z" fill="#FF3DB0"/>
<path d="M275.537 253.708C275.537 253.708 277.819 266.72 272.724 270.968C267.629 275.217 277.042 300.681 292.573 297.707C308.105 294.734 314.433 273.376 314.433 273.376C314.433 273.376 298.877 269.979 304.644 252.719L275.537 253.708Z" fill="#EE8E9E"/>
<path opacity="0.1" d="M275.537 253.708C275.537 253.708 277.819 266.72 272.724 270.968C267.629 275.217 277.042 300.681 292.573 297.707C308.105 294.734 314.433 273.376 314.433 273.376C314.433 273.376 298.877 269.979 304.644 252.719L275.537 253.708Z" fill="black"/>
<path d="M289.286 263.259C303.509 263.259 315.038 251.098 315.038 236.097C315.038 221.096 303.509 208.935 289.286 208.935C275.064 208.935 263.534 221.096 263.534 236.097C263.534 251.098 275.064 263.259 289.286 263.259Z" fill="#EE8E9E"/>
<path d="M331.605 287.734V306.197H246.571V288.573C246.571 286.338 247.195 284.153 248.366 282.29C249.536 280.427 251.201 278.969 253.153 278.099L255.589 277.006C261.757 274.234 269.252 270.793 271.7 269.361C271.968 269.22 272.221 269.048 272.453 268.847C273.791 267.436 273.526 269.27 273.526 269.27C273.526 269.27 273.489 269.622 273.464 270.227C273.316 274.384 273.884 290.72 292.037 289.36C309.745 288.059 310.541 275.425 310.362 271.71C310.352 271.366 310.325 271.023 310.282 270.682C311.507 270.989 312.705 271.403 313.866 271.918C317.567 273.362 323.032 275.679 324.493 276.772C324.95 277.11 325.505 277.461 326.109 277.819C326.795 278.222 327.437 278.704 328.022 279.257C329.15 280.325 330.052 281.632 330.669 283.093C331.287 284.553 331.605 286.135 331.605 287.734Z" fill="#FF3DB0"/>
<path opacity="0.1" d="M313.866 271.918C312.367 279.244 307.66 292.965 290.698 293.322C272.625 293.7 271.577 274.742 271.694 269.361C271.966 269.224 272.221 269.051 272.453 268.847C273.797 267.436 273.526 269.27 273.526 269.27C273.526 269.27 271.25 290.915 292.03 289.36C312.811 287.805 310.257 270.689 310.257 270.689C310.257 270.584 311.805 271.15 313.866 271.918Z" fill="black"/>
<path d="M258.803 237.457C259.658 237.231 260.557 237.281 261.385 237.6C262.213 237.919 262.931 238.492 263.448 239.246C264.385 240.632 264.527 242.304 264.644 243.904C265.761 244.151 266.39 242.818 266.495 241.809C266.908 237.704 266.939 233.521 268.246 229.552C269.554 225.584 272.41 221.745 276.795 220.229C278.294 219.682 279.895 219.521 281.465 219.761C282.396 219.924 283.272 220.268 284.197 220.411C287.405 220.971 290.89 219.371 293.893 220.483C295.781 221.186 296.978 222.806 297.86 224.426C298.243 225.299 298.765 226.098 299.402 226.787C300.678 227.997 302.677 228.31 304.509 228.687C306.341 229.064 308.339 229.721 309.123 231.211C309.826 232.558 309.308 234.113 309.073 235.57C308.711 237.879 309.077 240.249 310.116 242.317C310.455 242.967 311.146 243.754 311.966 243.54C312.334 243.409 312.644 243.143 312.842 242.792C314.945 239.682 314.89 235.635 317.53 232.831C318.412 231.894 319.553 231.166 320.41 230.229C321.059 229.535 321.535 228.682 321.796 227.746C322.056 226.811 322.093 225.822 321.903 224.868C321.428 222.721 319.8 220.964 318.486 219.078C316.78 216.688 315.537 213.966 314.828 211.069C314.704 210.732 314.704 210.359 314.828 210.022C315.077 209.68 315.398 209.404 315.766 209.215C316.481 208.709 316.997 207.946 317.217 207.069C317.437 206.191 317.347 205.259 316.962 204.446C316.216 202.839 314.575 201.616 312.725 200.887C310.848 200.237 308.91 199.801 306.945 199.586C305.65 199.781 304.133 199.007 303.732 197.914C303.553 197.426 303.553 196.899 303.374 196.411C303.131 195.921 302.78 195.5 302.351 195.183C301.922 194.866 301.426 194.663 300.907 194.59C299.803 194.402 298.674 194.486 297.607 194.837C296.373 195.201 294.973 195.748 293.906 195.11C293.345 194.778 293.036 194.173 292.432 193.9C291.198 193.354 289.927 194.46 289.045 195.37C288.195 196.326 287.152 197.067 285.992 197.537C285.38 197.783 284.724 197.886 284.071 197.84C283.417 197.794 282.781 197.6 282.205 197.27C281.36 196.704 280.934 195.793 280.262 195.071C278.992 193.877 277.367 193.187 275.667 193.119C273.918 193.022 272.166 193.224 270.479 193.718C267.259 194.546 264.184 195.907 261.369 197.752C259.953 198.572 258.751 199.75 257.872 201.18C257.351 202.277 257.083 203.487 257.088 204.713C256.952 208.558 258.161 212.604 261.313 215.298C259.389 216.144 258.741 218.219 258.291 220.06C257.569 223.001 256.848 225.987 257.119 228.98C257.255 230.528 257.656 232.076 257.44 233.618C257.267 234.344 257.172 235.088 257.156 235.837C257.247 236.249 257.452 236.623 257.745 236.912C258.039 237.2 258.407 237.39 258.803 237.457V237.457Z" fill="#454B69"/>
<g opacity="0.1">
<path opacity="0.1" d="M321.502 223.658C321.225 224.296 320.85 224.88 320.392 225.389C319.535 226.338 318.394 227.074 317.512 227.991C314.872 230.775 314.927 234.848 312.824 237.958C312.627 238.309 312.316 238.573 311.948 238.699C311.146 238.921 310.455 238.153 310.097 237.476C309.69 236.653 309.381 235.778 309.178 234.874C309.135 235.102 309.092 235.329 309.055 235.525C308.693 237.833 309.059 240.203 310.097 242.271C310.437 242.922 311.128 243.709 311.948 243.494C312.315 243.363 312.626 243.098 312.824 242.746C314.927 239.636 314.872 235.59 317.512 232.786C318.394 231.849 319.535 231.12 320.392 230.183C321.041 229.489 321.517 228.636 321.777 227.701C322.038 226.765 322.075 225.777 321.885 224.823C321.79 224.423 321.662 224.034 321.502 223.658V223.658Z" fill="black"/>
<path opacity="0.1" d="M315.754 204.4C315.385 204.587 315.064 204.864 314.816 205.207C314.693 205.542 314.693 205.913 314.816 206.248C315.059 207.259 315.371 208.25 315.747 209.215V209.215C316.462 208.709 316.978 207.946 317.199 207.068C317.419 206.191 317.328 205.258 316.944 204.446C316.824 204.178 316.679 203.923 316.512 203.685C316.293 203.961 316.038 204.202 315.754 204.4Z" fill="black"/>
<path opacity="0.1" d="M261.35 210.431C259.165 208.532 257.725 205.845 257.31 202.891C257.2 203.474 257.138 204.066 257.125 204.661C256.984 207.502 257.694 210.317 259.154 212.709C259.596 211.691 260.378 210.88 261.35 210.431V210.431Z" fill="black"/>
<path opacity="0.1" d="M309.073 230.775C309.308 229.311 309.826 227.757 309.123 226.416C308.339 224.92 306.341 224.269 304.509 223.892C302.677 223.515 300.679 223.196 299.402 221.992C298.765 221.303 298.243 220.504 297.86 219.631C296.99 218.011 295.781 216.378 293.894 215.688C290.89 214.576 287.405 216.17 284.197 215.617C283.272 215.454 282.396 215.116 281.465 214.966C279.895 214.724 278.294 214.885 276.795 215.434C272.41 216.957 269.554 220.795 268.246 224.757C266.939 228.719 266.908 232.903 266.495 237.014C266.39 238.016 265.761 239.356 264.644 239.109C264.527 237.502 264.385 235.856 263.448 234.445C262.931 233.692 262.212 233.12 261.384 232.803C260.556 232.485 259.657 232.436 258.803 232.662C258.285 232.54 257.824 232.229 257.502 231.784C257.569 232.38 257.569 232.983 257.502 233.579C257.328 234.305 257.233 235.049 257.218 235.798C257.297 236.214 257.493 236.596 257.78 236.894C258.067 237.192 258.432 237.392 258.828 237.47C259.683 237.244 260.582 237.294 261.41 237.613C262.238 237.932 262.956 238.505 263.472 239.259C264.41 240.645 264.552 242.317 264.669 243.917C265.785 244.164 266.414 242.831 266.519 241.822C266.933 237.717 266.963 233.534 268.271 229.565C269.579 225.597 272.435 221.758 276.82 220.242C278.319 219.695 279.92 219.534 281.489 219.774C282.421 219.937 283.297 220.281 284.222 220.424C287.429 220.984 290.914 219.384 293.918 220.496C295.806 221.199 297.002 222.819 297.884 224.439C298.268 225.312 298.789 226.111 299.426 226.8C300.703 228.01 302.702 228.323 304.534 228.7C306.366 229.077 308.234 229.689 309.055 231.068C309.024 230.97 309.055 230.873 309.073 230.775Z" fill="black"/>
<path opacity="0.1" d="M257.477 228.752C257.579 227.54 257.51 226.319 257.274 225.128C257.093 226.385 257.054 227.661 257.156 228.928C257.156 229.253 257.224 229.578 257.267 229.897C257.335 229.513 257.428 229.136 257.477 228.752Z" fill="black"/>
</g>
<path d="M227.29 332.449V320.706C227.29 320.618 227.323 320.533 227.382 320.471C227.441 320.409 227.521 320.374 227.605 320.374H228.869C228.953 320.374 229.033 320.409 229.092 320.471C229.151 320.533 229.184 320.618 229.184 320.706V325.592L234.316 320.575C234.436 320.469 234.583 320.401 234.738 320.379C234.894 320.356 235.053 320.38 235.196 320.448C235.339 320.516 235.462 320.625 235.549 320.762C235.637 320.9 235.686 321.06 235.691 321.226V331.863C235.686 332.029 235.637 332.19 235.549 332.327C235.462 332.465 235.339 332.574 235.196 332.641C235.053 332.709 234.894 332.733 234.738 332.711C234.583 332.688 234.436 332.62 234.316 332.514L229.184 327.53V332.39C229.184 332.478 229.151 332.563 229.092 332.625C229.033 332.687 228.953 332.722 228.869 332.722H227.605C227.53 332.723 227.457 332.696 227.4 332.646C227.342 332.596 227.303 332.526 227.29 332.449Z" fill="#444053"/>
<path d="M351.288 320.706V332.449C351.288 332.493 351.279 332.537 351.263 332.577C351.247 332.618 351.223 332.655 351.194 332.686C351.164 332.717 351.128 332.741 351.089 332.757C351.05 332.773 351.009 332.781 350.967 332.781H349.733C349.65 332.781 349.57 332.746 349.511 332.683C349.452 332.621 349.419 332.537 349.419 332.449V327.563L344.287 332.572C344.166 332.678 344.019 332.745 343.863 332.768C343.707 332.79 343.549 332.766 343.405 332.698C343.262 332.631 343.139 332.522 343.05 332.385C342.962 332.248 342.912 332.087 342.905 331.922V321.246C342.912 321.08 342.962 320.919 343.05 320.782C343.139 320.645 343.262 320.537 343.405 320.469C343.549 320.401 343.707 320.377 343.863 320.4C344.019 320.422 344.166 320.49 344.287 320.595L349.419 325.579V320.725C349.419 320.637 349.452 320.553 349.511 320.491C349.57 320.428 349.65 320.393 349.733 320.393H350.967C351.048 320.392 351.127 320.423 351.187 320.481C351.247 320.54 351.283 320.62 351.288 320.706V320.706Z" fill="#444053"/>
<path d="M287.195 332.956H284.685C284.358 332.956 284.044 332.819 283.812 332.575C283.581 332.331 283.451 332 283.451 331.655V321.935C283.451 321.59 283.581 321.259 283.812 321.015C284.044 320.771 284.358 320.634 284.685 320.634H287.195C287.522 320.634 287.836 320.771 288.068 321.015C288.299 321.259 288.429 321.59 288.429 321.935V331.655C288.429 332 288.299 332.331 288.068 332.575C287.836 332.819 287.522 332.956 287.195 332.956ZM295.152 331.655V321.935C295.152 321.59 295.022 321.259 294.791 321.015C294.559 320.771 294.246 320.634 293.919 320.634H291.383C291.056 320.634 290.742 320.771 290.511 321.015C290.28 321.259 290.15 321.59 290.15 321.935V331.655C290.15 332 290.28 332.331 290.511 332.575C290.742 332.819 291.056 332.956 291.383 332.956H293.894C294.058 332.959 294.221 332.928 294.374 332.865C294.526 332.801 294.665 332.705 294.782 332.584C294.899 332.463 294.992 332.318 295.056 332.159C295.119 331.999 295.152 331.828 295.152 331.655V331.655Z" fill="#444053"/>
<path opacity="0.6" d="M363.304 304.877H215.269V306.614H363.304V304.877Z" fill="#444053"/>
<path d="M260.981 309.86C263.137 309.86 264.885 308.017 264.885 305.742C264.885 303.468 263.137 301.624 260.981 301.624C258.824 301.624 257.076 303.468 257.076 305.742C257.076 308.017 258.824 309.86 260.981 309.86Z" fill="#444053"/>
<path d="M260.981 304.877H215.269V306.614H260.981V304.877Z" fill="#444053"/>
<path d="M590.34 500.937C610.599 500.937 627.022 497.605 627.022 493.494C627.022 489.384 610.599 486.052 590.34 486.052C570.081 486.052 553.658 489.384 553.658 493.494C553.658 497.605 570.081 500.937 590.34 500.937Z" fill="#FF3DB0"/>
<path d="M589.73 496.227C592.088 496.227 593.999 493.588 593.999 490.333C593.999 487.077 592.088 484.438 589.73 484.438C587.373 484.438 585.462 487.077 585.462 490.333C585.462 493.588 587.373 496.227 589.73 496.227Z" fill="#3F3D56"/>
<path d="M589.73 489.018C592.088 489.018 593.999 486.379 593.999 483.124C593.999 479.869 592.088 477.23 589.73 477.23C587.373 477.23 585.462 479.869 585.462 483.124C585.462 486.379 587.373 489.018 589.73 489.018Z" fill="#3F3D56"/>
<path d="M589.73 481.816C592.088 481.816 593.999 479.178 593.999 475.922C593.999 472.667 592.088 470.028 589.73 470.028C587.373 470.028 585.462 472.667 585.462 475.922C585.462 479.178 587.373 481.816 589.73 481.816Z" fill="#3F3D56"/>
<path d="M589.73 474.608C592.088 474.608 593.999 471.969 593.999 468.714C593.999 465.458 592.088 462.819 589.73 462.819C587.373 462.819 585.462 465.458 585.462 468.714C585.462 471.969 587.373 474.608 589.73 474.608Z" fill="#3F3D56"/>
<path d="M589.73 467.399C592.088 467.399 593.999 464.76 593.999 461.505C593.999 458.25 592.088 455.611 589.73 455.611C587.373 455.611 585.462 458.25 585.462 461.505C585.462 464.76 587.373 467.399 589.73 467.399Z" fill="#3F3D56"/>
<path d="M589.73 460.191C592.088 460.191 593.999 457.552 593.999 454.297C593.999 451.041 592.088 448.402 589.73 448.402C587.373 448.402 585.462 451.041 585.462 454.297C585.462 457.552 587.373 460.191 589.73 460.191Z" fill="#3F3D56"/>
<path d="M589.73 452.982C592.088 452.982 593.999 450.343 593.999 447.088C593.999 443.833 592.088 441.194 589.73 441.194C587.373 441.194 585.462 443.833 585.462 447.088C585.462 450.343 587.373 452.982 589.73 452.982Z" fill="#3F3D56"/>
<path d="M605.712 397.774C606.294 396.988 606.826 396.162 607.303 395.302L596.077 393.35L608.216 393.448C609.378 390.775 610.012 387.881 610.079 384.941C610.146 382.002 609.644 379.078 608.604 376.35L592.333 385.263L607.346 373.624C605.94 371.059 604.047 368.827 601.787 367.067C599.527 365.307 596.947 364.057 594.209 363.395C591.471 362.733 588.632 362.672 585.871 363.217C583.109 363.763 580.484 364.902 578.158 366.564C575.833 368.226 573.856 370.376 572.353 372.879C570.849 375.382 569.85 378.185 569.419 381.113C568.987 384.041 569.132 387.031 569.844 389.898C570.556 392.764 571.82 395.445 573.557 397.774C572.652 398.985 571.871 400.294 571.226 401.677L585.795 409.66L570.263 404.163C569.173 407.562 568.903 411.195 569.478 414.732C570.053 418.269 571.455 421.6 573.557 424.422C571.185 427.604 569.71 431.426 569.301 435.451C568.891 439.476 569.563 443.541 571.241 447.182C572.918 450.823 575.533 453.893 578.786 456.041C582.039 458.188 585.8 459.327 589.637 459.327C593.475 459.327 597.236 458.188 600.489 456.041C603.742 453.893 606.357 450.823 608.034 447.182C609.712 443.541 610.384 439.476 609.974 435.451C609.565 431.426 608.09 427.604 605.718 424.422C608.551 420.619 610.091 415.922 610.091 411.085C610.091 406.248 608.551 401.551 605.718 397.748L605.712 397.774Z" fill="#FF3DB0"/>
<path opacity="0.1" d="M569.184 411.111C569.175 415.949 570.716 420.649 573.557 424.448C571.185 427.63 569.71 431.452 569.3 435.477C568.891 439.502 569.563 443.567 571.24 447.208C572.918 450.849 575.532 453.919 578.786 456.067C582.039 458.214 585.799 459.353 589.637 459.353C593.475 459.353 597.236 458.214 600.489 456.067C603.742 453.919 606.357 450.849 608.034 447.208C609.711 443.567 610.384 439.502 609.974 435.477C609.564 431.452 608.089 427.63 605.718 424.448C608.456 420.785 569.184 408.691 569.184 411.111Z" fill="black"/>
<path opacity="0.1" d="M178.876 541C212.601 541 239.941 534.883 239.941 527.338C239.941 519.792 212.601 513.675 178.876 513.675C145.151 513.675 117.812 519.792 117.812 527.338C117.812 534.883 145.151 541 178.876 541Z" fill="#FF3DB0"/>
<path d="M199.324 525.75C198.09 525.276 196.77 525.354 195.481 525.204C192.804 524.878 190.312 523.602 188.412 521.587C187.191 520.284 186.23 518.735 185.587 517.033C185.994 517.189 186.402 517.351 186.821 517.527C185.587 514.489 186.883 511.08 188.018 508.009C189.942 502.804 191.762 497.571 193.476 492.31C197.794 478.98 201.495 465.116 201.415 450.933C201.415 445.807 200.52 440.96 200.348 435.84C200.218 432.04 200.773 428.247 200.749 424.441C200.749 423.908 200.749 423.381 200.712 422.847C201.815 421.829 202.682 420.556 203.246 419.128C203.809 417.7 204.054 416.155 203.962 414.611C203.9 413.807 203.79 413.007 203.635 412.217C203.417 410.844 203.129 409.485 202.772 408.144C202.365 406.732 201.81 405.379 201.335 404C200.416 401.326 199.793 398.542 199.009 395.822C199.299 395.854 199.583 395.935 199.848 396.063C199.651 395.818 199.515 395.525 199.453 395.211C198.993 393.479 198.744 391.693 198.713 389.895L199.237 389.648C199.474 387.893 199.388 386.106 198.985 384.385C199.281 381.594 199.743 378.783 200.027 376.005C200.132 374.964 200.089 373.657 199.182 373.403C198.997 371.913 198.923 370.404 198.849 368.901C198.59 363.657 198.333 358.416 198.078 353.176C197.819 347.913 197.56 342.656 197.461 337.387C197.393 334.043 197.356 330.582 196.604 327.381C196.734 325.847 196.585 324.301 196.166 322.827C195.018 318.995 191.453 315.956 187.839 316.171C186.761 314.544 185.428 313.123 183.897 311.968C184.619 310.264 185.483 308.507 186.192 307.128C191.978 305.144 196.209 299.126 196.209 291.969C196.217 289.35 195.636 286.765 194.513 284.429C194.619 284.142 194.709 283.849 194.784 283.551C195.094 282.146 194.997 280.675 194.506 279.328C194.333 278.812 194.127 278.307 193.89 277.819C193.729 277.494 193.557 277.169 193.378 276.856L193.063 276.355C192.872 276.05 192.675 275.757 192.446 275.471C192.008 274.85 191.539 274.255 191.04 273.688C190.426 272.987 189.748 272.351 189.017 271.788C188.025 271.011 186.891 270.459 185.686 270.168C184.989 270.023 184.28 269.956 183.57 269.967C183.145 269.967 182.713 269.967 182.287 270.006C181.424 270.058 180.567 270.123 179.709 270.116C179.425 270.116 179.135 270.116 178.852 270.071C177.342 269.858 175.85 269.53 174.386 269.088L173.646 268.926C173.393 268.874 173.146 268.828 172.893 268.796C172.217 268.7 171.534 268.657 170.852 268.665H170.167C169.483 268.7 168.802 268.774 168.125 268.887L167.447 268.997C165.734 269.28 164.064 269.803 162.482 270.552C162.278 270.65 162.068 270.76 161.865 270.877L161.741 270.949C161.575 271.04 161.408 271.138 161.248 271.242L161.155 271.3L160.631 271.652L160.588 271.684C155.69 275.158 152.798 281.742 152.064 288.274C151.243 295.606 152.68 302.997 154.118 310.212L155.413 316.718C155.468 317.01 155.53 317.297 155.586 317.589C153.764 319.166 152.363 321.215 151.521 323.536C150.287 326.789 150.256 330.308 150.355 333.834C150.355 334.55 150.392 335.266 150.46 335.981C150.306 337.335 150.17 338.694 150.084 340.061C149.695 346.371 150.423 352.714 150.232 359.038C150.084 363.911 149.387 368.797 149.726 373.637C150.022 377.931 151.114 382.095 152.193 386.239L153.747 392.146C153.798 392.452 153.933 392.735 154.136 392.96C154.391 393.14 154.704 393.208 155.006 393.148C153.995 395.571 153.149 398.067 152.477 400.617C152.012 402.179 151.706 403.788 151.564 405.418C151.36 408.398 152.014 411.358 152.668 414.253C153.655 418.59 154.638 422.945 155.616 427.317C156.307 430.375 156.996 433.43 157.683 436.484C159.04 442.508 160.403 448.572 160.656 454.772C160.797 457.885 160.59 461.006 160.039 464.069C158.259 473.24 158.001 482.668 159.274 491.933C160.304 499.75 161.973 507.458 164.264 514.97C164.764 514.691 165.27 514.43 165.788 514.19L165.572 514.612C164.86 515.914 164.202 517.247 163.598 518.614C163.191 519.501 162.838 520.416 162.543 521.352C161.754 523.955 161.63 526.726 161.519 529.465C161.463 529.992 161.507 530.525 161.649 531.033C161.988 532.016 162.963 532.516 163.869 532.79C166.534 533.59 169.303 533.304 172.073 532.926C172.086 532.991 172.104 533.054 172.128 533.115C172.468 534.097 173.436 534.598 174.349 534.872C178.161 536.017 182.183 534.937 186.112 534.546C190.041 534.156 193.902 534.442 197.683 533.486C198.247 533.359 198.788 533.139 199.287 532.835C200.259 532.118 200.972 531.075 201.31 529.875C201.428 529.564 201.507 529.238 201.544 528.906C201.699 527.481 200.545 526.225 199.324 525.75ZM186.278 465.5C186.066 467.024 185.65 468.509 185.045 469.911C182.077 476.566 179.95 483.602 178.716 490.84C177.907 495.621 177.438 500.46 177.316 505.316C177.254 508.894 177.384 512.641 175.971 515.855L176.483 515.77C176.323 516.083 176.169 516.421 176.021 516.668L175.947 516.811C175.092 515.277 174.521 513.586 174.263 511.828C174.263 511.769 173.985 511.724 173.56 511.698C171.816 501.421 171.211 490.965 171.758 480.541C171.767 479.277 171.933 478.019 172.252 476.8C172.566 475.753 173.097 474.797 173.485 473.782C174.102 472.077 174.516 470.298 174.719 468.486C175.391 463.855 175.651 459.168 175.496 454.485C175.348 450.068 176.317 445.676 177.143 441.279C177.538 439.19 177.902 437.095 178.099 435L178.136 434.578C181.806 440.963 184.371 447.986 185.711 455.318C186.456 458.652 186.648 462.097 186.278 465.5V465.5ZM159.879 371.477L160.076 371.659C160.672 372.213 161.221 372.82 161.717 373.475C161.963 373.76 162.141 374.103 162.235 374.477C162.42 375.426 161.674 376.233 161.063 376.929C160.798 377.231 160.548 377.548 160.317 377.879C160.185 375.745 160.045 373.611 159.897 371.477H159.879Z" fill="url(#paint0_linear)"/>
<path d="M151.342 330.698L150.663 336.222C150.435 338.096 150.207 339.963 150.084 341.843C149.67 348.102 150.435 354.386 150.238 360.658C150.077 365.485 149.35 370.306 149.701 375.127C150.016 379.382 151.163 383.519 152.31 387.618L153.939 393.473C153.994 393.779 154.136 394.06 154.346 394.28C154.66 394.476 155.032 394.539 155.388 394.456L162.617 393.766C162.155 391.528 161.643 389.212 161.384 386.915C161.186 385.12 161.069 383.311 160.946 381.503C160.563 375.869 160.125 370.234 159.712 364.587L158.941 354.699C158.614 350.405 158.275 346.091 157.251 341.921C156.224 337.709 154.189 333.845 151.342 330.698Z" fill="#FF3DB0"/>
<path opacity="0.1" d="M151.342 330.698L150.663 336.222C150.435 338.096 150.207 339.963 150.084 341.843C149.67 348.102 150.435 354.386 150.238 360.658C150.077 365.485 149.35 370.306 149.701 375.127C150.016 379.382 151.163 383.519 152.31 387.618L153.939 393.473C153.994 393.779 154.136 394.06 154.346 394.28C154.66 394.476 155.032 394.539 155.388 394.456L162.617 393.766C162.155 391.528 161.643 389.212 161.384 386.915C161.186 385.12 161.069 383.311 160.946 381.503C160.563 375.869 160.125 370.234 159.712 364.587L158.941 354.699C158.614 350.405 158.275 346.091 157.251 341.921C156.224 337.709 154.189 333.845 151.342 330.698Z" fill="black"/>
<path d="M164.22 518.73C163.796 519.611 163.425 520.52 163.11 521.45C162.284 524.02 162.16 526.778 162.037 529.491C161.982 530.014 162.028 530.543 162.173 531.046C162.53 532.022 163.554 532.516 164.51 532.783C168.513 533.922 172.732 532.855 176.847 532.464C180.961 532.074 185.025 532.36 188.998 531.417C189.584 531.297 190.152 531.089 190.682 530.799C191.687 530.108 192.439 529.075 192.81 527.871C192.929 527.563 193.01 527.239 193.05 526.908C193.18 525.477 192.002 524.241 190.719 523.773C189.436 523.304 188.036 523.376 186.685 523.233C183.903 522.932 181.292 521.672 179.258 519.648C177.224 517.624 175.88 514.948 175.434 512.036C175.385 511.724 168.748 511.912 168.032 512.316C167.218 512.791 166.725 513.968 166.262 514.768C165.534 516.057 164.854 517.377 164.22 518.73Z" fill="#A26565"/>
<path opacity="0.1" d="M164.22 518.73C163.796 519.611 163.425 520.52 163.11 521.45C162.284 524.02 162.16 526.778 162.037 529.491C161.982 530.014 162.028 530.543 162.173 531.046C162.53 532.022 163.554 532.516 164.51 532.783C168.513 533.922 172.732 532.855 176.847 532.464C180.961 532.074 185.025 532.36 188.998 531.417C189.584 531.297 190.152 531.089 190.682 530.799C191.687 530.108 192.439 529.075 192.81 527.871C192.929 527.563 193.01 527.239 193.05 526.908C193.18 525.477 192.002 524.241 190.719 523.773C189.436 523.304 188.036 523.376 186.685 523.233C183.903 522.932 181.292 521.672 179.258 519.648C177.224 517.624 175.88 514.948 175.434 512.036C175.385 511.724 168.748 511.912 168.032 512.316C167.218 512.791 166.725 513.968 166.262 514.768C165.534 516.057 164.854 517.377 164.22 518.73Z" fill="black"/>
<path d="M175.231 520.799C174.804 521.677 174.433 522.583 174.121 523.512C173.288 526.115 173.165 528.841 173.047 531.554C172.99 532.076 173.036 532.606 173.183 533.109C173.535 534.084 174.559 534.579 175.515 534.852C179.518 535.984 183.743 534.917 187.851 534.527C191.959 534.136 196.036 534.423 200.002 533.479C200.592 533.354 201.159 533.134 201.686 532.829C202.693 532.14 203.445 531.106 203.814 529.901C203.934 529.593 204.015 529.269 204.055 528.938C204.184 527.514 203.006 526.271 201.723 525.802C200.44 525.334 199.04 525.412 197.689 525.263C194.908 524.962 192.299 523.702 190.265 521.679C188.231 519.656 186.886 516.983 186.438 514.072C186.389 513.76 179.752 513.942 179.037 514.346C178.216 514.821 177.723 515.998 177.26 516.798C176.557 518.119 175.866 519.446 175.231 520.799Z" fill="#A26565"/>
<path d="M203.931 451.688C204.018 465.747 200.144 479.487 195.598 492.675C193.797 497.905 191.887 503.09 189.868 508.23C188.671 511.275 187.32 514.658 188.603 517.664C184.903 516.18 181.14 515.308 177.248 515.992C178.728 512.804 178.586 509.095 178.654 505.582C178.78 500.767 179.267 495.971 180.11 491.237C181.416 484.032 183.656 477.051 186.765 470.49C187.394 469.106 187.828 467.633 188.054 466.118C188.56 462.774 188.165 459.339 187.505 456.027C186.086 448.713 183.387 441.741 179.549 435.469L179.512 435.885C179.281 437.977 178.948 440.056 178.512 442.111C177.643 446.464 176.625 450.823 176.779 455.201C176.94 459.844 176.667 464.492 175.965 469.078C175.739 470.879 175.293 472.641 174.639 474.322C174.213 475.33 173.658 476.273 173.325 477.321C172.992 478.526 172.817 479.774 172.807 481.029C172.313 491.614 172.807 502.362 174.855 512.739C171.419 512.452 167.983 513.5 164.912 515.126C162.51 507.698 160.755 500.055 159.669 492.291C158.33 483.109 158.602 473.746 160.471 464.667C161.053 461.639 161.27 458.546 161.118 455.461C160.853 449.313 159.422 443.302 157.997 437.329L155.826 428.221C154.798 423.884 153.77 419.566 152.742 415.268C152.057 412.399 151.366 409.465 151.582 406.511C151.733 404.891 152.056 403.293 152.544 401.749C154.084 396.496 156.388 391.527 159.373 387.02C171.259 387.722 183.286 386.551 195.148 385.588C195.723 385.469 196.32 385.575 196.826 385.888C197.23 386.321 197.471 386.894 197.504 387.501L201.964 414.175C202.686 417.882 203.109 421.648 203.228 425.43C203.228 429.204 202.673 432.964 202.809 436.731C202.994 441.805 203.907 446.607 203.931 451.688Z" fill="#454B69"/>
<path opacity="0.1" d="M179.524 435.885C179.293 437.977 178.96 440.056 178.525 442.111C175.94 437.394 173.152 432.795 170.771 427.961C170.154 426.718 169.575 425.456 168.989 424.194L167.231 420.421C166.904 419.712 166.577 419.002 166.281 418.28C165.799 417.243 165.428 416.152 165.177 415.027C166.04 414.858 168.174 417.317 168.816 417.961C170.124 419.328 171.36 420.77 172.517 422.281C173.922 423.961 175.212 425.744 176.378 427.616C177.871 430.161 178.935 432.958 179.524 435.885V435.885Z" fill="black"/>
<path d="M189.424 306.477C189.424 306.477 182.824 317.57 184.045 319.892C185.267 322.215 163.259 317.83 163.259 317.83C163.259 317.83 175.243 306.738 174.016 302.092C172.789 297.447 189.424 306.477 189.424 306.477Z" fill="#B36D6D"/>
<path d="M183.557 309.834C191.798 309.834 198.478 302.788 198.478 294.097C198.478 285.405 191.798 278.359 183.557 278.359C175.317 278.359 168.637 285.405 168.637 294.097C168.637 302.788 175.317 309.834 183.557 309.834Z" fill="#B36D6D"/>
<path d="M189.645 318.11C188.048 315.772 185.88 313.933 183.372 312.788C181.927 312.242 180.433 311.854 178.913 311.63L172.961 310.524C171.505 310.251 169.944 309.997 168.587 310.628C167.901 310.999 167.276 311.485 166.737 312.066C164.671 314.089 162.666 316.308 160.069 317.479C159.36 317.798 158.62 318.032 157.91 318.35C155.005 319.652 152.834 322.423 151.606 325.507C150.311 328.721 150.274 332.214 150.373 335.708C150.371 336.914 150.485 338.117 150.712 339.299C151.009 340.425 151.386 341.526 151.841 342.591C152.661 344.872 153.349 347.203 153.901 349.572C155.443 355.796 156.726 362.085 157.75 368.439C157.837 369.349 158.09 370.233 158.496 371.041C159.071 371.85 159.767 372.556 160.556 373.13C161.183 373.672 161.759 374.275 162.277 374.932C162.536 375.2 162.728 375.53 162.839 375.895C163.03 376.832 162.222 377.638 161.605 378.321C160.278 379.75 159.318 381.512 158.817 383.441C158.508 383.837 158.349 384.341 158.373 384.853C158.501 385.21 158.55 385.593 158.515 385.972C158.393 386.318 158.202 386.631 157.953 386.89C157.669 387.281 157.467 387.731 157.36 388.212C157.254 388.692 157.246 389.19 157.337 389.674C161.96 391.793 166.908 393.014 171.943 393.278C173.176 393.343 174.41 393.343 175.644 393.499C176.52 393.617 177.383 393.805 178.259 393.916C179.53 394.042 180.808 394.076 182.083 394.02C188.726 393.877 195.561 393.701 201.661 390.923C202.235 387.625 200.995 384.261 200.218 381.008C198.984 375.804 198.676 370.475 197.75 365.225C197.133 361.64 196.208 358.108 195.684 354.497C195.16 350.886 195.067 347.145 195.98 343.632C196.813 340.522 197.066 337.348 197.929 334.244C198.793 331.141 199.397 327.777 198.423 324.707C197.189 320.907 193.445 317.895 189.645 318.11Z" fill="#FF3DB0"/>
<path d="M196.973 285.75C197.701 282.959 196.27 280.051 194.567 277.78C192.717 275.34 190.361 273.141 187.468 272.53C185.118 272.029 182.681 272.634 180.288 272.432C178.172 272.257 176.137 271.45 174.034 271.131C172.125 270.914 170.197 270.991 168.31 271.359C166.518 271.64 164.767 272.155 163.098 272.894C156.744 275.867 153.025 283.193 152.161 290.46C151.298 297.727 152.809 305.053 154.314 312.202L155.677 318.669C157.096 325.403 158.515 332.162 158.891 339.046C159.267 345.929 158.564 352.994 155.881 359.279C164.558 354.363 171.281 346.334 174.836 336.645C175.798 333.984 176.513 331.219 177.586 328.604C178.506 326.353 179.684 324.219 180.498 321.922C181.418 319.33 181.86 316.577 181.799 313.809C181.75 311.728 181.423 309.659 181.479 307.577C181.534 305.495 182.04 303.329 183.403 301.819C184.637 300.485 186.333 299.867 187.893 299.002C190.35 297.671 192.497 295.783 194.179 293.472C195.16 292.119 195.215 291.52 195.462 289.985C195.709 288.45 196.591 287.227 196.973 285.75Z" fill="black"/>
<path d="M196.992 403.967C197.146 405.587 196.868 407.22 197.202 408.827C197.454 410.024 198.04 411.104 198.386 412.275C198.728 413.628 198.904 415.02 198.91 416.42C198.959 417.591 198.873 419.022 197.886 419.568C197.454 419.809 196.936 419.809 196.486 420.017C196.036 420.226 195.653 420.792 195.912 421.234C196.171 421.676 196.616 421.605 197.023 421.689C197.43 421.774 197.868 422.216 197.639 422.574C197.547 422.691 197.422 422.775 197.282 422.815C196.87 422.949 196.479 423.146 196.122 423.4C195.948 423.534 195.811 423.716 195.727 423.926C195.644 424.136 195.616 424.366 195.647 424.591C195.672 424.699 195.72 424.799 195.787 424.885C195.853 424.97 195.938 425.039 196.033 425.085C196.129 425.131 196.233 425.154 196.338 425.152C196.443 425.15 196.547 425.123 196.64 425.072C196.459 425.48 196.361 425.923 196.35 426.374C197.929 427.089 199.7 426.152 201.18 425.248C201.82 424.871 202.438 424.454 203.03 423.999C204.228 423.029 205.182 421.765 205.81 420.317C206.438 418.869 206.72 417.281 206.633 415.691C206.562 414.893 206.445 414.099 206.281 413.316C206.053 411.952 205.751 410.603 205.374 409.276C204.949 407.877 204.369 406.544 203.869 405.171C202.808 402.25 202.124 399.192 201.161 396.232C201.097 395.925 200.934 395.651 200.699 395.458C200.487 395.348 200.25 395.3 200.014 395.321C198.934 395.261 197.852 395.367 196.801 395.634C196.184 395.829 195.129 396.284 194.839 396.935C194.549 397.585 195.012 398.132 195.289 398.672C196.176 400.304 196.754 402.103 196.992 403.967Z" fill="#EFB7B9"/>
<path opacity="0.1" d="M195.987 324.915C196.304 325.257 196.57 325.647 196.776 326.073C198.898 330.139 198.923 334.999 199.022 339.638C199.133 344.842 199.404 350.047 199.676 355.284L200.484 370.898C200.564 372.388 200.638 373.878 200.841 375.355C201.791 375.608 201.828 376.91 201.723 377.957C201.039 384.32 199.342 390.871 201.107 396.993C201.175 397.307 201.317 397.598 201.52 397.839C200.624 397.543 199.666 397.529 198.763 397.8C197.881 397.995 197.029 398.34 196.141 398.555C195.019 398.821 193.748 398.938 192.983 399.856C192.116 397.106 191.426 394.298 190.917 391.45C190.497 388.848 190.38 386.167 189.381 383.76C188.98 382.791 188.437 381.893 187.944 380.963C185.359 376.096 184.089 370.599 182.849 365.173C182.293 362.601 182.159 359.947 182.454 357.327C182.634 356.132 182.737 354.926 182.762 353.716C182.687 352.44 182.529 351.17 182.288 349.917C181.764 346.238 182.01 342.483 183.009 338.915C183.934 335.604 184.749 332.117 186.71 329.332C188.672 326.548 192.712 324.96 195.987 324.915Z" fill="black"/>
<path d="M196.721 324.395C197.038 324.739 197.304 325.131 197.51 325.559C199.632 329.619 199.657 334.485 199.756 339.124C199.867 344.328 200.138 349.533 200.409 354.738L201.217 370.352C201.298 371.842 201.372 373.331 201.575 374.808C202.525 375.062 202.562 376.363 202.451 377.411C201.773 383.773 200.076 390.318 201.834 396.447C201.902 396.761 202.044 397.052 202.248 397.293C201.352 396.996 200.393 396.983 199.49 397.253C198.608 397.449 197.757 397.793 196.869 398.002C195.746 398.275 194.476 398.385 193.711 399.303C192.847 396.54 192.163 393.719 191.663 390.858C191.244 388.256 191.126 385.582 190.127 383.175C189.693 382.217 189.213 381.284 188.69 380.377C186.099 375.511 184.835 370.007 183.595 364.581C183.039 362.009 182.905 359.355 183.2 356.735C183.665 354.282 183.608 351.752 183.034 349.325C182.51 345.648 182.756 341.895 183.755 338.33C184.681 335.019 185.495 331.531 187.456 328.747C189.418 325.962 193.446 324.447 196.721 324.395Z" fill="#FF3DB0"/>
<g opacity="0.1">
<path opacity="0.1" d="M194.567 277.78C192.717 275.34 190.361 273.141 187.468 272.53C185.118 272.029 182.681 272.634 180.288 272.432C178.172 272.257 176.137 271.45 174.034 271.131C172.125 270.914 170.197 270.991 168.31 271.359C166.518 271.64 164.767 272.155 163.098 272.894C162.195 273.32 161.334 273.837 160.525 274.436C162.012 273.827 163.557 273.391 165.133 273.135C167.018 272.766 168.945 272.69 170.851 272.907C172.96 273.193 174.99 273.994 177.112 274.169C179.499 274.371 181.935 273.772 184.291 274.267C187.184 274.878 189.553 277.084 191.385 279.524C193.093 281.788 194.518 284.696 193.796 287.493C193.414 288.964 192.526 290.252 192.285 291.768C192.045 293.283 191.983 293.902 190.996 295.255C189.731 296.99 188.201 298.492 186.469 299.698C186.944 299.464 187.431 299.23 187.893 298.976C190.35 297.645 192.497 295.756 194.179 293.446C195.159 292.093 195.215 291.494 195.462 289.959C195.708 288.424 196.591 287.161 196.973 285.685C197.701 282.959 196.27 280.051 194.567 277.78Z" fill="black"/>
<path opacity="0.1" d="M183.403 301.858C183.659 301.579 183.937 301.324 184.236 301.097C182.811 301.826 181.312 302.463 180.22 303.7C178.857 305.202 178.37 307.375 178.296 309.457C178.222 311.539 178.573 313.608 178.617 315.683C178.677 318.452 178.235 321.208 177.315 323.803C176.501 326.099 175.323 328.227 174.404 330.484C173.337 333.086 172.621 335.858 171.659 338.519C168.575 346.919 163.1 354.106 155.986 359.09C155.949 359.175 155.918 359.266 155.881 359.35C164.558 354.434 171.281 346.406 174.836 336.717C175.798 334.056 176.513 331.291 177.587 328.675C178.506 326.424 179.684 324.291 180.498 321.994C181.418 319.402 181.86 316.648 181.799 313.881C181.75 311.799 181.423 309.73 181.479 307.649C181.534 305.567 182.04 303.368 183.403 301.858Z" fill="black"/>
</g>
<defs>
<linearGradient id="paint0_linear" x1="176.829" y1="535.36" x2="176.829" y2="268.685" gradientUnits="userSpaceOnUse">
<stop stop-color="#808080" stop-opacity="0.25"/>
<stop offset="0.54" stop-color="#808080" stop-opacity="0.12"/>
<stop offset="1" stop-color="#808080" stop-opacity="0.1"/>
</linearGradient>
</defs>
</svg>
