<svg id="Слой_1" data-name="Слой 1" xmlns="http://www.w3.org/2000/svg" xmlns:xlink="http://www.w3.org/1999/xlink" viewBox="0 0 1080 780.3"><defs><style>.cls-1{fill:url(#linear-gradient);}.cls-2{fill:#fff;}.cls-3{fill:url(#linear-gradient-2);}.cls-4{fill:url(#linear-gradient-3);}.cls-5{fill:url(#linear-gradient-4);}.cls-6{fill:url(#linear-gradient-5);}.cls-7{fill:url(#linear-gradient-6);}.cls-8{fill:#5c5049;}.cls-9{fill:#fab46c;}.cls-10{fill:#fccca2;}.cls-11{fill:#d4c3bd;}.cls-12{fill:#de9673;}.cls-13{fill:#ec008c;}.cls-14{fill:#eea886;}.cls-15{fill:#e6d3cc;}.cls-16{fill:#ded1c5;}.cls-17{fill:#bc8551;}.cls-18{fill:#a77860;}.cls-19{fill:#23344a;}.cls-20{fill:#807066;}</style><linearGradient id="linear-gradient" x1="507.66" y1="309.35" x2="709.17" y2="309.35" gradientUnits="userSpaceOnUse"><stop offset="0" stop-color="#40d5e6"/><stop offset="1" stop-color="#57f"/></linearGradient><linearGradient id="linear-gradient-2" x1="655.49" y1="421.8" x2="837.72" y2="421.8" xlink:href="#linear-gradient"/><linearGradient id="linear-gradient-3" x1="671.06" y1="448.29" x2="807.84" y2="448.29" xlink:href="#linear-gradient"/><linearGradient id="linear-gradient-4" x1="621.67" y1="338.23" x2="780.96" y2="338.23" xlink:href="#linear-gradient"/><linearGradient id="linear-gradient-5" x1="585.12" y1="566.71" x2="732.11" y2="566.71" gradientUnits="userSpaceOnUse"><stop offset="0" stop-color="#ff9340"/><stop offset="1" stop-color="#ffce45"/></linearGradient><linearGradient id="linear-gradient-6" x1="585.12" y1="566.71" x2="732.11" y2="566.71" gradientUnits="userSpaceOnUse"><stop offset="0" stop-color="#c97332"/><stop offset="1" stop-color="#ffce45"/></linearGradient></defs><title>Laptop lady</title><path class="cls-1" d="M525.27,43.07c17.38-8.3,34.67,47,34.67,47,29.53,39,70.81-12.89,66.77,45.45-7.07,102.08,117.5,32.1,60,138.67s50.74,60.26,15,146.2,10.57,188.43-43.16,146.31c0,0-47.31-103.75-96.1-135.85s29.23-70.2,14-113.8c-22.18-63.32-75.61-60.83-37.09-128.89S466.2,71.32,525.27,43.07Z"/><path class="cls-2" d="M675.63,527.66c-23.29-16.38-50.55-130.53-52.18-198.52-.83-34.83-11.12-49.34-20.21-62.14-8.68-12.24-16.18-22.8-11.81-47.07,8.35-46.38-13.6-66.39-13.82-66.58l2.54-2.9c1,.85,23.83,21.5,15.07,70.16-4.08,22.68,2.65,32.16,11.16,44.16,8.94,12.6,20.06,28.27,20.92,64.27,1.75,73,29.62,180.75,50.54,195.47Z"/><path class="cls-3" d="M684.34,536.12a49.18,49.18,0,0,1-9.84-1.07c-9-1.81-14.87-6.55-17.5-14.07-6.28-18,8.27-47.13,20.08-61.19.19-.23,20-24.39,17.85-57.87-.36-5.61-.94-10.8-1.45-15.38-1.49-13.25-2.56-22.82,3.13-29.22,5-5.63,14.7-8.07,32.37-8.16,31-.14,43.26-13,53.1-23.29,4.19-4.38,8.14-8.51,12.94-11.14h0c15.44-8.43,31.81-9.67,38.9-2.94,3.37,3.19,6.22,9.45.64,21.12-5.11,10.67-11.72,17.42-17,22.84-7.16,7.31-11.88,12.13-9.42,21.74.57,2.26,1.24,4.53,1.91,6.82,4.78,16.35,10.19,34.87-17.78,47.45-5.94,2.66-11.34,4.78-16.11,6.66-19.53,7.66-31.32,12.29-44.62,40.37-2.58,5.44-4.85,10.59-7,15.58C714,518.14,706,536.12,684.34,536.12Zm112.52-218c-4.27,2.33-7.85,6.07-12,10.41C774.52,339.37,761.63,352.86,729,353c-16.25.08-25.35,2.19-29.51,6.86-4.55,5.11-3.56,14-2.19,26.23.52,4.62,1.11,9.87,1.47,15.57,2.21,35.06-17.88,59.56-18.74,60.58-11.69,13.92-24.93,41.62-19.39,57.45,2.15,6.15,7.07,10,14.62,11.57,26.34,5.32,33.61-11.16,45.66-38.47,2.22-5,4.5-10.18,7.09-15.67,14-29.47,27-34.58,46.7-42.31,4.73-1.86,10.09-4,15.94-6.59,24.91-11.2,20.42-26.57,15.66-42.85-.68-2.32-1.35-4.65-1.94-6.94-3-11.72,2.91-17.75,10.39-25.39,5.39-5.5,11.5-11.72,16.32-21.81,2.53-5.29,4.62-12.47.19-16.67-5.82-5.51-20.61-4-34.41,3.54Z"/><path class="cls-4" d="M674.91,558.36l-3.85-.2c.2-3.61,5.05-88.8,39.25-113.74,37.52-27.35,49.36-56.75,55-76.48,6.64-23.24,40.43-29.46,41.87-29.71l.67,3.8c-.32.05-32.86,6.05-38.84,27-5.79,20.27-17.93,50.47-56.42,78.53C679.84,471.4,675,557.49,674.91,558.36Z"/><path class="cls-5" d="M753.11,129.05c-24.31-8.34-19.25,38.51-29.53,73.18S609.3,217.36,653,304.17s-55.21,29-25.68,104.8S629.85,565.74,662,545.14s18-116,51.42-127.35,38.83-24.55,5.78-55.37S805.76,301,776.23,238.78,781.2,138.68,753.11,129.05Z"/><path class="cls-2" d="M676.84,541.51c-3.06-13-29.16-127.11-4.8-140.9,21.47-12.16,20.94-59.46,17.59-104.11-3-39.54,47.81-58,50-58.78l1.29,3.63c-.5.18-50.16,18.26-47.42,54.86,3.45,45.86,3.81,94.53-19.53,107.75-18.51,10.48-1.47,102.2,6.65,136.66Z"/><polygon class="cls-6" points="732.11 500.87 697.4 632.55 619.83 632.55 585.12 500.87 732.11 500.87"/><path class="cls-7" d="M732.11,500.87S655.7,515.21,655.7,632.55H619.83L585.12,500.87Z"/><polygon class="cls-8" points="492.31 641.05 462.27 441.26 468.06 440.37 498.1 640.16 492.31 641.05"/><polygon class="cls-8" points="455.63 641.05 425.59 441.26 431.38 440.37 461.41 640.16 455.63 641.05"/><polygon class="cls-8" points="274.94 641.05 269.15 640.16 299.2 440.37 304.98 441.26 274.94 641.05"/><path class="cls-9" d="M471.67,443.3,495.2,195.71s-41.15-5.38-66-4.05L391.8,443.3Z"/><rect class="cls-9" x="391.8" y="430.71" width="79.87" height="12.59"/><path class="cls-9" d="M339.54,433.21,327.06,197.27S431.22,186,495.2,195.71Z"/><path class="cls-10" d="M422.72,120.88s16.09-47.17-14.61-61.79-56.75,6.51-61.67,18-3.62,32.23.58,46.74,3.58,36.58-5.54,44-20.43,19.65-19.87,44.61c.35,15.49,60.94-39.61,60.94-39.61Z"/><path class="cls-11" d="M381.77,628.45s-1,33.33,3.8,35.33,22.78-9.58,30.72-21-10-38.14-12.89-52.85c-1.23-6.17-15.23-17.25-22-14.08s-11.81,11.32-11.81,11.32S386.91,599,381.77,628.45Z"/><path class="cls-12" d="M369.54,587.12a183.85,183.85,0,0,1,8.95,20.2c3,8.83,3.6,33.27,5.52,35s17-5.92,19-15.06-4.11-27.41-9.94-37-11.75-14.42-11.75-14.42S371.05,577.8,369.54,587.12Z"/><polygon class="cls-11" points="403.4 589.88 419.62 613.55 416.55 615.66 404.01 597.36 403.4 589.88"/><path class="cls-12" d="M345,328.1s7.94,13.39,0,23.14-61.26,36.55-60.87,52S294.29,443,297.8,449.1s16.46,31.64,23.19,46.57,45.64,86.31,53.25,102.4,2.93-64.37,2.93-64.37L338.26,419.6,429.18,331S418.17,306.53,345,328.1Z"/><path class="cls-13" d="M379.59,177s-25.22,5.59-35.24,11.44-32.24,32.77-32.24,44.35,97.24,22.38,97.24,22.38l18.43,67.3s49.16-12,55-21.95-19.36-80.75-22.87-95.67-21.9-25-42.37-27.85A140.68,140.68,0,0,0,379.59,177Z"/><path class="cls-14" d="M439.22,330.31s-1.76,11.51,2.93,16.38S468.39,380,457,407.94c-10.48,25.66-30.82,25.17-30.82,25.17H394.68s9.14,46.17,6.19,76.6S384,609.62,383.75,613.13s-13.31,14.49-17.12,8.93c0,0-.35-41.84-2.4-57.64s-10.76-79-13.4-88.35-18.13-37.75-18.13-40.68S317.55,386.66,350.61,375,395.36,330.56,439.22,330.31Z"/><path class="cls-15" d="M351,654.33s-21.71,25.32-19.27,29.87,23.74,6.87,37.13,3,16.24-35.92,23.21-49.22c2.92-5.56-1-23-8.29-24.81s-16.3,1.38-16.3,1.38S373.47,634.69,351,654.33Z"/><path class="cls-14" d="M367.45,614.51a183.87,183.87,0,0,1-5.75,21.33C358.51,644.62,343.59,664,344,666.5s16.95,6.1,24.26.26,14-23.89,15.55-35-.07-18.6-.07-18.6S374.48,608.22,367.45,614.51Z"/><polygon class="cls-15" points="392.04 637.95 389.77 666.56 386.06 666.26 387.81 644.15 392.04 637.95"/><path class="cls-13" d="M457,407.94c-9.9,26-30.82,25.17-30.82,25.17H394.68s-13.13-20.8-45.27-24.38a95,95,0,0,0-24.24.58l-.33,0c-42.71,6.33-34.46,22-34.34,22.42-3.54-8.67-7.27-22.45-6.37-29.87,4.09-33.81,52.94-40.9,60.87-50.66s0-23.14,0-23.14c73.17-21.57,84.18,2.92,84.18,2.92,3.2-.44,11.42-5.18,14.92-5.2,0,0,3.66,8,6.24,15.22C452.61,347.4,467.71,379.74,457,407.94Z"/><polygon class="cls-16" points="426.62 221.81 437.44 322.46 294.95 322.46 284.13 221.81 426.62 221.81"/><rect class="cls-16" x="424.98" y="313.41" width="23.8" height="9.06"/><rect class="cls-17" x="196.75" y="322.46" width="392.47" height="13.7"/><path class="cls-14" d="M395.36,67.13s31.92,9.44,27.36,53.75-25.41,42-27.36,42.34-26.71,2-34.53-51.79S395.36,67.13,395.36,67.13Z"/><path class="cls-14" d="M410.57,155.08s-1.68,14.66,1.14,23.79-37.19,9.37-37.16,1.87c0-8.52,4.09-15.64.26-30.24S410.57,155.08,410.57,155.08Z"/><path class="cls-10" d="M387.12,86.88s17.35,27.6,35.6,34c0,0,10-46.3-31.2-56s-34.73,46.77-31.65,61.83C359.87,126.7,368.44,104.55,387.12,86.88Z"/><path class="cls-18" d="M379.54,157s12.63,13.16,28.79,1.37c0,0-1.34,8.41-12.95,9.5S379.54,157,379.54,157Z"/><path class="cls-19" d="M363.86,82.73S373,65,388.4,64.25,413,76.84,413,76.84s-6-15.06-24.57-15.06S363.86,82.73,363.86,82.73Z"/><path class="cls-14" d="M415.79,176.75s-.56,30.67-24.88,31.58-19.26-29.41-19.26-29.41S389.44,171.71,415.79,176.75Z"/><rect class="cls-20" x="579.15" y="336.16" width="10.08" height="314.7"/><rect class="cls-20" x="196.75" y="336.16" width="10.08" height="314.7"/></svg>