<svg width="48" height="48" viewBox="0 0 48 48" fill="none" xmlns="http://www.w3.org/2000/svg">
<path fill-rule="evenodd" clip-rule="evenodd" d="M24 48C37.2548 48 48 37.2548 48 24C48 10.7452 37.2548 0 24 0C10.7452 0 0 10.7452 0 24C0 37.2548 10.7452 48 24 48Z" fill="#FFE9F6"/>
<path d="M26.8783 16.8245C24.3411 14.9273 23.2819 16.7618 23.4551 17.769C23.6081 18.6633 24.7962 18.96 25.2835 19.0226C28.751 19.5366 26.4393 23.7866 23 21.1372" stroke="#F24AAA" stroke-width="1.7" stroke-linecap="round" stroke-linejoin="round"/>
<path d="M24.495 15L24.505 16" stroke="#F24AAA" stroke-width="1.7" stroke-linecap="round" stroke-linejoin="round"/>
<path d="M24.495 21L24.505 22" stroke="#F24AAA" stroke-width="1.7" stroke-linecap="round" stroke-linejoin="round"/>
<path d="M19.7106 23.776C17.8578 21.5932 17.4706 18.3887 18.7428 15.7648C20.0149 13.1409 22.673 11.6614 25.3879 12.0662C28.1028 12.4709 30.2911 14.6729 30.8587 17.571C31.4263 20.4692 30.2511 23.4408 27.9208 25" stroke="#F24AAA" stroke-width="1.7" stroke-linecap="round" stroke-linejoin="round"/>
<path d="M15 24V34" stroke="#F24AAA" stroke-width="1.7" stroke-linecap="round" stroke-linejoin="round"/>
<path d="M12.3333 34C11.7267 34 11 33.1966 11 32.5828V25.3797C11 24.7624 11.2433 23.9797 12.1867 24.0004H15" stroke="#F24AAA" stroke-width="1.7" stroke-linecap="round" stroke-linejoin="round"/>
<path d="M21.1717 27.385H28.3813L34.9821 25.1011C35.7085 24.8247 36.5379 25.1335 36.8655 25.8023C37.193 26.4712 36.903 27.2637 36.2069 27.602L23.9991 33L15 31.1743" stroke="#F24AAA" stroke-width="1.7" stroke-linecap="round" stroke-linejoin="round"/>
<path d="M15 24.5H25" stroke="#F24AAA" stroke-width="1.7" stroke-linecap="round" stroke-linejoin="round"/>
</svg>
