<svg width="140" height="140" viewBox="0 0 140 140" fill="none" xmlns="http://www.w3.org/2000/svg">
<g filter="url(#filter0_d)">
<path fill-rule="evenodd" clip-rule="evenodd" d="M70 90C86.5685 90 100 76.5685 100 60C100 43.4315 86.5685 30 70 30C53.4315 30 40 43.4315 40 60C40 76.5685 53.4315 90 70 90Z" fill="white"/>
<path d="M99.5 60C99.5 76.2924 86.2924 89.5 70 89.5C53.7076 89.5 40.5 76.2924 40.5 60C40.5 43.7076 53.7076 30.5 70 30.5C86.2924 30.5 99.5 43.7076 99.5 60Z" stroke="#DEECEC"/>
</g>
<path fill-rule="evenodd" clip-rule="evenodd" d="M69.5268 70.7515C74.7225 70.7515 78.9344 66.5396 78.9344 61.3439C78.9344 56.1482 74.7225 51.9363 69.5268 51.9363C69.4319 51.9347 69.3376 51.9209 69.2462 51.8955V53.2806C69.2454 53.5388 69.1006 53.7751 68.8709 53.8932C68.6413 54.0112 68.3649 53.9914 68.1544 53.8418L64.9531 51.546C64.7715 51.4168 64.6636 51.2077 64.6636 50.9848C64.6636 50.7619 64.7715 50.5528 64.9531 50.4236L68.1544 48.1278C68.3649 47.9782 68.6413 47.9584 68.8709 48.0765C69.1006 48.1945 69.2454 48.4308 69.2462 48.689V49.7247C69.3376 49.6992 69.4319 49.6854 69.5268 49.6839C75.6596 49.6822 80.745 54.4326 81.1606 60.5514C81.5762 66.6701 77.1799 72.0645 71.1032 72.8922C65.0265 73.7199 59.3476 69.6977 58.1116 63.6907C58.0087 63.2888 58.1353 62.8628 58.4411 62.5824C58.747 62.302 59.1823 62.2127 59.5738 62.3501C59.9654 62.4875 60.2495 62.8292 60.313 63.2392C61.2232 67.606 65.0662 70.7393 69.5268 70.7515ZM58.9483 60.8031C59.0093 60.81 59.0708 60.8108 59.132 60.8057C59.7361 60.8019 60.2294 60.3217 60.2493 59.718C60.2693 59.1142 59.8089 58.6024 59.2063 58.5588C58.6038 58.5151 58.0744 58.9551 58.0071 59.5555C57.9398 60.1558 58.3587 60.7021 58.956 60.7929L58.9483 60.8031ZM61.9457 53.9692C61.5491 53.491 61.6153 52.7818 62.0935 52.3852V52.3623C62.3258 52.1738 62.6238 52.0858 62.9212 52.1179C63.2186 52.15 63.4909 52.2995 63.6776 52.5332C64.0742 53.0115 64.0079 53.7206 63.5296 54.1172C63.0514 54.5137 62.3422 54.4475 61.9457 53.9692ZM61.3538 56.6733C61.6039 56.2321 61.5271 55.678 61.1665 55.3215C60.8058 54.965 60.2509 54.8946 59.8126 55.1498C59.3744 55.4049 59.1617 55.9223 59.2937 56.4119C59.4257 56.9016 59.8697 57.2418 60.3768 57.2421C60.781 57.2418 61.154 57.0246 61.3538 56.6733ZM68.7258 56.056C68.7258 55.5939 69.1004 55.2193 69.5625 55.2193V55.2218C70.0236 55.2232 70.3966 55.5974 70.3966 56.0585V56.5024C70.81 56.5244 71.2202 56.5877 71.6211 56.6911C72.094 56.813 72.4012 57.2692 72.3361 57.7533C72.271 58.2373 71.8543 58.5963 71.366 58.589C71.2796 58.588 71.1937 58.5752 71.1109 58.5507C70.7069 58.4305 70.2875 58.3704 69.8661 58.3721C69.1544 58.3721 68.7488 58.6196 68.7488 59.0532C68.7488 59.4282 69.1671 59.7114 70.3992 60.1756C72.1414 60.7955 72.9067 61.6118 72.9067 62.9994C72.9067 64.3871 71.8864 65.4712 70.3278 65.7824V66.4431C70.3278 66.9052 69.9532 67.2798 69.4911 67.2798C69.029 67.2798 68.6544 66.9052 68.6544 66.4431V65.9074C68.0972 65.8729 67.5463 65.7701 67.0142 65.6013C66.5229 65.4478 66.2373 64.9371 66.3637 64.4381L66.3816 64.3693C66.4909 63.9505 66.8697 63.6589 67.3024 63.6601C67.4109 63.6603 67.5187 63.6784 67.6213 63.7137C68.1139 63.8826 68.6311 63.9688 69.1518 63.9688C69.94 63.9688 70.4119 63.6703 70.4119 63.2035C70.4119 62.7367 70.0064 62.4178 68.9656 62.0658C67.7131 61.6449 66.2744 60.9485 66.2744 59.2981C66.2744 57.9717 67.2157 56.9539 68.7258 56.6171V56.056Z" fill="#B9CECE"/>
<defs>
<filter id="filter0_d" x="0" y="0" width="140" height="140" filterUnits="userSpaceOnUse" color-interpolation-filters="sRGB">
<feFlood flood-opacity="0" result="BackgroundImageFix"/>
<feColorMatrix in="SourceAlpha" type="matrix" values="0 0 0 0 0 0 0 0 0 0 0 0 0 0 0 0 0 0 127 0"/>
<feOffset dy="10"/>
<feGaussianBlur stdDeviation="20"/>
<feColorMatrix type="matrix" values="0 0 0 0 0.827451 0 0 0 0 0.894118 0 0 0 0 0.901961 0 0 0 0.7 0"/>
<feBlend mode="normal" in2="BackgroundImageFix" result="effect1_dropShadow"/>
<feBlend mode="normal" in="SourceGraphic" in2="effect1_dropShadow" result="shape"/>
</filter>
</defs>
</svg>
