<svg height="511pt" viewBox="0 0 511.99935 511" width="511pt" xmlns="http://www.w3.org/2000/svg" xmlns:xlink="http://www.w3.org/1999/xlink"><linearGradient id="a" gradientUnits="userSpaceOnUse" x1=".000141" x2="511.999996928" y1="256.495602964" y2="256.495602964"><stop offset="0" stop-color="#00f2fe"/><stop offset=".0208" stop-color="#03effe"/><stop offset=".2931" stop-color="#24d2fe"/><stop offset=".5538" stop-color="#3cbdfe"/><stop offset=".7956" stop-color="#4ab0fe"/><stop offset="1" stop-color="#4facfe"/></linearGradient><path d="m432 219.496094c0-11.046875 8.953125-20 19.996094-20 11.046875 0 20 8.953125 20 20s-8.953125 20-20 20c-11.042969 0-19.996094-8.953125-19.996094-20zm19.996094-60c11.046875 0 20-8.953125 20-20 0-11.042969-8.953125-20-20-20-11.042969 0-19.996094 8.957031-19.996094 20 0 11.046875 8.953125 20 19.996094 20zm0-79c11.046875 0 20-8.953125 20-20 0-11.042969-8.953125-19.996094-20-19.996094-11.042969 0-19.996094 8.953125-19.996094 19.996094 0 11.046875 8.953125 20 19.996094 20zm-79.996094 0c11.042969 0 20-8.953125 20-20 0-11.042969-8.957031-19.996094-20-19.996094-11.046875 0-20 8.953125-20 19.996094 0 11.046875 8.953125 20 20 20zm-60-20c0-11.042969-8.953125-19.996094-20-19.996094s-20 8.953125-20 19.996094c0 11.046875 8.953125 20 20 20s20-8.953125 20-20zm-251.996094 213c-11.046875 0-20 8.953125-20 20s8.953125 20 20 20c11.042969 0 20-8.953125 20-20s-8.957031-20-20-20zm0 80c-11.046875 0-20 8.953125-20 20 0 11.042968 8.953125 19.996094 20 19.996094 11.042969 0 20-8.953126 20-19.996094 0-11.046875-8.957031-20-20-20zm0 78.996094c-11.046875 0-20 8.957031-20 20 0 11.046874 8.953125 20 20 20 11.042969 0 20-8.953126 20-20 0-11.042969-8.957031-20-20-20zm79.996094 0c-11.042969 0-20 8.957031-20 20 0 11.046874 8.957031 20 20 20 11.046875 0 20-8.953126 20-20 0-11.042969-8.953125-20-20-20zm80 0c-11.046875 0-20 8.957031-20 20 0 11.046874 8.953125 20 20 20s20-8.953126 20-20c0-11.042969-8.953125-20-20-20zm-35.410156-199.996094h-149.175782c-10.648437 0-20.625-4.746094-27.371093-13.023438-6.820313-8.367187-9.480469-19.25-7.296875-29.855468 5.105468-24.808594 18.640625-47.386719 38.105468-63.582032 5.046876-4.199218 10.4375-7.910156 16.089844-11.117187-9.953125-12.09375-15.941406-27.570313-15.941406-44.417969 0-38.597656 31.402344-70 70-70s70 31.402344 70 70c0 16.5-5.753906 31.675781-15.339844 43.65625 6.160156 3.382812 12.03125 7.339844 17.488282 11.878906 19.46875 16.195313 33 38.773438 38.105468 63.582032 2.183594 10.605468-.472656 21.488281-7.292968 29.855468-6.746094 8.277344-16.722657 13.023438-27.371094 13.023438zm-105.585938-162c0 16.542968 13.457032 30 29.996094 30 16.542969 0 30-13.457032 30-30 0-16.539063-13.457031-29.996094-30-29.996094-16.539062 0-29.996094 13.457031-29.996094 29.996094zm99.804688 122c-8.65625-30.425782-36.535156-52-68.195313-52h-1.222656c-31.660156 0-59.539063 21.570312-68.199219 52zm325.148437 306.972656c-6.746093 8.277344-16.722656 13.023438-27.375 13.023438h-149.167969c-10.652343 0-20.628906-4.746094-27.375-13.023438-6.820312-8.367188-9.480468-19.25-7.296874-29.855469 5.109374-24.808593 18.640624-47.386719 38.105468-63.582031 5.046875-4.199219 10.4375-7.910156 16.089844-11.117188-9.953125-12.09375-15.9375-27.570312-15.9375-44.417968 0-38.597656 31.398438-70 69.996094-70s70 31.402344 70 70c0 37.511718-29.660156 68.214844-66.757813 69.917968-.539062.042969-1.078125.082032-1.628906.082032h-1.226563c-31.65625 0-59.535156 21.570312-68.195312 52h138.503906c.503906-8.832032 6.867188-16.570313 15.9375-18.4375 10.820313-2.234375 21.394532 4.738281 23.625 15.554687 2.183594 10.605469-.476562 21.488281-7.296875 29.855469zm-132.957031-148.972656c0 16.539062 13.457031 30 30 30 16.539062 0 30-13.460938 30-30 0-16.542969-13.460938-30-30-30-16.542969 0-30 13.457031-30 30zm0 0" fill="url(#a)"/></svg>