<svg width="121" height="21" viewBox="0 0 121 21" fill="none" xmlns="http://www.w3.org/2000/svg">
<path d="M110.5 3L108.25 8.25L103 9L106.75 12.75L106 18L110.5 15L115 18L114.25 12.75L118 9L112.75 8.25L110.5 3Z" fill="#F0008C" stroke="#FFCDEB" stroke-width="2"/>
<path d="M85.5 3L83.25 8.25L78 9L81.75 12.75L81 18L85.5 15L90 18L89.25 12.75L93 9L87.75 8.25L85.5 3Z" fill="#F0008C" stroke="#FFCDEB" stroke-width="2"/>
<path d="M60.5 3L58.25 8.25L53 9L56.75 12.75L56 18L60.5 15L65 18L64.25 12.75L68 9L62.75 8.25L60.5 3Z" fill="#F0008C" stroke="#FFCDEB" stroke-width="2"/>
<path d="M35.5 3L33.25 8.25L28 9L31.75 12.75L31 18L35.5 15L40 18L39.25 12.75L43 9L37.75 8.25L35.5 3Z" fill="#F0008C" stroke="#FFCDEB" stroke-width="2"/>
<path d="M10.5 3L8.25 8.25L3 9L6.75 12.75L6 18L10.5 15L15 18L14.25 12.75L18 9L12.75 8.25L10.5 3Z" fill="#F0008C" stroke="#FFCDEB" stroke-width="2"/>
</svg>
