<svg width="140" height="140" viewBox="0 0 140 140" fill="none" xmlns="http://www.w3.org/2000/svg">
<g filter="url(#filter0_d)">
<path fill-rule="evenodd" clip-rule="evenodd" d="M70 90C86.5685 90 100 76.5685 100 60C100 43.4315 86.5685 30 70 30C53.4315 30 40 43.4315 40 60C40 76.5685 53.4315 90 70 90Z" fill="white"/>
<path d="M99.5 60C99.5 76.2924 86.2924 89.5 70 89.5C53.7076 89.5 40.5 76.2924 40.5 60C40.5 43.7076 53.7076 30.5 70 30.5C86.2924 30.5 99.5 43.7076 99.5 60Z" stroke="#DEECEC"/>
</g>
<path fill-rule="evenodd" clip-rule="evenodd" d="M73.3211 62.5001C71.5518 62.5001 70.1124 61.0607 70.1124 59.2914V56.5192C70.1124 54.7502 71.5518 53.3107 73.3211 53.3107H74.6163C74.646 53.3088 74.6765 53.3078 74.7072 53.3078H80.1771V51.8479C80.1771 51.8479 80.1771 50 78.329 50H59.8482C58.828 50 58 50.8283 58 51.8479V68.1518C58 69.1714 58.828 70 59.8482 70H78.3287C80.1769 70 80.1769 68.1518 80.1769 68.1518V62.5001H73.3211ZM80.9853 54.6718V54.6713H80.981C80.9771 54.6712 80.9737 54.6705 80.9703 54.6698C80.9666 54.6691 80.9628 54.6683 80.9584 54.6683H74.7069C74.7013 54.6683 74.6959 54.6691 74.6906 54.6699C74.6865 54.6705 74.6824 54.6711 74.6781 54.6713H73.3211C72.301 54.6713 71.4729 55.4993 71.4729 56.5192V59.2914C71.4729 60.311 72.301 61.1396 73.3211 61.1396H80.9853V61.1358C81.5535 61.1162 81.5567 60.541 81.5567 60.541V55.2664L81.5567 55.2656C81.5561 55.242 81.541 54.691 80.9853 54.6718ZM73.0487 57.9053C73.0487 58.4824 73.5167 58.9505 74.0939 58.9505C74.6705 58.9505 75.1388 58.4822 75.1388 57.9053C75.1388 57.3287 74.6705 56.8604 74.0939 56.8604C73.5167 56.8604 73.0487 57.3284 73.0487 57.9053Z" fill="#B9CECE"/>
<defs>
<filter id="filter0_d" x="0" y="0" width="140" height="140" filterUnits="userSpaceOnUse" color-interpolation-filters="sRGB">
<feFlood flood-opacity="0" result="BackgroundImageFix"/>
<feColorMatrix in="SourceAlpha" type="matrix" values="0 0 0 0 0 0 0 0 0 0 0 0 0 0 0 0 0 0 127 0"/>
<feOffset dy="10"/>
<feGaussianBlur stdDeviation="20"/>
<feColorMatrix type="matrix" values="0 0 0 0 0.827451 0 0 0 0 0.894118 0 0 0 0 0.901961 0 0 0 0.7 0"/>
<feBlend mode="normal" in2="BackgroundImageFix" result="effect1_dropShadow"/>
<feBlend mode="normal" in="SourceGraphic" in2="effect1_dropShadow" result="shape"/>
</filter>
</defs>
</svg>
