<svg width="471" height="348" viewBox="0 0 471 348" fill="none" xmlns="http://www.w3.org/2000/svg">
<path d="M240.052 7.00513L113.112 75.7633C115.282 79.5003 116.681 83.635 117.224 87.9223C117.768 92.2097 117.445 96.5626 116.275 100.723C115.106 104.883 113.113 108.767 110.415 112.143C107.717 115.519 104.368 118.319 100.568 120.377C96.7684 122.435 92.5939 123.71 88.2923 124.125C83.9906 124.541 79.6493 124.088 75.5257 122.795C71.402 121.502 67.5799 119.394 64.2857 116.597C60.9916 113.8 58.2925 110.369 56.3484 106.51L13.0652 129.954L125.182 336.942L352.169 213.993L240.052 7.00513Z" fill="#F2F2F2"/>
<path opacity="0.2" d="M111.261 188.31L87.955 182.083L81.7289 205.39L105.035 211.616L111.261 188.31Z" fill="#EC008C"/>
<path d="M143.753 282.098C125.123 310.668 130.228 347.005 130.228 347.005C130.228 347.005 165.537 337.021 184.167 308.452C202.797 279.882 197.693 243.544 197.693 243.544C197.693 243.544 162.383 253.528 143.753 282.098Z" fill="black"/>
<path d="M130.129 346.673C130.129 346.673 129.675 346.601 128.84 346.432C128.175 346.297 127.258 346.104 126.138 345.838C116.132 343.479 89.5282 335.504 72.1349 314.535C50.3656 288.279 51.2823 251.596 51.2823 251.596C51.2823 251.596 84.5684 257.005 106.502 280.584C107.452 281.597 108.377 282.647 109.276 283.734C128.218 306.579 129.984 337.318 130.124 344.917C130.143 346.056 130.129 346.673 130.129 346.673Z" fill="#EC008C"/>
<path d="M116.702 282.098C135.332 310.668 130.228 347.005 130.228 347.005C130.228 347.005 94.918 337.021 76.288 308.452C57.6581 279.882 62.7627 243.544 62.7627 243.544C62.7627 243.544 98.0724 253.528 116.702 282.098Z" stroke="#3F3D56" stroke-width="0.964952" stroke-miterlimit="10"/>
<path opacity="0.1" d="M130.124 344.917C129.632 345.51 129.197 346.017 128.84 346.432C128.049 347.334 127.6 347.807 127.6 347.807C127.6 347.807 127.055 347.122 126.139 345.838C121.106 338.823 104.919 313.879 106.169 285.066C106.236 283.556 106.347 282.061 106.502 280.583C107.452 281.597 108.377 282.647 109.276 283.734C128.218 306.579 129.984 337.318 130.124 344.917Z" fill="black"/>
<path d="M157.747 287.149C156.275 321.225 130.98 347.807 130.98 347.807C130.98 347.807 108.072 319.142 109.545 285.066C111.017 250.991 136.312 224.408 136.312 224.408C136.312 224.408 159.22 253.074 157.747 287.149Z" fill="#EC008C"/>
<path d="M16.1428 298.298C17.8843 298.298 19.296 296.886 19.296 295.144C19.296 293.403 17.8843 291.991 16.1428 291.991C14.4014 291.991 12.9897 293.403 12.9897 295.144C12.9897 296.886 14.4014 298.298 16.1428 298.298Z" fill="#FF6584"/>
<path d="M78.6436 346.9H210.36" stroke="#3F3D56" stroke-width="0.964952" stroke-miterlimit="10"/>
<path d="M0 346.9H62.2394" stroke="#3F3D56" stroke-width="0.964952" stroke-miterlimit="10"/>
<path d="M31.5911 347.48V311.578" stroke="#3F3D56" stroke-width="0.964952" stroke-miterlimit="10"/>
<path d="M31.5912 316.655C34.3951 316.655 36.6682 314.382 36.6682 311.578C36.6682 308.774 34.3951 306.501 31.5912 306.501C28.7872 306.501 26.5142 308.774 26.5142 311.578C26.5142 314.382 28.7872 316.655 31.5912 316.655Z" fill="#3F3D56"/>
<path d="M31.5912 333.705C31.5912 333.705 30.8659 318.105 15.9975 319.919L31.5912 333.705Z" fill="#3F3D56"/>
<path d="M133.525 216.475C138.931 216.475 143.314 212.093 143.314 206.686C143.314 201.28 138.931 196.897 133.525 196.897C128.119 196.897 123.736 201.28 123.736 206.686C123.736 212.093 128.119 216.475 133.525 216.475Z" fill="black"/>
<path d="M102.824 213.806C106.755 213.806 109.943 210.618 109.943 206.686C109.943 202.755 106.755 199.567 102.824 199.567C98.8918 199.567 95.7044 202.755 95.7044 206.686C95.7044 210.618 98.8918 213.806 102.824 213.806Z" stroke="#3F3D56" stroke-width="0.964952" stroke-miterlimit="10"/>
<path d="M164.227 213.806C168.159 213.806 171.346 210.618 171.346 206.686C171.346 202.755 168.159 199.567 164.227 199.567C160.295 199.567 157.108 202.755 157.108 206.686C157.108 210.618 160.295 213.806 164.227 213.806Z" stroke="#3F3D56" stroke-width="0.964952" stroke-miterlimit="10"/>
<path d="M130.98 346.842L136.541 225.798" stroke="#3F3D56" stroke-width="0.964952" stroke-miterlimit="10"/>
<path d="M441.104 141.422C446.51 141.422 450.892 137.039 450.892 131.633C450.892 126.227 446.51 121.844 441.104 121.844C435.697 121.844 431.315 126.227 431.315 131.633C431.315 137.039 435.697 141.422 441.104 141.422Z" fill="#3F3D56"/>
<path d="M238.641 15.2384C242.572 15.2384 245.76 12.051 245.76 8.1192C245.76 4.18738 242.572 1 238.641 1C234.709 1 231.521 4.18738 231.521 8.1192C231.521 12.051 234.709 15.2384 238.641 15.2384Z" stroke="#3F3D56" stroke-width="0.964952" stroke-miterlimit="10"/>
<path d="M157.713 59.6261C161.645 59.6261 164.833 56.4387 164.833 52.5069C164.833 48.5751 161.645 45.3877 157.713 45.3877C153.781 45.3877 150.594 48.5751 150.594 52.5069C150.594 56.4387 153.781 59.6261 157.713 59.6261Z" stroke="#3F3D56" stroke-width="0.964952" stroke-miterlimit="10"/>
<path d="M316.016 85.865C328.743 85.865 339.06 75.5476 339.06 62.8205C339.06 50.0935 328.743 39.7761 316.016 39.7761C303.289 39.7761 292.971 50.0935 292.971 62.8205C292.971 75.5476 303.289 85.865 316.016 85.865Z" fill="#FF6584"/>
<path d="M369.057 266.446L381.375 316.111L393.691 314.124L381.375 257.308L369.057 266.446Z" fill="#FBBEBE"/>
<path d="M385.745 312.932C385.745 312.932 378.731 315.304 379.655 316.899C380.58 318.494 380.58 328.427 377.401 332.003C374.223 335.579 366.276 346.704 375.415 347.101C384.553 347.499 393.691 341.539 393.691 341.539V331.209L395.281 340.744H396.87V330.017C396.87 330.017 400.843 323.262 398.459 319.289C396.075 315.316 394.521 311.853 391.524 312.194C388.526 312.535 385.745 312.932 385.745 312.932Z" fill="#2F2E41"/>
<path d="M320.585 308.562L318.598 319.289H332.505V308.562H320.585Z" fill="#FBBEBE"/>
<path d="M321.777 316.905C321.777 316.905 317.804 316.508 316.612 322.07C315.42 327.633 304.692 339.439 300.719 340.631C296.746 341.823 296.746 345.796 301.911 346.591C307.076 347.385 320.188 347.783 323.366 343.412C326.545 339.042 330.915 332.003 330.915 332.003L328.929 346.988H332.504C332.504 346.988 335.683 332.401 338.861 328.825C342.04 325.249 332.504 316.905 330.915 316.905H321.777Z" fill="#2F2E41"/>
<path d="M302.308 146.059C302.308 146.059 299.527 153.608 294.759 154.8C289.991 155.992 254.63 164.335 254.63 164.335C254.63 164.335 223.639 165.13 233.175 171.884C242.711 178.639 258.206 171.884 258.206 171.884C258.206 171.884 303.5 166.322 307.076 160.362C309.43 156.306 311.424 152.052 313.036 147.648L302.308 146.059Z" fill="#FBBEBE"/>
<path d="M317.406 112.684C317.406 112.684 294.759 149.635 297.54 150.429C300.322 151.224 326.147 159.568 327.339 156.389C328.531 153.21 328.531 138.51 328.531 138.51L317.406 112.684Z" fill="black"/>
<path opacity="0.1" d="M317.406 112.684C317.406 112.684 294.759 149.635 297.54 150.429C300.322 151.224 326.147 159.568 327.339 156.389C328.531 153.21 328.531 138.51 328.531 138.51L317.406 112.684Z" fill="black"/>
<path d="M376.209 103.943L427.463 130.166C427.463 130.166 456.468 137.715 450.11 143.675C443.753 149.635 423.093 138.51 423.093 138.51L366.276 112.684L376.209 103.943Z" fill="#FBBEBE"/>
<path d="M310.652 83.2823C310.652 83.2823 320.585 98.3804 319.79 101.956C319.79 101.956 320.585 104.34 319.393 105.929C318.201 107.519 318.598 117.054 318.598 117.054L322.571 122.617L327.737 105.532L330.121 87.2555C330.121 87.2555 324.757 79.9052 325.551 76.3293C326.346 72.7535 310.652 83.2823 310.652 83.2823Z" fill="#FBBEBE"/>
<path d="M342.04 169.103C342.04 169.103 319.79 228.701 319.79 254.924C319.79 281.147 311.447 310.945 317.804 313.727C324.161 316.508 356.343 316.905 357.138 313.727C357.933 310.548 353.165 181.42 350.781 176.255C348.397 171.09 342.04 169.103 342.04 169.103Z" fill="black"/>
<path opacity="0.1" d="M342.04 169.103C342.04 169.103 319.79 228.701 319.79 254.924C319.79 281.147 311.447 310.945 317.804 313.727C324.161 316.508 356.343 316.905 357.138 313.727C357.933 310.548 353.165 181.42 350.781 176.255C348.397 171.09 342.04 169.103 342.04 169.103Z" fill="black"/>
<path d="M315.817 85.6664C323.936 85.6664 330.518 79.0846 330.518 70.9656C330.518 62.8466 323.936 56.2649 315.817 56.2649C307.698 56.2649 301.116 62.8466 301.116 70.9656C301.116 79.0846 307.698 85.6664 315.817 85.6664Z" fill="#FBBEBE"/>
<path d="M320.188 115.465L319.124 106.499C319.124 106.499 315.817 111.095 315.817 114.671C315.817 118.246 313.83 130.961 322.174 138.907C330.518 146.853 332.107 148.442 332.504 150.032C332.902 151.621 334.888 151.621 334.888 151.621L346.411 198.107C346.411 198.107 349.986 321.673 355.549 323.262C361.111 324.852 378.196 323.262 379.388 321.276C380.58 319.289 377.401 266.446 377.401 266.446C377.401 266.446 386.142 313.329 389.321 313.329C392.499 313.329 394.486 306.575 393.691 306.178C392.897 305.78 388.129 275.187 386.142 265.651C384.156 256.116 384.95 175.46 384.95 175.46C384.95 175.46 391.307 165.13 369.455 144.867C369.455 144.867 355.549 104.34 354.754 104.34C353.96 104.34 338.464 82.4878 338.464 82.4878C338.464 82.4878 329.723 82.4878 328.134 87.6529C326.545 92.8181 320.188 115.465 320.188 115.465Z" fill="black" fill-opacity="0.9"/>
<path d="M333.696 85.6663L338.464 82.4878C338.464 82.4878 358.33 94.4073 372.236 95.2019C386.142 95.9966 385.745 103.943 380.183 109.505C374.62 115.068 352.768 134.139 351.973 129.371C351.178 124.603 333.696 85.6663 333.696 85.6663Z" fill="black"/>
<path d="M316.016 65.9992C324.793 65.9992 331.908 61.73 331.908 56.4636C331.908 51.1972 324.793 46.928 316.016 46.928C307.238 46.928 300.123 51.1972 300.123 56.4636C300.123 61.73 307.238 65.9992 316.016 65.9992Z" fill="#FF6584"/>
<path d="M317.605 49.3117C322.871 49.3117 327.141 45.0425 327.141 39.7761C327.141 34.5097 322.871 30.2405 317.605 30.2405C312.339 30.2405 308.069 34.5097 308.069 39.7761C308.069 45.0425 312.339 49.3117 317.605 49.3117Z" fill="#FF6584"/>
<path d="M304.891 34.6111C304.891 32.254 305.764 29.9806 307.341 28.2292C308.919 26.4779 311.089 25.3727 313.433 25.127C313.103 25.0927 312.772 25.0755 312.44 25.0754C309.911 25.0754 307.485 26.0801 305.697 27.8684C303.909 29.6566 302.904 32.0821 302.904 34.6111C302.904 37.1401 303.909 39.5655 305.697 41.3538C307.485 43.142 309.911 44.1467 312.44 44.1467C312.772 44.1466 313.103 44.1294 313.433 44.0951C311.089 43.8494 308.919 42.7442 307.341 40.9929C305.764 39.2415 304.891 36.9681 304.891 34.6111Z" fill="#FF6584"/>
<path d="M83.2581 118.186C97.7311 118.186 109.464 106.453 109.464 91.9802C109.464 77.5071 97.7311 65.7744 83.2581 65.7744C68.785 65.7744 57.0523 77.5071 57.0523 91.9802C57.0523 106.453 68.785 118.186 83.2581 118.186Z" fill="#EC008C"/>
<path d="M239.067 347.113H428.197" stroke="#3F3D56" stroke-width="0.964952" stroke-miterlimit="10"/>
<path d="M464.38 84.4437L441.473 107.351L431.845 97.7228C431.539 97.4172 431.176 97.1748 430.777 97.0094C430.378 96.844 429.95 96.7588 429.517 96.7588C429.085 96.7588 428.657 96.844 428.258 97.0094C427.859 97.1748 427.496 97.4172 427.19 97.7228L426.844 97.2055C425.559 98.4908 425.905 101.092 427.19 102.377L439.682 114.869C440.153 115.34 440.792 115.605 441.457 115.605C442.123 115.605 442.762 115.341 443.233 114.87L469.032 89.0983C470.318 87.8135 470.784 85.4575 469.499 84.1721C468.214 82.8871 465.665 83.1588 464.38 84.4437Z" fill="#EC008C"/>
<path opacity="0.1" d="M464.38 84.4437L441.473 107.351L431.845 97.7228C431.539 97.4172 431.176 97.1748 430.777 97.0094C430.378 96.844 429.95 96.7588 429.517 96.7588C429.085 96.7588 428.657 96.844 428.258 97.0094C427.859 97.1748 427.496 97.4172 427.19 97.7228L426.844 97.2055C425.559 98.4908 425.905 101.092 427.19 102.377L439.682 114.869C440.153 115.34 440.792 115.605 441.457 115.605C442.123 115.605 442.762 115.341 443.233 114.87L469.032 89.0983C470.318 87.8135 470.784 85.4575 469.499 84.1721C468.214 82.8871 465.665 83.1588 464.38 84.4437Z" fill="black"/>
<path d="M464.38 83.4281L441.473 106.335L431.845 96.7072C431.539 96.4016 431.176 96.1591 430.777 95.9937C430.378 95.8283 429.95 95.7432 429.517 95.7432C429.085 95.7432 428.657 95.8283 428.258 95.9937C427.859 96.1591 427.496 96.4016 427.19 96.7072C426.885 97.0128 426.642 97.3756 426.477 97.7749C426.311 98.1742 426.226 98.6022 426.226 99.0344C426.226 99.4666 426.311 99.8946 426.477 100.294C426.642 100.693 426.885 101.056 427.19 101.362L439.682 113.854C440.153 114.325 440.792 114.589 441.457 114.589C442.123 114.59 442.762 114.325 443.233 113.855L469.032 88.0826C469.338 87.7771 469.58 87.4144 469.746 87.0151C469.911 86.6158 469.997 86.1879 469.997 85.7556C469.997 85.3234 469.912 84.8953 469.746 84.496C469.581 84.0966 469.339 83.7337 469.033 83.4281C468.416 82.811 467.579 82.4644 466.706 82.4644C465.834 82.4644 464.997 82.811 464.38 83.4281Z" fill="#EC008C"/>
</svg>
